<svg width="16" height="16" viewBox="0 0 16 16" fill="none" xmlns="http://www.w3.org/2000/svg">
    <path fill-rule="evenodd" clip-rule="evenodd" d="M1 1.5C1 1.22386 1.22386 1 1.5 1H14.5C14.7761 1 15 1.22386 15 1.5V14.5C15 14.7761 14.7761 15 14.5 15H1.5C1.22386 15 1 14.7761 1 14.5V1.5ZM2 2V14H14V2H2Z" fill="black"/>
    <path d="M12 3L11 4H13L12 3Z" fill="black"/>
    <path fill-rule="evenodd" clip-rule="evenodd" d="M1 5.5C1 5.22386 1.22386 5 1.5 5H14.5C14.7761 5 15 5.22386 15 5.5C15 5.77614 14.7761 6 14.5 6H1.5C1.22386 6 1 5.77614 1 5.5Z" fill="black"/>
    <path fill-rule="evenodd" clip-rule="evenodd" d="M3.5 8.5C3.5 8.22386 3.72386 8 4 8H12C12.2761 8 12.5 8.22386 12.5 8.5C12.5 8.77614 12.2761 9 12 9H4C3.72386 9 3.5 8.77614 3.5 8.5Z" fill="black"/>
    <path fill-rule="evenodd" clip-rule="evenodd" d="M3.5 11.5C3.5 11.2239 3.72386 11 4 11H12C12.2761 11 12.5 11.2239 12.5 11.5C12.5 11.7761 12.2761 12 12 12H4C3.72386 12 3.5 11.7761 3.5 11.5Z" fill="black"/>
</svg>