<svg width="16" height="16" viewBox="0 0 16 16" fill="none" xmlns="http://www.w3.org/2000/svg">
<path fill-rule="evenodd" clip-rule="evenodd" d="M8 2C4.68629 2 2 4.68629 2 8C2 11.3137 4.68629 14 8 14C11.3137 14 14 11.3137 14 8C14 4.68629 11.3137 2 8 2ZM1 8C1 4.13401 4.13401 1 8 1C11.866 1 15 4.13401 15 8C15 11.866 11.866 15 8 15C4.13401 15 1 11.866 1 8Z" fill="#1C00C2"/>
<path fill-rule="evenodd" clip-rule="evenodd" d="M8 3.78564C8.27614 3.78564 8.5 4.0095 8.5 4.28564V11.7142C8.5 11.9904 8.27614 12.2142 8 12.2142C7.72386 12.2142 7.5 11.9904 7.5 11.7142V4.28564C7.5 4.0095 7.72386 3.78564 8 3.78564Z" fill="#1C00C2"/>
<path fill-rule="evenodd" clip-rule="evenodd" d="M3.78613 8C3.78613 7.72386 4.00999 7.5 4.28613 7.5H11.7147C11.9908 7.5 12.2147 7.72386 12.2147 8C12.2147 8.27614 11.9908 8.5 11.7147 8.5H4.28613C4.00999 8.5 3.78613 8.27614 3.78613 8Z" fill="#1C00C2"/>
</svg>
