<svg width="16" height="16" viewBox="0 0 16 16" fill="none" xmlns="http://www.w3.org/2000/svg">
<path fill-rule="evenodd" clip-rule="evenodd" d="M13.1063 1.03807C13.2931 1.11547 13.4149 1.29778 13.4149 1.50001V5.52881C13.4149 5.80495 13.1911 6.02881 12.9149 6.02881C12.6388 6.02881 12.4149 5.80495 12.4149 5.52881V2.70712L2.70712 12.4149H5.52881C5.80495 12.4149 6.02881 12.6388 6.02881 12.9149C6.02881 13.1911 5.80495 13.4149 5.52881 13.4149H1.50001C1.29778 13.4149 1.11547 13.2931 1.03807 13.1063C0.960684 12.9194 1.00346 12.7044 1.14646 12.5614L12.5614 1.14646C12.7044 1.00346 12.9194 0.960684 13.1063 1.03807Z" fill="black"/>
<path fill-rule="evenodd" clip-rule="evenodd" d="M11.3292 9.927C10.5547 9.927 9.92676 10.5549 9.92676 11.3295C9.92676 12.1041 10.5547 12.732 11.3292 12.732C12.1038 12.732 12.7317 12.1041 12.7317 11.3295C12.7317 10.5549 12.1038 9.927 11.3292 9.927ZM8.92676 11.3295C8.92676 10.0026 10.0024 8.927 11.3292 8.927C12.6561 8.927 13.7317 10.0026 13.7317 11.3295C13.7317 12.6563 12.6561 13.732 11.3292 13.732C10.0024 13.732 8.92676 12.6563 8.92676 11.3295Z" fill="black"/>
<path fill-rule="evenodd" clip-rule="evenodd" d="M11.3291 7.65869C11.6052 7.65869 11.8291 7.88255 11.8291 8.15869V9.42701C11.8291 9.70316 11.6052 9.92701 11.3291 9.92701C11.053 9.92701 10.8291 9.70316 10.8291 9.42701V8.15869C10.8291 7.88255 11.053 7.65869 11.3291 7.65869Z" fill="black"/>
<path fill-rule="evenodd" clip-rule="evenodd" d="M13.9257 8.73336C14.121 8.92862 14.121 9.24521 13.9257 9.44047L13.0284 10.3378C12.8331 10.5331 12.5165 10.5331 12.3213 10.3378C12.126 10.1425 12.126 9.82596 12.3213 9.6307L13.2186 8.73336C13.4139 8.5381 13.7304 8.5381 13.9257 8.73336Z" fill="black"/>
<path fill-rule="evenodd" clip-rule="evenodd" d="M12.7314 11.3293C12.7314 11.0532 12.9553 10.8293 13.2314 10.8293H14.4998C14.7759 10.8293 14.9998 11.0532 14.9998 11.3293C14.9998 11.6055 14.7759 11.8293 14.4998 11.8293H13.2314C12.9553 11.8293 12.7314 11.6055 12.7314 11.3293Z" fill="black"/>
<path fill-rule="evenodd" clip-rule="evenodd" d="M12.3213 12.321C12.5165 12.1257 12.8331 12.1257 13.0284 12.321L13.9257 13.2183C14.121 13.4136 14.121 13.7302 13.9257 13.9255C13.7304 14.1207 13.4139 14.1207 13.2186 13.9255L12.3213 13.0281C12.126 12.8329 12.126 12.5163 12.3213 12.321Z" fill="black"/>
<path fill-rule="evenodd" clip-rule="evenodd" d="M11.3291 12.7319C11.6052 12.7319 11.8291 12.9558 11.8291 13.2319V14.5003C11.8291 14.7764 11.6052 15.0003 11.3291 15.0003C11.053 15.0003 10.8291 14.7764 10.8291 14.5003V13.2319C10.8291 12.9558 11.053 12.7319 11.3291 12.7319Z" fill="black"/>
<path fill-rule="evenodd" clip-rule="evenodd" d="M10.3378 12.321C10.5331 12.5163 10.5331 12.8329 10.3378 13.0281L9.44047 13.9255C9.24521 14.1207 8.92862 14.1207 8.73336 13.9255C8.5381 13.7302 8.5381 13.4136 8.73336 13.2183L9.6307 12.321C9.82596 12.1257 10.1425 12.1257 10.3378 12.321Z" fill="black"/>
<path fill-rule="evenodd" clip-rule="evenodd" d="M7.65918 11.3293C7.65918 11.0532 7.88304 10.8293 8.15918 10.8293H9.4275C9.70364 10.8293 9.9275 11.0532 9.9275 11.3293C9.9275 11.6055 9.70364 11.8293 9.4275 11.8293H8.15918C7.88304 11.8293 7.65918 11.6055 7.65918 11.3293Z" fill="black"/>
<path fill-rule="evenodd" clip-rule="evenodd" d="M8.73336 8.73336C8.92862 8.5381 9.24521 8.5381 9.44047 8.73336L10.3378 9.6307C10.5331 9.82596 10.5331 10.1425 10.3378 10.3378C10.1425 10.5331 9.82596 10.5331 9.6307 10.3378L8.73336 9.44047C8.5381 9.24521 8.5381 8.92862 8.73336 8.73336Z" fill="black"/>
</svg>
