<svg width="16" height="16" viewBox="0 0 16 16" fill="none" xmlns="http://www.w3.org/2000/svg">
<path fill-rule="evenodd" clip-rule="evenodd" d="M1 1.5C1 1.22386 1.22386 1 1.5 1H4.1C4.37614 1 4.6 1.22386 4.6 1.5V4.1C4.6 4.37614 4.37614 4.6 4.1 4.6H1.5C1.22386 4.6 1 4.37614 1 4.1V1.5ZM2 2V3.6H3.6V2H2Z" fill="black"/>
<path fill-rule="evenodd" clip-rule="evenodd" d="M6.2002 1.5C6.2002 1.22386 6.42405 1 6.7002 1H9.3002C9.57634 1 9.8002 1.22386 9.8002 1.5V4.1C9.8002 4.37614 9.57634 4.6 9.3002 4.6H6.7002C6.42405 4.6 6.2002 4.37614 6.2002 4.1V1.5ZM7.2002 2V3.6H8.8002V2H7.2002Z" fill="black"/>
<path fill-rule="evenodd" clip-rule="evenodd" d="M11.4004 1.5C11.4004 1.22386 11.6242 1 11.9004 1H14.5004C14.7765 1 15.0004 1.22386 15.0004 1.5V4.1C15.0004 4.37614 14.7765 4.6 14.5004 4.6H11.9004C11.6242 4.6 11.4004 4.37614 11.4004 4.1V1.5ZM12.4004 2V3.6H14.0004V2H12.4004Z" fill="black"/>
<path fill-rule="evenodd" clip-rule="evenodd" d="M1 6.69995C1 6.42381 1.22386 6.19995 1.5 6.19995H4.1C4.37614 6.19995 4.6 6.42381 4.6 6.69995V9.29995C4.6 9.57609 4.37614 9.79995 4.1 9.79995H1.5C1.22386 9.79995 1 9.57609 1 9.29995V6.69995ZM2 7.19995V8.79995H3.6V7.19995H2Z" fill="black"/>
<path fill-rule="evenodd" clip-rule="evenodd" d="M6.2002 6.69995C6.2002 6.42381 6.42405 6.19995 6.7002 6.19995H9.3002C9.57634 6.19995 9.8002 6.42381 9.8002 6.69995V9.29995C9.8002 9.57609 9.57634 9.79995 9.3002 9.79995H6.7002C6.42405 9.79995 6.2002 9.57609 6.2002 9.29995V6.69995ZM7.2002 7.19995V8.79995H8.8002V7.19995H7.2002Z" fill="black"/>
<path fill-rule="evenodd" clip-rule="evenodd" d="M11.4004 6.69995C11.4004 6.42381 11.6242 6.19995 11.9004 6.19995H14.5004C14.7765 6.19995 15.0004 6.42381 15.0004 6.69995V9.29995C15.0004 9.57609 14.7765 9.79995 14.5004 9.79995H11.9004C11.6242 9.79995 11.4004 9.57609 11.4004 9.29995V6.69995ZM12.4004 7.19995V8.79995H14.0004V7.19995H12.4004Z" fill="black"/>
<path fill-rule="evenodd" clip-rule="evenodd" d="M1 11.8999C1 11.6238 1.22386 11.3999 1.5 11.3999H4.1C4.37614 11.3999 4.6 11.6238 4.6 11.8999V14.4999C4.6 14.776 4.37614 14.9999 4.1 14.9999H1.5C1.22386 14.9999 1 14.776 1 14.4999V11.8999ZM2 12.3999V13.9999H3.6V12.3999H2Z" fill="black"/>
<path fill-rule="evenodd" clip-rule="evenodd" d="M6.2002 11.8999C6.2002 11.6238 6.42405 11.3999 6.7002 11.3999H9.3002C9.57634 11.3999 9.8002 11.6238 9.8002 11.8999V14.4999C9.8002 14.776 9.57634 14.9999 9.3002 14.9999H6.7002C6.42405 14.9999 6.2002 14.776 6.2002 14.4999V11.8999ZM7.2002 12.3999V13.9999H8.8002V12.3999H7.2002Z" fill="black"/>
<path fill-rule="evenodd" clip-rule="evenodd" d="M11.4004 11.8999C11.4004 11.6238 11.6242 11.3999 11.9004 11.3999H14.5004C14.7765 11.3999 15.0004 11.6238 15.0004 11.8999V14.4999C15.0004 14.776 14.7765 14.9999 14.5004 14.9999H11.9004C11.6242 14.9999 11.4004 14.776 11.4004 14.4999V11.8999ZM12.4004 12.3999V13.9999H14.0004V12.3999H12.4004Z" fill="black"/>
</svg>
