<svg width="16" height="16" viewBox="0 0 16 16" fill="none" xmlns="http://www.w3.org/2000/svg">
<path fill-rule="evenodd" clip-rule="evenodd" d="M1.5 1C1.77614 1 2 1.22386 2 1.5V14.5004C2 14.7766 1.77614 15.0004 1.5 15.0004C1.22386 15.0004 1 14.7766 1 14.5004V1.5C1 1.22386 1.22386 1 1.5 1Z" fill="black"/>
<path fill-rule="evenodd" clip-rule="evenodd" d="M4.46582 4.09985C4.46582 3.82371 4.68968 3.59985 4.96582 3.59985H14.4995C14.7756 3.59985 14.9995 3.82371 14.9995 4.09985V6.69994C14.9995 6.97608 14.7756 7.19994 14.4995 7.19994H4.96582C4.68968 7.19994 4.46582 6.97608 4.46582 6.69994V4.09985ZM5.46582 4.59985V6.19994H13.9995V4.59985H5.46582Z" fill="black"/>
<path fill-rule="evenodd" clip-rule="evenodd" d="M4.46582 9.30029C4.46582 9.02415 4.68968 8.80029 4.96582 8.80029H11.0327C11.3088 8.80029 11.5327 9.02415 11.5327 9.30029V11.9004C11.5327 12.1765 11.3088 12.4004 11.0327 12.4004H4.96582C4.68968 12.4004 4.46582 12.1765 4.46582 11.9004V9.30029ZM5.46582 9.80029V11.4004H10.5327V9.80029H5.46582Z" fill="black"/>
</svg>
