<svg width="16" height="16" viewBox="0 0 16 16" fill="none" xmlns="http://www.w3.org/2000/svg">
<path fill-rule="evenodd" clip-rule="evenodd" d="M11.3994 7.99976C11.3994 7.72361 11.6233 7.49976 11.8994 7.49976H14.4994C14.7756 7.49976 14.9994 7.72361 14.9994 7.99976C14.9994 8.2759 14.7756 8.49976 14.4994 8.49976H11.8994C11.6233 8.49976 11.3994 8.2759 11.3994 7.99976Z" fill="black"/>
<path fill-rule="evenodd" clip-rule="evenodd" d="M6.2002 7.99976C6.2002 7.72361 6.42405 7.49976 6.7002 7.49976H9.3002C9.57634 7.49976 9.8002 7.72361 9.8002 7.99976C9.8002 8.2759 9.57634 8.49976 9.3002 8.49976H6.7002C6.42405 8.49976 6.2002 8.2759 6.2002 7.99976Z" fill="black"/>
<path fill-rule="evenodd" clip-rule="evenodd" d="M1 7.99976C1 7.72361 1.22386 7.49976 1.5 7.49976H4.1C4.37614 7.49976 4.6 7.72361 4.6 7.99976C4.6 8.2759 4.37614 8.49976 4.1 8.49976H1.5C1.22386 8.49976 1 8.2759 1 7.99976Z" fill="black"/>
<path fill-rule="evenodd" clip-rule="evenodd" d="M3.60059 3.5C3.60059 3.22386 3.82444 3 4.10059 3H6.70059C6.97673 3 7.20059 3.22386 7.20059 3.5V12.5C7.20059 12.7761 6.97673 13 6.70059 13H4.10059C3.82444 13 3.60059 12.7761 3.60059 12.5V3.5ZM4.60059 4V12H6.20059V4H4.60059Z" fill="black"/>
<path fill-rule="evenodd" clip-rule="evenodd" d="M8.7998 5.30005C8.7998 5.02391 9.02366 4.80005 9.2998 4.80005H11.8998C12.1759 4.80005 12.3998 5.02391 12.3998 5.30005V10.7C12.3998 10.9762 12.1759 11.2 11.8998 11.2H9.2998C9.02366 11.2 8.7998 10.9762 8.7998 10.7V5.30005ZM9.7998 5.80005V10.2H11.3998V5.80005H9.7998Z" fill="black"/>
</svg>
