<svg width="16" height="16" viewBox="0 0 16 16" fill="none" xmlns="http://www.w3.org/2000/svg">
<path fill-rule="evenodd" clip-rule="evenodd" d="M8 11.4001C8.27614 11.4001 8.5 11.624 8.5 11.9001V14.5001C8.5 14.7763 8.27614 15.0001 8 15.0001C7.72386 15.0001 7.5 14.7763 7.5 14.5001V11.9001C7.5 11.624 7.72386 11.4001 8 11.4001Z" fill="black"/>
<path fill-rule="evenodd" clip-rule="evenodd" d="M8 6.19995C8.27614 6.19995 8.5 6.42381 8.5 6.69995V9.29995C8.5 9.57609 8.27614 9.79995 8 9.79995C7.72386 9.79995 7.5 9.57609 7.5 9.29995V6.69995C7.5 6.42381 7.72386 6.19995 8 6.19995Z" fill="black"/>
<path fill-rule="evenodd" clip-rule="evenodd" d="M8 1C8.27614 1 8.5 1.22386 8.5 1.5V4.1C8.5 4.37614 8.27614 4.6 8 4.6C7.72386 4.6 7.5 4.37614 7.5 4.1V1.5C7.5 1.22386 7.72386 1 8 1Z" fill="black"/>
<path fill-rule="evenodd" clip-rule="evenodd" d="M3 4.09985C3 3.82371 3.22386 3.59985 3.5 3.59985H12.5C12.7761 3.59985 13 3.82371 13 4.09985V6.69985C13 6.976 12.7761 7.19985 12.5 7.19985H3.5C3.22386 7.19985 3 6.976 3 6.69985V4.09985ZM4 4.59985V6.19985H12V4.59985H4Z" fill="black"/>
<path fill-rule="evenodd" clip-rule="evenodd" d="M4.7998 9.30005C4.7998 9.02391 5.02366 8.80005 5.2998 8.80005H10.6998C10.9759 8.80005 11.1998 9.02391 11.1998 9.30005V11.9C11.1998 12.1762 10.9759 12.4 10.6998 12.4H5.2998C5.02366 12.4 4.7998 12.1762 4.7998 11.9V9.30005ZM5.7998 9.80005V11.4H10.1998V9.80005H5.7998Z" fill="black"/>
</svg>
