<svg width="16" height="16" viewBox="0 0 16 16" fill="none" xmlns="http://www.w3.org/2000/svg">
<path fill-rule="evenodd" clip-rule="evenodd" d="M14.5 1C14.7761 1 15 1.22386 15 1.5V14.5C15 14.7761 14.7761 15 14.5 15C14.2239 15 14 14.7761 14 14.5V1.5C14 1.22386 14.2239 1 14.5 1Z" fill="black"/>
<path fill-rule="evenodd" clip-rule="evenodd" d="M1 4.09985C1 3.82371 1.22386 3.59985 1.5 3.59985H11.0333C11.3095 3.59985 11.5333 3.82371 11.5333 4.09985V6.69985C11.5333 6.976 11.3095 7.19985 11.0333 7.19985H1.5C1.22386 7.19985 1 6.976 1 6.69985V4.09985ZM2 4.59985V6.19985H10.5333V4.59985H2Z" fill="black"/>
<path fill-rule="evenodd" clip-rule="evenodd" d="M4.46582 9.30005C4.46582 9.02391 4.68968 8.80005 4.96582 8.80005H11.0325C11.3086 8.80005 11.5325 9.02391 11.5325 9.30005V11.9C11.5325 12.1762 11.3086 12.4 11.0325 12.4H4.96582C4.68968 12.4 4.46582 12.1762 4.46582 11.9V9.30005ZM5.46582 9.80005V11.4H10.5325V9.80005H5.46582Z" fill="black"/>
</svg>
