<svg width="16" height="16" viewBox="0 0 16 16" fill="none" xmlns="http://www.w3.org/2000/svg">
<path fill-rule="evenodd" clip-rule="evenodd" d="M1 1.5C1 1.22386 1.22386 1 1.5 1H14.5C14.7761 1 15 1.22386 15 1.5C15 1.77614 14.7761 2 14.5 2H1.5C1.22386 2 1 1.77614 1 1.5Z" fill="black"/>
<path fill-rule="evenodd" clip-rule="evenodd" d="M3.60059 4.9668C3.60059 4.69065 3.82444 4.4668 4.10059 4.4668H6.70059C6.97673 4.4668 7.20059 4.69065 7.20059 4.9668V11.0335C7.20059 11.3096 6.97673 11.5335 6.70059 11.5335H4.10059C3.82444 11.5335 3.60059 11.3096 3.60059 11.0335V4.9668ZM4.60059 5.4668V10.5335H6.20059V5.4668H4.60059Z" fill="black"/>
<path fill-rule="evenodd" clip-rule="evenodd" d="M8.7998 4.9668C8.7998 4.69065 9.02366 4.4668 9.2998 4.4668H11.8998C12.1759 4.4668 12.3998 4.69065 12.3998 4.9668V14.5001C12.3998 14.7763 12.1759 15.0001 11.8998 15.0001H9.2998C9.02366 15.0001 8.7998 14.7763 8.7998 14.5001V4.9668ZM9.7998 5.4668V14.0001H11.3998V5.4668H9.7998Z" fill="black"/>
</svg>
