<svg width="16" height="16" viewBox="0 0 16 16" fill="none" xmlns="http://www.w3.org/2000/svg">
<path fill-rule="evenodd" clip-rule="evenodd" d="M1 14.5C1 14.2239 1.22386 14 1.5 14H14.5C14.7761 14 15 14.2239 15 14.5C15 14.7761 14.7761 15 14.5 15H1.5C1.22386 15 1 14.7761 1 14.5Z" fill="black"/>
<path fill-rule="evenodd" clip-rule="evenodd" d="M3.59961 1.5C3.59961 1.22386 3.82347 1 4.09961 1H6.69961C6.97575 1 7.19961 1.22386 7.19961 1.5V11.0333C7.19961 11.3095 6.97575 11.5333 6.69961 11.5333H4.09961C3.82347 11.5333 3.59961 11.3095 3.59961 11.0333V1.5ZM4.59961 2V10.5333H6.19961V2H4.59961Z" fill="black"/>
<path fill-rule="evenodd" clip-rule="evenodd" d="M8.80078 4.9668C8.80078 4.69065 9.02464 4.4668 9.30078 4.4668H11.9008C12.1769 4.4668 12.4008 4.69065 12.4008 4.9668V11.0335C12.4008 11.3096 12.1769 11.5335 11.9008 11.5335H9.30078C9.02464 11.5335 8.80078 11.3096 8.80078 11.0335V4.9668ZM9.80078 5.4668V10.5335H11.4008V5.4668H9.80078Z" fill="black"/>
</svg>
