<svg width="16" height="16" viewBox="0 0 16 16" fill="none" xmlns="http://www.w3.org/2000/svg">
<path fill-rule="evenodd" clip-rule="evenodd" d="M4.1 2C2.9402 2 2 2.9402 2 4.1C2 5.2598 2.9402 6.2 4.1 6.2C5.2598 6.2 6.2 5.2598 6.2 4.1C6.2 2.9402 5.2598 2 4.1 2ZM1 4.1C1 2.38792 2.38792 1 4.1 1C5.81208 1 7.2 2.38792 7.2 4.1C7.2 5.81208 5.81208 7.2 4.1 7.2C2.38792 7.2 1 5.81208 1 4.1Z" fill="black"/>
<path fill-rule="evenodd" clip-rule="evenodd" d="M11.9008 2C10.741 2 9.80078 2.9402 9.80078 4.1C9.80078 5.2598 10.741 6.2 11.9008 6.2C13.0606 6.2 14.0008 5.2598 14.0008 4.1C14.0008 2.9402 13.0606 2 11.9008 2ZM8.80078 4.1C8.80078 2.38792 10.1887 1 11.9008 1C13.6129 1 15.0008 2.38792 15.0008 4.1C15.0008 5.81208 13.6129 7.2 11.9008 7.2C10.1887 7.2 8.80078 5.81208 8.80078 4.1Z" fill="black"/>
<path fill-rule="evenodd" clip-rule="evenodd" d="M4.1 9.7998C2.9402 9.7998 2 10.74 2 11.8998C2 13.0596 2.9402 13.9998 4.1 13.9998C5.2598 13.9998 6.2 13.0596 6.2 11.8998C6.2 10.74 5.2598 9.7998 4.1 9.7998ZM1 11.8998C1 10.1877 2.38792 8.7998 4.1 8.7998C5.81208 8.7998 7.2 10.1877 7.2 11.8998C7.2 13.6119 5.81208 14.9998 4.1 14.9998C2.38792 14.9998 1 13.6119 1 11.8998Z" fill="black"/>
<path fill-rule="evenodd" clip-rule="evenodd" d="M11.9008 9.7998C10.741 9.7998 9.80078 10.74 9.80078 11.8998C9.80078 13.0596 10.741 13.9998 11.9008 13.9998C13.0606 13.9998 14.0008 13.0596 14.0008 11.8998C14.0008 10.74 13.0606 9.7998 11.9008 9.7998ZM8.80078 11.8998C8.80078 10.1877 10.1887 8.7998 11.9008 8.7998C13.6129 8.7998 15.0008 10.1877 15.0008 11.8998C15.0008 13.6119 13.6129 14.9998 11.9008 14.9998C10.1887 14.9998 8.80078 13.6119 8.80078 11.8998Z" fill="black"/>
</svg>
