<svg width="16" height="16" viewBox="0 0 16 16" fill="none" xmlns="http://www.w3.org/2000/svg">
<path fill-rule="evenodd" clip-rule="evenodd" d="M13.0789 14.8904C12.8633 15.0629 12.5487 15.028 12.3761 14.8123L7.17615 8.31233C7.03006 8.12972 7.03006 7.87024 7.17615 7.68763L12.3761 1.18763C12.5487 0.972003 12.8633 0.937042 13.0789 1.10955C13.2946 1.28205 13.3295 1.5967 13.157 1.81233L8.2069 7.99998L13.157 14.1876C13.3295 14.4033 13.2946 14.7179 13.0789 14.8904Z" fill="black"/>
<path fill-rule="evenodd" clip-rule="evenodd" d="M8.74592 14.8904C8.53029 15.0629 8.21565 15.028 8.04314 14.8123L2.84314 8.31233C2.69705 8.12972 2.69705 7.87024 2.84314 7.68763L8.04314 1.18763C8.21565 0.972003 8.53029 0.937042 8.74592 1.10955C8.96155 1.28205 8.99651 1.5967 8.82401 1.81233L3.87389 7.99998L8.82401 14.1876C8.99651 14.4033 8.96155 14.7179 8.74592 14.8904Z" fill="black"/>
</svg>
