<svg width="16" height="16" viewBox="0 0 16 16" fill="none" xmlns="http://www.w3.org/2000/svg">
<path fill-rule="evenodd" clip-rule="evenodd" d="M1 7.99976C1 7.72361 1.22386 7.49976 1.5 7.49976H14.5C14.7761 7.49976 15 7.72361 15 7.99976C15 8.2759 14.7761 8.49976 14.5 8.49976H1.5C1.22386 8.49976 1 8.2759 1 7.99976Z" fill="black"/>
<path fill-rule="evenodd" clip-rule="evenodd" d="M9.81344 3.31295C10.0087 3.11769 10.3253 3.11769 10.5205 3.31295L14.8539 7.64628C15.0491 7.84155 15.0491 8.15813 14.8539 8.35339L10.5205 12.6867C10.3253 12.882 10.0087 12.882 9.81344 12.6867C9.61818 12.4915 9.61818 12.1749 9.81344 11.9796L13.7932 7.99984L9.81344 4.02006C9.61818 3.8248 9.61818 3.50821 9.81344 3.31295Z" fill="black"/>
</svg>
