<svg width="16" height="16" viewBox="0 0 16 16" fill="none" xmlns="http://www.w3.org/2000/svg">
<path fill-rule="evenodd" clip-rule="evenodd" d="M2.92107 1.10958C3.1367 0.937079 3.45135 0.97204 3.62385 1.18767L8.82385 7.68767C8.96994 7.87028 8.96994 8.12976 8.82385 8.31237L3.62385 14.8124C3.45135 15.028 3.1367 15.063 2.92107 14.8905C2.70544 14.7179 2.67048 14.4033 2.84298 14.1877L7.7931 8.00002L2.84298 1.81237C2.67048 1.59673 2.70544 1.28209 2.92107 1.10958Z" fill="black"/>
<path fill-rule="evenodd" clip-rule="evenodd" d="M7.25408 1.10958C7.46971 0.937079 7.78435 0.97204 7.95686 1.18767L13.1569 7.68767C13.3029 7.87028 13.3029 8.12976 13.1569 8.31237L7.95686 14.8124C7.78435 15.028 7.46971 15.063 7.25408 14.8905C7.03845 14.7179 7.00349 14.4033 7.17599 14.1877L12.1261 8.00002L7.17599 1.81237C7.00349 1.59673 7.03845 1.28209 7.25408 1.10958Z" fill="black"/>
</svg>
