<svg width="16" height="16" viewBox="0 0 16 16" fill="none" xmlns="http://www.w3.org/2000/svg">
<path fill-rule="evenodd" clip-rule="evenodd" d="M2.8 2.8667C2.58783 2.8667 2.38434 2.95098 2.23431 3.10101C2.08429 3.25104 2 3.45453 2 3.6667V13.2C2 13.4122 2.08429 13.6157 2.23431 13.7657C2.38434 13.9157 2.58783 14 2.8 14H13.2C13.4122 14 13.6157 13.9157 13.7657 13.7657C13.9157 13.6157 14 13.4122 14 13.2V3.6667C14 3.45453 13.9157 3.25104 13.7657 3.10101C13.6157 2.95098 13.4122 2.8667 13.2 2.8667H12.7667C12.4905 2.8667 12.2667 2.64284 12.2667 2.3667C12.2667 2.09056 12.4905 1.8667 12.7667 1.8667H13.2C13.6774 1.8667 14.1352 2.05634 14.4728 2.39391C14.8104 2.73147 15 3.18931 15 3.6667V13.2C15 13.6774 14.8104 14.1353 14.4728 14.4728C14.1352 14.8104 13.6774 15 13.2 15H2.8C2.32261 15 1.86477 14.8104 1.52721 14.4728C1.18964 14.1353 1 13.6774 1 13.2V3.6667C1 3.18931 1.18964 2.73147 1.52721 2.39391C1.86477 2.05634 2.32261 1.8667 2.8 1.8667H3.23333C3.50948 1.8667 3.73333 2.09056 3.73333 2.3667C3.73333 2.64284 3.50948 2.8667 3.23333 2.8667H2.8Z" fill="black"/>
<path fill-rule="evenodd" clip-rule="evenodd" d="M5.83249 2C5.73524 2 5.64198 2.03863 5.57321 2.10739C5.50445 2.17616 5.46582 2.26942 5.46582 2.36667V8.21289L7.67376 6.32037C7.861 6.15988 8.1373 6.15988 8.32455 6.32037L10.5325 8.21289V2.36667C10.5325 2.26942 10.4939 2.17616 10.4251 2.10739C10.3563 2.03863 10.2631 2 10.1658 2H5.83249ZM4.86611 1.40029C5.12241 1.14399 5.47002 1 5.83249 1H10.1658C10.5283 1 10.8759 1.14399 11.1322 1.40029C11.3885 1.65659 11.5325 2.0042 11.5325 2.36667V9.3C11.5325 9.49527 11.4188 9.67266 11.2414 9.75426C11.064 9.83585 10.8553 9.80671 10.7071 9.67963L7.99915 7.35854L5.29122 9.67963C5.14296 9.80671 4.93429 9.83585 4.75689 9.75426C4.57949 9.67266 4.46582 9.49527 4.46582 9.3V2.36667C4.46582 2.0042 4.60981 1.65659 4.86611 1.40029Z" fill="black"/>
</svg>
