<svg width="16" height="16" viewBox="0 0 16 16" fill="none" xmlns="http://www.w3.org/2000/svg">
<path fill-rule="evenodd" clip-rule="evenodd" d="M4.09961 1C4.37575 1 4.59961 1.22386 4.59961 1.5V6.7C4.59961 6.97614 4.37575 7.2 4.09961 7.2C3.82347 7.2 3.59961 6.97614 3.59961 6.7V1.5C3.59961 1.22386 3.82347 1 4.09961 1Z" fill="black"/>
<path fill-rule="evenodd" clip-rule="evenodd" d="M11.9004 8.7998C12.1765 8.7998 12.4004 9.02366 12.4004 9.2998V14.4998C12.4004 14.7759 12.1765 14.9998 11.9004 14.9998C11.6242 14.9998 11.4004 14.7759 11.4004 14.4998V9.2998C11.4004 9.02366 11.6242 8.7998 11.9004 8.7998Z" fill="black"/>
<path fill-rule="evenodd" clip-rule="evenodd" d="M4.09961 11.3999C4.37575 11.3999 4.59961 11.6238 4.59961 11.8999V14.4999C4.59961 14.776 4.37575 14.9999 4.09961 14.9999C3.82347 14.9999 3.59961 14.776 3.59961 14.4999V11.8999C3.59961 11.6238 3.82347 11.3999 4.09961 11.3999Z" fill="black"/>
<path fill-rule="evenodd" clip-rule="evenodd" d="M11.9004 1C12.1765 1 12.4004 1.22386 12.4004 1.5V4.1C12.4004 4.37614 12.1765 4.6 11.9004 4.6C11.6242 4.6 11.4004 4.37614 11.4004 4.1V1.5C11.4004 1.22386 11.6242 1 11.9004 1Z" fill="black"/>
<path fill-rule="evenodd" clip-rule="evenodd" d="M1 9.2998C1 9.02366 1.22386 8.7998 1.5 8.7998H6.7C6.97614 8.7998 7.2 9.02366 7.2 9.2998V11.8998C7.2 12.1759 6.97614 12.3998 6.7 12.3998H1.5C1.22386 12.3998 1 12.1759 1 11.8998V9.2998ZM2 9.7998V11.3998H6.2V9.7998H2Z" fill="black"/>
<path fill-rule="evenodd" clip-rule="evenodd" d="M8.80078 4.1001C8.80078 3.82396 9.02464 3.6001 9.30078 3.6001H14.5008C14.7769 3.6001 15.0008 3.82396 15.0008 4.1001V6.7001C15.0008 6.97624 14.7769 7.2001 14.5008 7.2001H9.30078C9.02464 7.2001 8.80078 6.97624 8.80078 6.7001V4.1001ZM9.80078 4.6001V6.2001H14.0008V4.6001H9.80078Z" fill="black"/>
</svg>
