<svg width="16" height="16" viewBox="0 0 16 16" fill="none" xmlns="http://www.w3.org/2000/svg">
<path fill-rule="evenodd" clip-rule="evenodd" d="M1 8C1 7.72386 1.22386 7.5 1.5 7.5H14.5C14.7761 7.5 15 7.72386 15 8C15 8.27614 14.7761 8.5 14.5 8.5H1.5C1.22386 8.5 1 8.27614 1 8Z" fill="black"/>
<path fill-rule="evenodd" clip-rule="evenodd" d="M6.18689 3.31319C6.38215 3.50846 6.38215 3.82504 6.18689 4.0203L2.20711 8.00008L6.18689 11.9799C6.38215 12.1751 6.38215 12.4917 6.18689 12.687C5.99162 12.8822 5.67504 12.8822 5.47978 12.687L1.14645 8.35363C0.951184 8.15837 0.951184 7.84179 1.14645 7.64653L5.47978 3.31319C5.67504 3.11793 5.99162 3.11793 6.18689 3.31319Z" fill="black"/>
</svg>
