<svg width="16" height="16" viewBox="0 0 16 16" fill="none" xmlns="http://www.w3.org/2000/svg">
<path fill-rule="evenodd" clip-rule="evenodd" d="M8 14.5667C7.72386 14.5667 7.5 14.3428 7.5 14.0667L7.5 4.53332C7.5 4.25717 7.72386 4.03332 8 4.03332C8.27614 4.03332 8.5 4.25717 8.5 4.53332L8.5 14.0667C8.5 14.3428 8.27614 14.5667 8 14.5667Z" fill="black"/>
<path fill-rule="evenodd" clip-rule="evenodd" d="M8.35342 14.4202C8.15816 14.6155 7.84158 14.6155 7.64632 14.4202L4.61298 11.3869C4.41772 11.1916 4.41772 10.875 4.61298 10.6798C4.80825 10.4845 5.12483 10.4845 5.32009 10.6798L7.99987 13.3595L10.6796 10.6798C10.8749 10.4845 11.1915 10.4845 11.3868 10.6798C11.582 10.875 11.582 11.1916 11.3868 11.3869L8.35342 14.4202Z" fill="black"/>
<path fill-rule="evenodd" clip-rule="evenodd" d="M15 1.93335C15 2.20949 14.7761 2.43335 14.5 2.43335L1.5 2.43335C1.22386 2.43335 1 2.20949 1 1.93335C1 1.65721 1.22386 1.43335 1.5 1.43335L14.5 1.43335C14.7761 1.43335 15 1.65721 15 1.93335Z" fill="black"/>
<path fill-rule="evenodd" clip-rule="evenodd" d="M15 7.1333C15 7.40944 14.7761 7.6333 14.5 7.6333L11.0333 7.6333C10.7572 7.6333 10.5333 7.40944 10.5333 7.1333C10.5333 6.85716 10.7572 6.6333 11.0333 6.6333H14.5C14.7761 6.6333 15 6.85716 15 7.1333Z" fill="black"/>
<path fill-rule="evenodd" clip-rule="evenodd" d="M5.4668 7.1333C5.4668 7.40944 5.24294 7.6333 4.9668 7.6333L1.50013 7.6333C1.22399 7.6333 1.00013 7.40944 1.00013 7.1333C1.00013 6.85716 1.22399 6.6333 1.50013 6.6333H4.9668C5.24294 6.6333 5.4668 6.85716 5.4668 7.1333Z" fill="black"/>
</svg>
