<svg width="16" height="16" viewBox="0 0 16 16" fill="none" xmlns="http://www.w3.org/2000/svg">
<path d="M4.86843 6.63167L4.58647 7.4585H4L5.09963 4.2085H5.84965L7 7.4585H6.3628L6.06958 6.63167H4.86843ZM5.93424 6.1321C5.68609 5.38564 5.53383 4.94348 5.45492 4.66786C5.37595 4.97219 5.20677 5.49472 5.00377 6.1321H5.93424Z" fill="black"/>
<path d="M9.49476 4.2085V6.78075C9.49476 6.98888 9.49476 7.19165 9.50098 7.4051H8.88998C8.87754 7.34106 8.86506 7.20766 8.85884 7.14362C8.73413 7.34106 8.49099 7.4585 8.08578 7.4585C7.41867 7.4585 7.00098 6.99953 7.00098 6.30577C7.00098 5.61734 7.44986 5.11038 8.18551 5.11038C8.59077 5.11038 8.79646 5.23846 8.85884 5.35053V4.2085H9.49476ZM7.6556 6.28444C7.6556 6.75405 7.88626 7.01021 8.26033 7.01021C8.79646 7.01021 8.88376 6.64198 8.88376 6.26311C8.88376 5.84148 8.80273 5.54265 8.28525 5.54265C7.88004 5.54798 7.6556 5.82015 7.6556 6.28444Z" fill="black"/>
<path d="M10.3644 6.58638C10.4161 6.84544 10.5661 6.98862 10.8196 6.98862C11.0731 6.98862 11.1714 6.8591 11.1714 6.65455C11.1714 6.4432 11.0783 6.35458 10.7317 6.23865C10.054 6.02044 9.92986 5.74093 9.92986 5.34548C9.92986 4.92953 10.1575 4.5 10.7782 4.5C11.4042 4.5 11.6318 4.95684 11.6525 5.35228H11.1507C11.13 5.22275 11.0576 4.99775 10.7576 4.99775C10.5248 4.99775 10.4523 5.14093 10.4523 5.29092C10.4523 5.45456 10.5248 5.53638 10.8972 5.65225C11.6008 5.87046 11.7146 6.18408 11.7146 6.60684C11.7146 7.0909 11.4301 7.5 10.8093 7.5C10.1833 7.5 9.90914 7.09776 9.85742 6.58638H10.3644Z" fill="black"/>
<path fill-rule="evenodd" clip-rule="evenodd" d="M4.86774 8.71285C5.04714 8.55042 5.31711 8.53979 5.50873 8.68761L8.16939 10.7401L10.1733 8.73045C10.3599 8.54334 10.6599 8.53371 10.8581 8.70846L14.8302 12.2107C15.0374 12.3933 15.0572 12.7093 14.8746 12.9164C14.692 13.1235 14.376 13.1434 14.1689 12.9608L10.5494 9.76952L8.56839 11.7562L8.56664 11.758L5.52928 14.8345C5.33528 15.0311 5.0187 15.0331 4.82219 14.8391C4.62568 14.6451 4.62365 14.3285 4.81766 14.132L7.45982 11.4557L5.22897 9.73477L1.84536 12.7983C1.64065 12.9836 1.32446 12.9679 1.13912 12.7632C0.953779 12.5585 0.969479 12.2423 1.17418 12.057L4.86774 8.71285Z" fill="black"/>
<path fill-rule="evenodd" clip-rule="evenodd" d="M1.52145 1.52145C1.89829 1.14461 2.42293 1 3 1H13.5C13.9126 1 14.2834 1.20127 14.5411 1.45895C14.7987 1.71662 15 2.08738 15 2.5V13.5C15 13.9126 14.7987 14.2834 14.5411 14.5411C14.2834 14.7987 13.9126 15 13.5 15H2.5C2.08738 15 1.71662 14.7987 1.45895 14.5411C1.20127 14.2834 1 13.9126 1 13.5V3C1 2.42293 1.14461 1.89829 1.52145 1.52145ZM2.22855 2.22855C2.10539 2.35171 2 2.57707 2 3V13.5C2 13.5874 2.04873 13.7166 2.16605 13.8339C2.28338 13.9513 2.41262 14 2.5 14H13.5C13.5874 14 13.7166 13.9513 13.8339 13.8339C13.9513 13.7166 14 13.5874 14 13.5V2.5C14 2.41262 13.9513 2.28338 13.8339 2.16605C13.7166 2.04873 13.5874 2 13.5 2H3C2.57707 2 2.35171 2.10539 2.22855 2.22855Z" fill="black"/>
</svg>
