<svg width="16" height="16" viewBox="0 0 16 16" fill="none" xmlns="http://www.w3.org/2000/svg">
<path fill-rule="evenodd" clip-rule="evenodd" d="M2 1.5C2 1.22386 2.22386 1 2.5 1H8.26923C9.16689 1 10.0278 1.35659 10.6625 1.99133C11.2973 2.62607 11.6538 3.48696 11.6538 4.38462C11.6538 5.28227 11.2973 6.14316 10.6625 6.7779C10.0278 7.41264 9.16689 7.76923 8.26923 7.76923H4.42308C4.14693 7.76923 3.92308 7.54537 3.92308 7.26923C3.92308 6.99309 4.14693 6.76923 4.42308 6.76923H8.26923C8.90167 6.76923 9.50821 6.518 9.95541 6.07079C10.4026 5.62359 10.6538 5.01706 10.6538 4.38462C10.6538 3.75218 10.4026 3.14564 9.95541 2.69844C9.50821 2.25124 8.90167 2 8.26923 2H2.5C2.22386 2 2 1.77614 2 1.5Z" fill="black"/>
<path fill-rule="evenodd" clip-rule="evenodd" d="M3.92308 7.26929C3.92308 6.99314 4.14693 6.76929 4.42308 6.76929H9.71154C10.7367 6.76929 11.7199 7.17653 12.4448 7.90143C13.1697 8.62633 13.5769 9.60951 13.5769 10.6347C13.5769 11.6598 13.1697 12.643 12.4448 13.3679C11.7199 14.0928 10.7367 14.5001 9.71154 14.5001H2.5C2.22386 14.5001 2 14.2762 2 14.0001C2 13.7239 2.22386 13.5001 2.5 13.5001H9.71154C10.4715 13.5001 11.2003 13.1982 11.7377 12.6608C12.275 12.1234 12.5769 11.3946 12.5769 10.6347C12.5769 9.87472 12.275 9.1459 11.7377 8.60854C11.2003 8.07118 10.4715 7.76929 9.71154 7.76929H4.42308C4.14693 7.76929 3.92308 7.54543 3.92308 7.26929Z" fill="black"/>
<path fill-rule="evenodd" clip-rule="evenodd" d="M4.42285 1C4.69899 1 4.92285 1.22386 4.92285 1.5V14C4.92285 14.2761 4.69899 14.5 4.42285 14.5C4.14671 14.5 3.92285 14.2761 3.92285 14V1.5C3.92285 1.22386 4.14671 1 4.42285 1Z" fill="black"/>
</svg>
