<svg width="16" height="16" viewBox="0 0 16 16" fill="none" xmlns="http://www.w3.org/2000/svg">
<path fill-rule="evenodd" clip-rule="evenodd" d="M13.5 1C13.2239 1 13 1.22386 13 1.5L13 14.5C13 14.7761 13.2239 15 13.5 15L14.5 15C14.7761 15 15 14.7761 15 14.5L15 1.5C15 1.22386 14.7761 1 14.5 1L13.5 1Z" fill="#6D6D6D"/>
<mask id="path-2-inside-1_1526_2356" fill="white">
<path d="M11 1H2C1.44772 1 1 1.44772 1 2V14C1 14.5523 1.44772 15 2 15H11V1Z"/>
</mask>
<path d="M11 0.5H2C1.17157 0.5 0.5 1.17157 0.5 2H1.5C1.5 1.72386 1.72386 1.5 2 1.5H11V0.5ZM0.5 14C0.5 14.8284 1.17157 15.5 2 15.5H11V14.5H2C1.72386 14.5 1.5 14.2761 1.5 14H0.5ZM11 15V1V15ZM2 0.5C1.17157 0.5 0.5 1.17157 0.5 2V14C0.5 14.8284 1.17157 15.5 2 15.5V14.5C1.72386 14.5 1.5 14.2761 1.5 14V2C1.5 1.72386 1.72386 1.5 2 1.5V0.5Z" fill="#6D6D6D" mask="url(#path-2-inside-1_1526_2356)"/>
</svg>
