<svg width="16" height="16" viewBox="0 0 16 16" fill="none" xmlns="http://www.w3.org/2000/svg">
<path fill-rule="evenodd" clip-rule="evenodd" d="M1 13.5C1 13.2239 1.22386 13 1.5 13L14.5 13C14.7761 13 15 13.2239 15 13.5L15 14.5C15 14.7761 14.7761 15 14.5 15L1.5 15C1.22386 15 1 14.7761 1 14.5L1 13.5Z" fill="#6D6D6D"/>
<mask id="path-2-inside-1_1526_2357" fill="white">
<path d="M1 11L1 2C1 1.44772 1.44771 1 2 1L14 0.999999C14.5523 0.999999 15 1.44771 15 2L15 11L1 11Z"/>
</mask>
<path d="M0.5 11L0.5 2C0.5 1.17157 1.17157 0.5 2 0.5L2 1.5C1.72386 1.5 1.5 1.72386 1.5 2L1.5 11L0.5 11ZM14 0.499999C14.8284 0.499999 15.5 1.17157 15.5 2L15.5 11L14.5 11L14.5 2C14.5 1.72386 14.2761 1.5 14 1.5L14 0.499999ZM15 11L1 11L15 11ZM0.5 2C0.5 1.17157 1.17157 0.5 2 0.5L14 0.499999C14.8284 0.499999 15.5 1.17157 15.5 2L14.5 2C14.5 1.72386 14.2761 1.5 14 1.5L2 1.5C1.72386 1.5 1.5 1.72386 1.5 2L0.5 2Z" fill="#6D6D6D" mask="url(#path-2-inside-1_1526_2357)"/>
</svg>
