<svg width="16" height="16" viewBox="0 0 16 16" fill="none" xmlns="http://www.w3.org/2000/svg">
<path fill-rule="evenodd" clip-rule="evenodd" d="M2.5 1C2.77614 1 3 1.22386 3 1.5L3 14.5C3 14.7761 2.77614 15 2.5 15L1.5 15C1.22386 15 1 14.7761 1 14.5L0.999998 1.5C0.999998 1.22386 1.22386 1 1.5 1L2.5 1Z" fill="#6D6D6D"/>
<mask id="path-2-inside-1_1526_2358" fill="white">
<path d="M5 1H14C14.5523 1 15 1.44772 15 2V14C15 14.5523 14.5523 15 14 15H5V1Z"/>
</mask>
<path d="M5 0.5H14C14.8284 0.5 15.5 1.17157 15.5 2H14.5C14.5 1.72386 14.2761 1.5 14 1.5H5V0.5ZM15.5 14C15.5 14.8284 14.8284 15.5 14 15.5H5V14.5H14C14.2761 14.5 14.5 14.2761 14.5 14H15.5ZM5 15V1V15ZM14 0.5C14.8284 0.5 15.5 1.17157 15.5 2V14C15.5 14.8284 14.8284 15.5 14 15.5V14.5C14.2761 14.5 14.5 14.2761 14.5 14V2C14.5 1.72386 14.2761 1.5 14 1.5V0.5Z" fill="#6D6D6D" mask="url(#path-2-inside-1_1526_2358)"/>
</svg>
