<svg width="16" height="16" viewBox="0 0 16 16" fill="none" xmlns="http://www.w3.org/2000/svg">
<path fill-rule="evenodd" clip-rule="evenodd" d="M14.5 1C14.7761 1 15 1.22386 15 1.5V6.7C15 6.97614 14.7761 7.2 14.5 7.2L1.5 7.2C1.22386 7.2 1 6.97614 1 6.7V1.5C1 1.22386 1.22386 1 1.5 1L14.5 1ZM14 2L2 2V6.2L14 6.2V2Z" fill="black"/>
<path fill-rule="evenodd" clip-rule="evenodd" d="M15 14.5C15 14.7761 14.7761 15 14.5 15H1.5C1.22386 15 1 14.7761 1 14.5C1 14.2239 1.22386 14 1.5 14H14.5C14.7761 14 15 14.2239 15 14.5Z" fill="black"/>
<path d="M14.5 11.9V9.30005H1.5V11.9H14.5Z" fill="black"/>
<path fill-rule="evenodd" clip-rule="evenodd" d="M14.5 8.80005C14.7761 8.80005 15 9.02391 15 9.30005V11.9C15 12.1762 14.7761 12.4 14.5 12.4H1.5C1.22386 12.4 1 12.1762 1 11.9V9.30005C1 9.02391 1.22386 8.80005 1.5 8.80005H14.5ZM14 9.80005H2V11.4H14V9.80005Z" fill="black"/>
</svg>
