<svg width="16" height="16" viewBox="0 0 16 16" fill="none" xmlns="http://www.w3.org/2000/svg">
<path fill-rule="evenodd" clip-rule="evenodd" d="M15 2.5C15 2.77614 14.7761 3 14.5 3L1.5 3C1.22386 3 1 2.77614 1 2.5L1 1.5C1 1.22386 1.22386 1 1.5 1L14.5 0.999999C14.7761 0.999999 15 1.22386 15 1.5L15 2.5Z" fill="#6D6D6D"/>
<mask id="path-2-inside-1_1526_2355" fill="white">
<path d="M15 5L15 14C15 14.5523 14.5523 15 14 15L2 15C1.44772 15 1 14.5523 1 14L1 5L15 5Z"/>
</mask>
<path d="M15.5 5L15.5 14C15.5 14.8284 14.8284 15.5 14 15.5L14 14.5C14.2761 14.5 14.5 14.2761 14.5 14L14.5 5L15.5 5ZM2 15.5C1.17157 15.5 0.5 14.8284 0.5 14L0.5 5L1.5 5L1.5 14C1.5 14.2761 1.72386 14.5 2 14.5L2 15.5ZM1 5L15 5L1 5ZM15.5 14C15.5 14.8284 14.8284 15.5 14 15.5L2 15.5C1.17157 15.5 0.5 14.8284 0.5 14L1.5 14C1.5 14.2761 1.72386 14.5 2 14.5L14 14.5C14.2761 14.5 14.5 14.2761 14.5 14L15.5 14Z" fill="#6D6D6D" mask="url(#path-2-inside-1_1526_2355)"/>
</svg>
