<svg width="16" height="16" viewBox="0 0 16 16" fill="none" xmlns="http://www.w3.org/2000/svg">
<path fill-rule="evenodd" clip-rule="evenodd" d="M5.33301 5.83325C5.33301 5.55711 5.55687 5.33325 5.83301 5.33325H14.4997C14.7758 5.33325 14.9997 5.55711 14.9997 5.83325V14.4999C14.9997 14.7761 14.7758 14.9999 14.4997 14.9999H5.83301C5.55687 14.9999 5.33301 14.7761 5.33301 14.4999V5.83325ZM6.33301 6.33325V13.9999H13.9997V6.33325H6.33301Z" fill="black"/>
<path fill-rule="evenodd" clip-rule="evenodd" d="M6.7 2C4.10426 2 2 4.10426 2 6.7C2 9.29574 4.10426 11.4 6.7 11.4C9.29574 11.4 11.4 9.29574 11.4 6.7C11.4 4.10426 9.29574 2 6.7 2ZM1 6.7C1 3.55198 3.55198 1 6.7 1C9.84802 1 12.4 3.55198 12.4 6.7C12.4 9.84802 9.84802 12.4 6.7 12.4C3.55198 12.4 1 9.84802 1 6.7Z" fill="black"/>
</svg>
