<svg width="16" height="16" viewBox="0 0 16 16" fill="none" xmlns="http://www.w3.org/2000/svg">
<path fill-rule="evenodd" clip-rule="evenodd" d="M1.14646 1.14646C1.28038 1.01254 1.47846 0.965783 1.65813 1.02567L9.45813 3.62567C9.67321 3.69737 9.81313 3.9048 9.79905 4.13108C9.78496 4.35736 9.62039 4.54584 9.39807 4.5903L5.3916 5.3916L4.5903 9.39807C4.54584 9.62039 4.35736 9.78496 4.13108 9.79905C3.9048 9.81313 3.69737 9.67321 3.62567 9.45813L1.02567 1.65813C0.965783 1.47846 1.01254 1.28038 1.14646 1.14646ZM2.29058 2.29058L3.97897 7.35573L4.47639 4.86862C4.51598 4.67069 4.67069 4.51598 4.86862 4.47639L7.35573 3.97897L2.29058 2.29058Z" fill="black"/>
<path fill-rule="evenodd" clip-rule="evenodd" d="M6.19922 6.7002C6.19922 6.42405 6.42308 6.2002 6.69922 6.2002H14.4992C14.7754 6.2002 14.9992 6.42405 14.9992 6.7002V14.5002C14.9992 14.7763 14.7754 15.0002 14.4992 15.0002H6.69922C6.42308 15.0002 6.19922 14.7763 6.19922 14.5002V6.7002ZM7.19922 7.2002V14.0002H13.9992V7.2002H7.19922Z" fill="black"/>
<path fill-rule="evenodd" clip-rule="evenodd" d="M6.19922 9.2998C6.19922 9.02366 6.42308 8.7998 6.69922 8.7998H14.4992C14.7754 8.7998 14.9992 9.02366 14.9992 9.2998C14.9992 9.57595 14.7754 9.7998 14.4992 9.7998H6.69922C6.42308 9.7998 6.19922 9.57595 6.19922 9.2998Z" fill="black"/>
<path fill-rule="evenodd" clip-rule="evenodd" d="M6.19922 11.8999C6.19922 11.6238 6.42308 11.3999 6.69922 11.3999H14.4992C14.7754 11.3999 14.9992 11.6238 14.9992 11.8999C14.9992 12.176 14.7754 12.3999 14.4992 12.3999H6.69922C6.42308 12.3999 6.19922 12.176 6.19922 11.8999Z" fill="black"/>
</svg>
