<svg width="16" height="16" viewBox="0 0 16 16" fill="none" xmlns="http://www.w3.org/2000/svg">
<path fill-rule="evenodd" clip-rule="evenodd" d="M5.48044 6.34665C5.60463 6.22246 5.78488 6.17254 5.95526 6.21513L12.8886 7.94847C13.1043 8.00238 13.2584 8.19221 13.267 8.41435C13.2755 8.63649 13.1363 8.83758 12.9254 8.90788L11.0929 9.51871L13.9875 12.4133C14.1828 12.6086 14.1828 12.9252 13.9875 13.1204L12.2542 14.8538C12.059 15.049 11.7424 15.049 11.5471 14.8538L8.6525 11.9592L8.04167 13.7917C7.97137 14.0025 7.77028 14.1417 7.54814 14.1332C7.326 14.1246 7.13617 13.9705 7.08226 13.7548L5.34892 6.82147C5.30633 6.65109 5.35625 6.47084 5.48044 6.34665ZM6.52118 7.38739L7.63596 11.8465L7.95965 10.8754C8.01445 10.711 8.15047 10.5867 8.31912 10.5469C8.48777 10.5071 8.66501 10.5575 8.78755 10.68L11.9007 13.7931L12.9269 12.7669L9.81377 9.65376C9.69124 9.53123 9.64089 9.35398 9.6807 9.18533C9.72052 9.01668 9.84482 8.88066 10.0092 8.82586L10.9803 8.50217L6.52118 7.38739Z" fill="black"/>
<path fill-rule="evenodd" clip-rule="evenodd" d="M2.36667 2C2.26942 2 2.17616 2.03863 2.10739 2.10739C2.03863 2.17616 2 2.26942 2 2.36667V8.43333C2 8.53058 2.03863 8.62384 2.10739 8.69261C2.17616 8.76137 2.26942 8.8 2.36667 8.8H4.1C4.37614 8.8 4.6 9.02386 4.6 9.3C4.6 9.57614 4.37614 9.8 4.1 9.8H2.36667C2.0042 9.8 1.65659 9.65601 1.40029 9.39971C1.14399 9.14341 1 8.7958 1 8.43333V2.36667C1 2.0042 1.14399 1.65659 1.40029 1.40029C1.65659 1.14399 2.0042 1 2.36667 1H13.6333C13.9958 1 14.3434 1.14399 14.5997 1.40029C14.856 1.65659 15 2.0042 15 2.36667V6.7C15 6.97614 14.7761 7.2 14.5 7.2C14.2239 7.2 14 6.97614 14 6.7V2.36667C14 2.26942 13.9614 2.17616 13.8926 2.10739C13.8238 2.03863 13.7306 2 13.6333 2H2.36667Z" fill="black"/>
</svg>
