<svg width="16" height="16" viewBox="0 0 16 16" fill="none" xmlns="http://www.w3.org/2000/svg">
<path fill-rule="evenodd" clip-rule="evenodd" d="M1 1.5C1 1.22386 1.22386 1 1.5 1H14.5C14.7761 1 15 1.22386 15 1.5V9.3C15 9.57614 14.7761 9.8 14.5 9.8H1.5C1.22386 9.8 1 9.57614 1 9.3V1.5ZM2 2V8.8H14V2H2Z" fill="black"/>
<path fill-rule="evenodd" clip-rule="evenodd" d="M8.0002 12.3999C7.55837 12.3999 7.2002 12.7581 7.2002 13.1999C7.2002 13.6417 7.55837 13.9999 8.0002 13.9999C8.44202 13.9999 8.8002 13.6417 8.8002 13.1999C8.8002 12.7581 8.44202 12.3999 8.0002 12.3999ZM6.2002 13.1999C6.2002 12.2058 7.00608 11.3999 8.0002 11.3999C8.99431 11.3999 9.8002 12.2058 9.8002 13.1999C9.8002 14.194 8.99431 14.9999 8.0002 14.9999C7.00608 14.9999 6.2002 14.194 6.2002 13.1999Z" fill="black"/>
<path d="M3.66647 14.0666C4.14512 14.0666 4.53314 13.6786 4.53314 13.1999C4.53314 12.7213 4.14512 12.3333 3.66647 12.3333C3.18782 12.3333 2.7998 12.7213 2.7998 13.1999C2.7998 13.6786 3.18782 14.0666 3.66647 14.0666Z" fill="black"/>
<path d="M12.3335 14.0666C12.8121 14.0666 13.2001 13.6786 13.2001 13.1999C13.2001 12.7213 12.8121 12.3333 12.3335 12.3333C11.8548 12.3333 11.4668 12.7213 11.4668 13.1999C11.4668 13.6786 11.8548 14.0666 12.3335 14.0666Z" fill="black"/>
</svg>
