<svg width="16" height="16" viewBox="0 0 16 16" fill="none" xmlns="http://www.w3.org/2000/svg">
<path fill-rule="evenodd" clip-rule="evenodd" d="M1 1.5C1 1.22386 1.22386 1 1.5 1H4.1C4.37614 1 4.6 1.22386 4.6 1.5V8.8H12.3895L14.0192 3.09597C14.0951 2.83046 14.3718 2.67671 14.6374 2.75257C14.9029 2.82843 15.0566 3.10518 14.9808 3.37069L13.2474 9.43736C13.1861 9.65201 12.9899 9.8 12.7667 9.8H4.1C3.82386 9.8 3.6 9.57614 3.6 9.3V2H1.5C1.22386 2 1 1.77614 1 1.5Z" fill="black"/>
<path fill-rule="evenodd" clip-rule="evenodd" d="M4.5334 12.3999C4.09157 12.3999 3.7334 12.7581 3.7334 13.1999C3.7334 13.6417 4.09157 13.9999 4.5334 13.9999C4.97523 13.9999 5.3334 13.6417 5.3334 13.1999C5.3334 12.7581 4.97523 12.3999 4.5334 12.3999ZM2.7334 13.1999C2.7334 12.2058 3.53929 11.3999 4.5334 11.3999C5.52751 11.3999 6.3334 12.2058 6.3334 13.1999C6.3334 14.194 5.52751 14.9999 4.5334 14.9999C3.53929 14.9999 2.7334 14.194 2.7334 13.1999Z" fill="black"/>
<path fill-rule="evenodd" clip-rule="evenodd" d="M12.3332 12.3999C11.8914 12.3999 11.5332 12.7581 11.5332 13.1999C11.5332 13.6417 11.8914 13.9999 12.3332 13.9999C12.775 13.9999 13.1332 13.6417 13.1332 13.1999C13.1332 12.7581 12.775 12.3999 12.3332 12.3999ZM10.5332 13.1999C10.5332 12.2058 11.3391 11.3999 12.3332 11.3999C13.3273 11.3999 14.1332 12.2058 14.1332 13.1999C14.1332 14.194 13.3273 14.9999 12.3332 14.9999C11.3391 14.9999 10.5332 14.194 10.5332 13.1999Z" fill="black"/>
<path fill-rule="evenodd" clip-rule="evenodd" d="M9.2998 1C9.57595 1 9.7998 1.22386 9.7998 1.5V6.7C9.7998 6.97614 9.57595 7.2 9.2998 7.2C9.02366 7.2 8.7998 6.97614 8.7998 6.7V1.5C8.7998 1.22386 9.02366 1 9.2998 1Z" fill="black"/>
<path fill-rule="evenodd" clip-rule="evenodd" d="M6.2002 4.1001C6.2002 3.82396 6.42405 3.6001 6.7002 3.6001H11.9002C12.1763 3.6001 12.4002 3.82396 12.4002 4.1001C12.4002 4.37624 12.1763 4.6001 11.9002 4.6001H6.7002C6.42405 4.6001 6.2002 4.37624 6.2002 4.1001Z" fill="black"/>
</svg>
