<svg width="16" height="16" viewBox="0 0 16 16" fill="none" xmlns="http://www.w3.org/2000/svg">
<path fill-rule="evenodd" clip-rule="evenodd" d="M8.00065 2C7.07993 2 6.33398 2.74594 6.33398 3.66667V5.83333C6.33398 6.10948 6.11013 6.33333 5.83398 6.33333C5.55784 6.33333 5.33398 6.10948 5.33398 5.83333V3.66667C5.33398 2.19366 6.52764 1 8.00065 1C9.47366 1 10.6673 2.19366 10.6673 3.66667V5.83333C10.6673 6.10948 10.4435 6.33333 10.1673 6.33333C9.89118 6.33333 9.66732 6.10948 9.66732 5.83333V3.66667C9.66732 2.74594 8.92138 2 8.00065 2Z" fill="black"/>
<path fill-rule="evenodd" clip-rule="evenodd" d="M1.86719 5.83325C1.86719 5.55711 2.09105 5.33325 2.36719 5.33325H13.6339C13.91 5.33325 14.1339 5.55711 14.1339 5.83325V14.4999C14.1339 14.7761 13.91 14.9999 13.6339 14.9999H2.36719C2.09105 14.9999 1.86719 14.7761 1.86719 14.4999V5.83325ZM2.86719 6.33325V13.9999H13.1339V6.33325H2.86719Z" fill="black"/>
</svg>
