<svg width="16" height="16" viewBox="0 0 16 16" fill="none" xmlns="http://www.w3.org/2000/svg">
<path fill-rule="evenodd" clip-rule="evenodd" d="M7.32759 2.67236C4.38511 2.67236 2 5.05747 2 7.99995C2 10.9424 4.38511 13.3275 7.32759 13.3275C10.2701 13.3275 12.6552 10.9424 12.6552 7.99995C12.6552 7.72056 12.6338 7.44607 12.5921 7.17978C12.5495 6.90696 12.736 6.65119 13.0089 6.60851C13.2817 6.56583 13.5374 6.7524 13.5801 7.02522C13.6299 7.34349 13.6552 7.66968 13.6552 7.99995C13.6552 11.4947 10.8223 14.3275 7.32759 14.3275C3.83282 14.3275 1 11.4947 1 7.99995C1 4.50519 3.83282 1.67236 7.32759 1.67236C8.37993 1.67236 9.37349 1.92932 10.2483 2.38524C10.4932 2.51286 10.5883 2.81484 10.4606 3.05972C10.333 3.3046 10.031 3.39966 9.78616 3.27204C9.05078 2.88879 8.21538 2.67236 7.32759 2.67236Z" fill="black"/>
<path fill-rule="evenodd" clip-rule="evenodd" d="M14.8533 1.81881C15.0486 2.01407 15.0486 2.33065 14.8533 2.52592L7.6809 9.69833C7.48564 9.89359 7.16906 9.89359 6.9738 9.69833L4.28414 7.00868C4.08888 6.81341 4.08888 6.49683 4.28414 6.30157C4.4794 6.10631 4.79599 6.10631 4.99125 6.30157L7.32735 8.63767L14.1462 1.81881C14.3415 1.62355 14.6581 1.62355 14.8533 1.81881Z" fill="black"/>
</svg>
