<svg width="16" height="16" viewBox="0 0 16 16" fill="none" xmlns="http://www.w3.org/2000/svg">
<path fill-rule="evenodd" clip-rule="evenodd" d="M14.8536 1.14645C15.0488 1.34171 15.0488 1.65829 14.8536 1.85355L1.85355 14.8536C1.65829 15.0488 1.34171 15.0488 1.14645 14.8536C0.951184 14.6583 0.951184 14.3417 1.14645 14.1464L14.1464 1.14645C14.3417 0.951184 14.6583 0.951184 14.8536 1.14645Z" fill="black"/>
<path fill-rule="evenodd" clip-rule="evenodd" d="M1.14645 1.14645C1.34171 0.951184 1.65829 0.951184 1.85355 1.14645L14.8536 14.1464C15.0488 14.3417 15.0488 14.6583 14.8536 14.8536C14.6583 15.0488 14.3417 15.0488 14.1464 14.8536L1.14645 1.85355C0.951184 1.65829 0.951184 1.34171 1.14645 1.14645Z" fill="black"/>
</svg>
