<svg width="16" height="16" viewBox="0 0 16 16" fill="none" xmlns="http://www.w3.org/2000/svg">
<path fill-rule="evenodd" clip-rule="evenodd" d="M1.5 3.6001C1.77614 3.6001 2 3.82396 2 4.1001V11.9001C2 12.1762 1.77614 12.4001 1.5 12.4001C1.22386 12.4001 1 12.1762 1 11.9001V4.1001C1 3.82396 1.22386 3.6001 1.5 3.6001Z" fill="black"/>
<path fill-rule="evenodd" clip-rule="evenodd" d="M14.5 3.6001C14.7761 3.6001 15 3.82396 15 4.1001V11.9001C15 12.1762 14.7761 12.4001 14.5 12.4001C14.2239 12.4001 14 12.1762 14 11.9001V4.1001C14 3.82396 14.2239 3.6001 14.5 3.6001Z" fill="black"/>
<path fill-rule="evenodd" clip-rule="evenodd" d="M2.73242 2.3667C2.73242 2.09056 2.95628 1.8667 3.23242 1.8667H12.7658C13.0419 1.8667 13.2658 2.09056 13.2658 2.3667V13.6334C13.2658 13.9095 13.0419 14.1334 12.7658 14.1334H3.23242C2.95628 14.1334 2.73242 13.9095 2.73242 13.6334V2.3667ZM3.73242 2.8667V13.1334H12.2658V2.8667H3.73242Z" fill="black"/>
</svg>
