<svg width="16" height="16" viewBox="0 0 16 16" fill="none" xmlns="http://www.w3.org/2000/svg">
<path fill-rule="evenodd" clip-rule="evenodd" d="M5.33756 1.00117C5.79107 0.9858 6.32132 1.11883 6.65552 1.58236C7.1118 2.2127 6.90503 2.94818 6.78884 3.36147C6.7875 3.36625 6.78617 3.37098 6.78485 3.37567C6.77712 3.40317 6.76965 3.42964 6.76243 3.45517C6.70405 3.66189 6.66304 3.80709 6.64789 3.93791C6.63567 4.0434 6.64836 4.08063 6.65499 4.09285C6.80711 4.2855 6.99139 4.35479 7.31747 4.32274C7.64742 4.29031 8.03026 4.16252 8.52415 3.99767C8.58994 3.97571 8.65769 3.9531 8.72755 3.92996C9.85883 3.55532 11.3702 3.10993 13.0056 3.93773L13.0133 3.94159L13.0132 3.94166C14.2432 4.5916 14.7526 5.76986 14.9239 6.86267C15.0935 7.94481 14.9455 9.00357 14.8118 9.57255C14.8103 9.57885 14.8087 9.58512 14.807 9.59135C14.3823 11.1542 13.4923 12.5271 12.2714 13.5028C11.0515 14.4777 9.56747 15.003 8.04319 14.9995C6.55355 15.0172 5.09782 14.5249 3.88973 13.5951C2.68068 12.6645 1.78346 11.3447 1.33 9.82975C0.876534 8.3148 0.890751 6.68463 1.37056 5.17894C1.85037 3.67325 2.77045 2.37148 3.99551 1.46505L4.00271 1.45973L4.00275 1.45979C4.38871 1.18477 4.87503 1.01685 5.33756 1.00117ZM4.56168 2.34426C3.51438 3.12045 2.72779 4.2342 2.31736 5.52218C1.90643 6.81173 1.89426 8.20788 2.28263 9.50535C2.67099 10.8028 3.43941 11.9332 4.47489 12.7302C5.51038 13.5271 6.75828 13.9487 8.03513 13.933L8.04225 13.9329L8.04225 13.9329C9.35067 13.9366 10.6247 13.486 11.6718 12.6492C12.7165 11.8144 13.4787 10.6404 13.844 9.30389C13.9556 8.82389 14.0767 7.92606 13.9375 7.03854C13.7994 6.15721 13.419 5.34819 12.573 4.89939C11.3155 4.26472 10.1434 4.57793 9.02407 4.9486C8.95816 4.97043 8.89158 4.99278 8.82453 5.01529C8.35082 5.17432 7.85383 5.34116 7.40922 5.38486C6.85983 5.43885 6.29959 5.315 5.87221 4.7569C5.86824 4.75172 5.86436 4.74646 5.86058 4.74112C5.64026 4.43023 5.62348 4.08294 5.65544 3.80709C5.68193 3.57848 5.75066 3.33739 5.80527 3.14582C5.81281 3.11939 5.82008 3.0939 5.82693 3.06951C5.96511 2.57763 5.97068 2.38143 5.86384 2.23401L5.86291 2.23272C5.80129 2.14714 5.65154 2.05768 5.36932 2.06724C5.09726 2.07646 4.79366 2.18006 4.56168 2.34426Z" fill="black"/>
<path fill-rule="evenodd" clip-rule="evenodd" d="M10.1696 7.14767C9.48914 7.14767 8.9375 7.73605 8.9375 8.46186C8.9375 9.18767 9.48914 9.77605 10.1696 9.77605C10.8501 9.77605 11.4017 9.18767 11.4017 8.46186C11.4017 7.73605 10.8501 7.14767 10.1696 7.14767ZM7.9375 8.46186C7.9375 7.14698 8.93685 6.08105 10.1696 6.08105C11.4024 6.08105 12.4017 7.14698 12.4017 8.46186C12.4017 9.77674 11.4024 10.8427 10.1696 10.8427C8.93685 10.8427 7.9375 9.77674 7.9375 8.46186Z" fill="black"/>
<path d="M4.54086 8.92367C5.01917 8.92367 5.40692 8.51009 5.40692 7.99992C5.40692 7.48975 5.01917 7.07617 4.54086 7.07617C4.06255 7.07617 3.6748 7.48975 3.6748 7.99992C3.6748 8.51009 4.06255 8.92367 4.54086 8.92367Z" fill="black"/>
<path d="M6.27231 11.6949C6.75062 11.6949 7.13837 11.2813 7.13837 10.7712C7.13837 10.261 6.75062 9.84741 6.27231 9.84741C5.794 9.84741 5.40625 10.261 5.40625 10.7712C5.40625 11.2813 5.794 11.6949 6.27231 11.6949Z" fill="black"/>
</svg>
