<svg width="16" height="16" viewBox="0 0 16 16" fill="none" xmlns="http://www.w3.org/2000/svg">
<path fill-rule="evenodd" clip-rule="evenodd" d="M1 1.5C1 1.22386 1.22386 1 1.5 1H12.55C12.8261 1 13.05 1.22386 13.05 1.5V2.85714H14.5C14.7761 2.85714 15 3.081 15 3.35714V14.5C15 14.7761 14.7761 15 14.5 15H6.05C5.77386 15 5.55 14.7761 5.55 14.5V5.71429H1.5C1.22386 5.71429 1 5.49043 1 5.21429V1.5ZM6.55 5.38711V14H14V3.85714H6.55008L6.55032 5.36904C6.55032 5.37509 6.55021 5.38112 6.55 5.38711ZM5.55021 4.71429L5.55 3.35722C5.54998 3.2246 5.60265 3.0974 5.69642 3.00362C5.79019 2.90983 5.91738 2.85714 6.05 2.85714H12.05V2H2V4.71429H5.55021Z" fill="black"/>
<path fill-rule="evenodd" clip-rule="evenodd" d="M8.32422 6V5H12.2242V6H8.32422Z" fill="black"/>
<path fill-rule="evenodd" clip-rule="evenodd" d="M8.32422 9.42847V8.42847H12.2242V9.42847H8.32422Z" fill="black"/>
<path fill-rule="evenodd" clip-rule="evenodd" d="M8.32422 13V12H12.2242V13H8.32422Z" fill="black"/>
</svg>
