<svg width="16" height="16" viewBox="0 0 16 16" fill="none" xmlns="http://www.w3.org/2000/svg">
<path fill-rule="evenodd" clip-rule="evenodd" d="M8.29585 6.31934C7.96291 6.31934 7.64687 6.44735 7.41643 6.6701L7.41571 6.6708C7.33681 6.74676 7.23148 6.92859 7.12859 7.23865C7.03124 7.53203 6.95536 7.87921 6.89782 8.22074C6.85486 8.47565 6.82325 8.72054 6.80053 8.9273C7.01942 8.90512 7.28159 8.87382 7.55496 8.83078C7.90957 8.77495 8.2712 8.70116 8.57756 8.60616C8.90172 8.50565 9.09419 8.40188 9.17455 8.32388L9.17527 8.32318C9.40513 8.10098 9.531 7.80331 9.531 7.49664C9.531 7.18997 9.40513 6.8923 9.17527 6.6701C8.94484 6.44735 8.6288 6.31934 8.29585 6.31934ZM6.25097 9.47336C5.75172 9.44599 5.75172 9.44592 5.75173 9.44584L5.75188 9.44316L5.75225 9.43673L5.75368 9.41345C5.75495 9.39344 5.75686 9.3646 5.75953 9.32801C5.76485 9.25486 5.77319 9.15052 5.78536 9.02359C5.80964 8.77043 5.84945 8.4241 5.91172 8.05459C5.9736 7.68732 6.05968 7.28476 6.17948 6.9237C6.2937 6.5795 6.46063 6.2024 6.72175 5.95078C7.14209 5.54463 7.70858 5.31934 8.29585 5.31934C8.88328 5.31934 9.44992 5.54475 9.8703 5.95111C10.2912 6.35803 10.531 6.91361 10.531 7.49664C10.531 8.07954 10.2914 8.635 9.87058 9.04189C9.61208 9.29255 9.22638 9.45195 8.87373 9.5613C8.50309 9.67622 8.08913 9.75899 7.71049 9.81861C7.32968 9.87857 6.97261 9.91693 6.7115 9.94033C6.58062 9.95205 6.47306 9.96008 6.39771 9.96521C6.36003 9.96778 6.33035 9.96962 6.3098 9.97084L6.28593 9.9722L6.27938 9.97256L6.27749 9.97266C6.27741 9.97266 6.27655 9.97271 6.25097 9.47336ZM6.25097 9.47336L6.27749 9.97266C6.13587 9.97991 5.99688 9.92674 5.89678 9.82628C5.79669 9.72583 5.74396 9.58744 5.75173 9.44584L6.25097 9.47336Z" fill="black"/>
<path fill-rule="evenodd" clip-rule="evenodd" d="M4.04326 1.33512C4.26714 1.11871 4.56727 1 4.87681 1H10.3757C10.6518 1 10.8757 1.22386 10.8757 1.5C10.8757 1.77614 10.6518 2 10.3757 2H4.87681C4.82175 2 4.77222 2.0213 4.73829 2.05411C4.70493 2.08635 4.68945 2.12641 4.68945 2.16444V10.8022C4.68945 10.8403 4.70493 10.8803 4.73829 10.9126C4.77222 10.9454 4.82175 10.9667 4.87681 10.9667H13.8124C13.8675 10.9667 13.917 10.9454 13.951 10.9126C13.9843 10.8803 13.9998 10.8403 13.9998 10.8022V5.48667C13.9998 5.21052 14.2237 4.98667 14.4998 4.98667C14.7759 4.98667 14.9998 5.21052 14.9998 5.48667V10.8022C14.9998 11.1166 14.8704 11.4146 14.646 11.6315C14.4221 11.848 14.122 11.9667 13.8124 11.9667H4.87681C4.56727 11.9667 4.26714 11.848 4.04326 11.6315C3.81881 11.4146 3.68945 11.1166 3.68945 10.8022V2.16444C3.68945 1.85004 3.81881 1.55208 4.04326 1.33512Z" fill="black"/>
<path fill-rule="evenodd" clip-rule="evenodd" d="M1.35381 4.36856C1.57768 4.15215 1.87782 4.03345 2.18736 4.03345H4.18966C4.4658 4.03345 4.68966 4.2573 4.68966 4.53345C4.68966 4.80959 4.4658 5.03345 4.18966 5.03345H2.18736C2.1323 5.03345 2.08277 5.05475 2.04883 5.08755C2.01547 5.1198 2 5.15985 2 5.19789V13.8357C2 13.8737 2.01547 13.9138 2.04883 13.946C2.08277 13.9788 2.1323 14.0001 2.18736 14.0001H11.123C11.178 14.0001 11.2276 13.9788 11.2615 13.946C11.2949 13.9138 11.3103 13.8737 11.3103 13.8357V11.4668C11.3103 11.1906 11.5342 10.9668 11.8103 10.9668C12.0865 10.9668 12.3103 11.1906 12.3103 11.4668V13.8357C12.3103 14.1501 12.181 14.448 11.9565 14.665C11.7327 14.8814 11.4325 15.0001 11.123 15.0001H2.18736C1.87781 15.0001 1.57768 14.8814 1.35381 14.665C1.12936 14.448 1 14.1501 1 13.8357V5.19789C1 4.88349 1.12936 4.58553 1.35381 4.36856Z" fill="black"/>
<path fill-rule="evenodd" clip-rule="evenodd" d="M12.3821 1.42809C12.6742 1.15805 13.0607 1.01192 13.4582 1.01621C13.8558 1.02049 14.239 1.17495 14.5251 1.45146C14.8117 1.72849 14.9779 2.10655 14.9825 2.50574C14.9871 2.90496 14.8296 3.28674 14.5493 3.57013L14.5414 3.57803L11.5081 6.5108C11.3095 6.70274 10.993 6.69741 10.8011 6.49889C10.6091 6.30037 10.6144 5.98383 10.813 5.79189L13.8416 2.86352C13.9353 2.7671 13.984 2.64277 13.9825 2.51729C13.9811 2.39034 13.9284 2.26547 13.83 2.17044C13.7312 2.07489 13.5942 2.01773 13.4474 2.01615C13.3023 2.01458 13.1653 2.06757 13.0643 2.15927L10.035 5.08697C9.83641 5.27887 9.51987 5.27347 9.32797 5.07491C9.13606 4.87634 9.14147 4.5598 9.34003 4.3679L12.3821 1.42809Z" fill="black"/>
</svg>
