<svg width="16" height="16" viewBox="0 0 16 16" fill="none" xmlns="http://www.w3.org/2000/svg">
<path fill-rule="evenodd" clip-rule="evenodd" d="M1.5 3.76929C1.5 3.49314 1.72386 3.26929 2 3.26929H11.2308C11.5069 3.26929 11.7308 3.49314 11.7308 3.76929V14.8462C11.7308 15.1224 11.5069 15.3462 11.2308 15.3462H2C1.72386 15.3462 1.5 15.1224 1.5 14.8462V3.76929ZM2.5 4.26929V14.3462H10.7308V4.26929H2.5Z" fill="black"/>
<path fill-rule="evenodd" clip-rule="evenodd" d="M3.3457 1C3.3457 0.723858 3.56956 0.5 3.8457 0.5H13.9995C14.2757 0.5 14.4995 0.723858 14.4995 1V13C14.4995 13.2761 14.2757 13.5 13.9995 13.5C13.7234 13.5 13.4995 13.2761 13.4995 13V1.5H3.8457C3.56956 1.5 3.3457 1.27614 3.3457 1Z" fill="black"/>
<path fill-rule="evenodd" clip-rule="evenodd" d="M4.26953 6.53857C4.26953 6.26243 4.49339 6.03857 4.76953 6.03857H8.46184C8.73798 6.03857 8.96184 6.26243 8.96184 6.53857C8.96184 6.81472 8.73798 7.03857 8.46184 7.03857H4.76953C4.49339 7.03857 4.26953 6.81472 4.26953 6.53857Z" fill="black"/>
<path fill-rule="evenodd" clip-rule="evenodd" d="M4.26953 9.30762C4.26953 9.03147 4.49339 8.80762 4.76953 8.80762H8.46184C8.73798 8.80762 8.96184 9.03147 8.96184 9.30762C8.96184 9.58376 8.73798 9.80762 8.46184 9.80762H4.76953C4.49339 9.80762 4.26953 9.58376 4.26953 9.30762Z" fill="black"/>
<path fill-rule="evenodd" clip-rule="evenodd" d="M4.26953 12.0769C4.26953 11.8008 4.49339 11.5769 4.76953 11.5769H8.46184C8.73798 11.5769 8.96184 11.8008 8.96184 12.0769C8.96184 12.353 8.73798 12.5769 8.46184 12.5769H4.76953C4.49339 12.5769 4.26953 12.353 4.26953 12.0769Z" fill="black"/>
</svg>
