<svg width="16" height="16" viewBox="0 0 16 16" fill="none" xmlns="http://www.w3.org/2000/svg">
<path fill-rule="evenodd" clip-rule="evenodd" d="M4.89941 1.5C4.89941 1.22386 5.12327 1 5.39941 1H10.5994C10.8756 1 11.0994 1.22386 11.0994 1.5C11.0994 1.77614 10.8756 2 10.5994 2H5.39941C5.12327 2 4.89941 1.77614 4.89941 1.5Z" fill="black"/>
<path fill-rule="evenodd" clip-rule="evenodd" d="M8 1C8.27614 1 8.5 1.22386 8.5 1.5V2.36667C8.5 2.64281 8.27614 2.86667 8 2.86667C7.72386 2.86667 7.5 2.64281 7.5 2.36667V1.5C7.5 1.22386 7.72386 1 8 1Z" fill="black"/>
<path fill-rule="evenodd" clip-rule="evenodd" d="M8 6.19995C8.27614 6.19995 8.5 6.42381 8.5 6.69995V9.29995C8.5 9.57609 8.27614 9.79995 8 9.79995C7.72386 9.79995 7.5 9.57609 7.5 9.29995V6.69995C7.5 6.42381 7.72386 6.19995 8 6.19995Z" fill="black"/>
<path fill-rule="evenodd" clip-rule="evenodd" d="M7.9998 4.6001C5.40407 4.6001 3.2998 6.70436 3.2998 9.3001C3.2998 11.8958 5.40407 14.0001 7.9998 14.0001C10.5955 14.0001 12.6998 11.8958 12.6998 9.3001C12.6998 6.70436 10.5955 4.6001 7.9998 4.6001ZM2.2998 9.3001C2.2998 6.15207 4.85178 3.6001 7.9998 3.6001C11.1478 3.6001 13.6998 6.15207 13.6998 9.3001C13.6998 12.4481 11.1478 15.0001 7.9998 15.0001C4.85178 15.0001 2.2998 12.4481 2.2998 9.3001Z" fill="black"/>
</svg>
