<svg width="16" height="16" viewBox="0 0 16 16" fill="none" xmlns="http://www.w3.org/2000/svg">
<path fill-rule="evenodd" clip-rule="evenodd" d="M4.9668 1C5.24294 1 5.4668 1.22386 5.4668 1.5V4.1C5.4668 4.37614 5.24294 4.6 4.9668 4.6C4.69065 4.6 4.4668 4.37614 4.4668 4.1V1.5C4.4668 1.22386 4.69065 1 4.9668 1Z" fill="black"/>
<path fill-rule="evenodd" clip-rule="evenodd" d="M11.0332 12.2666C11.3093 12.2666 11.5332 12.4905 11.5332 12.7666V14.4999C11.5332 14.7761 11.3093 14.9999 11.0332 14.9999C10.7571 14.9999 10.5332 14.7761 10.5332 14.4999V12.7666C10.5332 12.4905 10.7571 12.2666 11.0332 12.2666Z" fill="black"/>
<path fill-rule="evenodd" clip-rule="evenodd" d="M1 4.1001C1 3.82396 1.22386 3.6001 1.5 3.6001H11.0333C11.3095 3.6001 11.5333 3.82396 11.5333 4.1001V10.1668C11.5333 10.4429 11.3095 10.6668 11.0333 10.6668C10.7572 10.6668 10.5333 10.4429 10.5333 10.1668V4.6001H1.5C1.22386 4.6001 1 4.37624 1 4.1001Z" fill="black"/>
<path fill-rule="evenodd" clip-rule="evenodd" d="M4.9668 6.2002C5.24294 6.2002 5.4668 6.42405 5.4668 6.7002V9.66686H14.5001C14.7763 9.66686 15.0001 9.89072 15.0001 10.1669C15.0001 10.443 14.7763 10.6669 14.5001 10.6669H4.9668C4.69065 10.6669 4.4668 10.443 4.4668 10.1669V6.7002C4.4668 6.42405 4.69065 6.2002 4.9668 6.2002Z" fill="black"/>
</svg>
