<svg width="16" height="16" viewBox="0 0 16 16" fill="none" xmlns="http://www.w3.org/2000/svg">
<path fill-rule="evenodd" clip-rule="evenodd" d="M2.68164 2.77271C2.95778 2.77271 3.18164 2.99656 3.18164 3.27271V12.7273C3.18164 12.7646 3.20169 12.8721 3.40865 13.0369C3.61257 13.1994 3.93927 13.3666 4.38979 13.5156C5.28573 13.812 6.55934 14 7.99982 14C9.4403 14 10.7139 13.812 11.6098 13.5156C12.0604 13.3666 12.3871 13.1994 12.591 13.0369C12.798 12.8721 12.818 12.7646 12.818 12.7273V3.27271C12.818 2.99656 13.0419 2.77271 13.318 2.77271C13.5941 2.77271 13.818 2.99656 13.818 3.27271V12.7273C13.818 13.1922 13.5426 13.5574 13.214 13.8191C12.8825 14.0833 12.4336 14.2964 11.9239 14.465C10.8994 14.8039 9.51389 15 7.99982 15C6.48576 15 5.10028 14.8039 4.07576 14.465C3.56606 14.2964 3.11719 14.0833 2.7856 13.8191C2.45705 13.5574 2.18164 13.1922 2.18164 12.7273V3.27271C2.18164 2.99656 2.4055 2.77271 2.68164 2.77271Z" fill="black"/>
<path fill-rule="evenodd" clip-rule="evenodd" d="M3.40906 2.97541C3.19693 3.14258 3.18164 3.24683 3.18164 3.27273C3.18164 3.29862 3.19693 3.40287 3.40906 3.57005C3.61555 3.73278 3.94533 3.9012 4.39741 4.05189C5.29635 4.35154 6.57003 4.54545 7.99982 4.54545C9.42961 4.54545 10.7033 4.35154 11.6022 4.05189C12.0543 3.9012 12.3841 3.73278 12.5906 3.57005C12.8027 3.40287 12.818 3.29862 12.818 3.27273C12.818 3.24683 12.8027 3.14258 12.5906 2.97541C12.3841 2.81267 12.0543 2.64426 11.6022 2.49356C10.7033 2.19391 9.42961 2 7.99982 2C6.57003 2 5.29635 2.19391 4.39741 2.49356C3.94533 2.64426 3.61555 2.81267 3.40906 2.97541ZM4.08119 1.54488C5.10705 1.20292 6.49246 1 7.99982 1C9.50718 1 10.8926 1.20292 11.9185 1.54488C12.4288 1.71498 12.8778 1.92856 13.2096 2.19C13.5357 2.44699 13.818 2.8091 13.818 3.27273C13.818 3.73636 13.5357 4.09846 13.2096 4.35546C12.8778 4.6169 12.4288 4.83047 11.9185 5.00058C10.8926 5.34253 9.50718 5.54545 7.99982 5.54545C6.49246 5.54545 5.10705 5.34253 4.08119 5.00058C3.57087 4.83047 3.12182 4.6169 2.79008 4.35546C2.46398 4.09846 2.18164 3.73636 2.18164 3.27273C2.18164 2.8091 2.46398 2.44699 2.79008 2.19C3.12182 1.92856 3.57087 1.71498 4.08119 1.54488Z" fill="black"/>
<path fill-rule="evenodd" clip-rule="evenodd" d="M2.68164 7.5C2.95778 7.5 3.18164 7.72386 3.18164 8C3.18164 8.03734 3.20169 8.14483 3.40865 8.30969C3.61257 8.47213 3.93927 8.63934 4.38979 8.78836C5.28573 9.08471 6.55934 9.27273 7.99982 9.27273C9.4403 9.27273 10.7139 9.08471 11.6098 8.78836C12.0604 8.63934 12.3871 8.47213 12.591 8.30969C12.798 8.14483 12.818 8.03734 12.818 8C12.818 7.72386 13.0419 7.5 13.318 7.5C13.5941 7.5 13.818 7.72386 13.818 8C13.818 8.46493 13.5426 8.83017 13.214 9.09187C12.8825 9.356 12.4336 9.56918 11.9239 9.73777C10.8994 10.0767 9.51389 10.2727 7.99982 10.2727C6.48576 10.2727 5.10028 10.0767 4.07576 9.73777C3.56606 9.56918 3.11719 9.356 2.7856 9.09187C2.45705 8.83017 2.18164 8.46493 2.18164 8C2.18164 7.72386 2.4055 7.5 2.68164 7.5Z" fill="black"/>
</svg>
