<svg width="16" height="16" viewBox="0 0 16 16" fill="none" xmlns="http://www.w3.org/2000/svg">
<path fill-rule="evenodd" clip-rule="evenodd" d="M2.36667 2C2.16441 2 2 2.16441 2 2.36667V13.6333C2 13.8356 2.16441 14 2.36667 14H13.6333C13.8356 14 14 13.8356 14 13.6333V2.36667C14 2.16441 13.8356 2 13.6333 2H2.36667ZM1 2.36667C1 1.61212 1.61212 1 2.36667 1H13.6333C14.3879 1 15 1.61212 15 2.36667V13.6333C15 14.3879 14.3879 15 13.6333 15H2.36667C1.61212 15 1 14.3879 1 13.6333V2.36667Z" fill="black"/>
<path fill-rule="evenodd" clip-rule="evenodd" d="M1 9.2998C1 9.02366 1.22386 8.7998 1.5 8.7998H5.83333C6.10948 8.7998 6.33333 9.02366 6.33333 9.2998V11.3998H9.66667V9.2998C9.66667 9.02366 9.89052 8.7998 10.1667 8.7998H14.5C14.7761 8.7998 15 9.02366 15 9.2998C15 9.57595 14.7761 9.7998 14.5 9.7998H10.6667V11.8998C10.6667 12.1759 10.4428 12.3998 10.1667 12.3998H5.83333C5.55719 12.3998 5.33333 12.1759 5.33333 11.8998V9.7998H1.5C1.22386 9.7998 1 9.57595 1 9.2998Z" fill="black"/>
<path fill-rule="evenodd" clip-rule="evenodd" d="M4.46582 4.09985C4.46582 3.82371 4.68968 3.59985 4.96582 3.59985H11.0325C11.3086 3.59985 11.5325 3.82371 11.5325 4.09985C11.5325 4.376 11.3086 4.59985 11.0325 4.59985H4.96582C4.68968 4.59985 4.46582 4.376 4.46582 4.09985Z" fill="black"/>
<path fill-rule="evenodd" clip-rule="evenodd" d="M4.46582 6.7002C4.46582 6.42405 4.68968 6.2002 4.96582 6.2002H11.0325C11.3086 6.2002 11.5325 6.42405 11.5325 6.7002C11.5325 6.97634 11.3086 7.2002 11.0325 7.2002H4.96582C4.68968 7.2002 4.46582 6.97634 4.46582 6.7002Z" fill="black"/>
</svg>
