<svg width="16" height="16" viewBox="0 0 16 16" fill="none" xmlns="http://www.w3.org/2000/svg">
<path fill-rule="evenodd" clip-rule="evenodd" d="M3.27246 5.72729C3.5486 5.72729 3.77246 5.95115 3.77246 6.22729V13.3182C3.77246 13.499 3.8443 13.6725 3.97216 13.8003C4.10003 13.9282 4.27345 14 4.45428 14H11.5452C11.726 14 11.8994 13.9282 12.0273 13.8003C12.1552 13.6725 12.227 13.499 12.227 13.3182V6.22729C12.227 5.95115 12.4509 5.72729 12.727 5.72729C13.0031 5.72729 13.227 5.95115 13.227 6.22729V13.3182C13.227 13.7642 13.0498 14.192 12.7344 14.5074C12.419 14.8228 11.9912 15 11.5452 15H4.45428C4.00823 15 3.58046 14.8228 3.26505 14.5074C2.94965 14.192 2.77246 13.7642 2.77246 13.3182V6.22729C2.77246 5.95115 2.99632 5.72729 3.27246 5.72729Z" fill="black"/>
<path fill-rule="evenodd" clip-rule="evenodd" d="M1 3.86353C1 3.58738 1.22386 3.36353 1.5 3.36353H14.5C14.7761 3.36353 15 3.58738 15 3.86353C15 4.13967 14.7761 4.36353 14.5 4.36353H1.5C1.22386 4.36353 1 4.13967 1 3.86353Z" fill="black"/>
<path fill-rule="evenodd" clip-rule="evenodd" d="M8 7.5C8.27614 7.5 8.5 7.72386 8.5 8V11.5455C8.5 11.8216 8.27614 12.0455 8 12.0455C7.72386 12.0455 7.5 11.8216 7.5 11.5455V8C7.5 7.72386 7.72386 7.5 8 7.5Z" fill="black"/>
<path fill-rule="evenodd" clip-rule="evenodd" d="M5.63672 7.5C5.91286 7.5 6.13672 7.72386 6.13672 8V11.5455C6.13672 11.8216 5.91286 12.0455 5.63672 12.0455C5.36058 12.0455 5.13672 11.8216 5.13672 11.5455V8C5.13672 7.72386 5.36058 7.5 5.63672 7.5Z" fill="black"/>
<path fill-rule="evenodd" clip-rule="evenodd" d="M10.3643 7.5C10.6404 7.5 10.8643 7.72386 10.8643 8V11.5455C10.8643 11.8216 10.6404 12.0455 10.3643 12.0455C10.0881 12.0455 9.86426 11.8216 9.86426 11.5455V8C9.86426 7.72386 10.0881 7.5 10.3643 7.5Z" fill="black"/>
<path fill-rule="evenodd" clip-rule="evenodd" d="M5.13672 1.5C5.13672 1.22386 5.36058 1 5.63672 1H10.364C10.6401 1 10.864 1.22386 10.864 1.5V3.86364C10.864 4.13978 10.6401 4.36364 10.364 4.36364C10.0878 4.36364 9.86399 4.13978 9.86399 3.86364V2H6.13672V3.86364C6.13672 4.13978 5.91286 4.36364 5.63672 4.36364C5.36058 4.36364 5.13672 4.13978 5.13672 3.86364V1.5Z" fill="black"/>
</svg>
