<svg width="16" height="16" viewBox="0 0 16 16" fill="none" xmlns="http://www.w3.org/2000/svg">
<path fill-rule="evenodd" clip-rule="evenodd" d="M11.9797 1.14645C12.1749 0.951184 12.4915 0.951184 12.6868 1.14645L14.8534 3.31311C15.0487 3.50838 15.0487 3.82496 14.8534 4.02022L7.9201 10.9536C7.86002 11.0136 7.78561 11.0574 7.70391 11.0808L4.67058 11.9474C4.49598 11.9973 4.30806 11.9486 4.17966 11.8202C4.05126 11.6918 4.00257 11.5039 4.05245 11.3293L4.91912 8.29597C4.94246 8.21427 4.98624 8.13986 5.04633 8.07978L11.9797 1.14645ZM5.84505 8.69527L5.26123 10.7387L7.30461 10.1548L13.7928 3.66667L12.3332 2.20711L5.84505 8.69527Z" fill="#1C00C2"/>
<path fill-rule="evenodd" clip-rule="evenodd" d="M10.2461 2.87985C10.4413 2.68458 10.7579 2.68458 10.9532 2.87985L13.1198 5.04651C13.3151 5.24177 13.3151 5.55836 13.1198 5.75362C12.9246 5.94888 12.608 5.94888 12.4127 5.75362L10.2461 3.58695C10.0508 3.39169 10.0508 3.07511 10.2461 2.87985Z" fill="#1C00C2"/>
<path fill-rule="evenodd" clip-rule="evenodd" d="M2.36667 3.7334C2.16441 3.7334 2 3.89781 2 4.10007V13.6334C2 13.8357 2.16441 14.0001 2.36667 14.0001H11.9C12.1023 14.0001 12.2667 13.8357 12.2667 13.6334V9.30007C12.2667 9.02392 12.4905 8.80007 12.7667 8.80007C13.0428 8.80007 13.2667 9.02392 13.2667 9.30007V13.6334C13.2667 14.3879 12.6545 15.0001 11.9 15.0001H2.36667C1.61212 15.0001 1 14.3879 1 13.6334V4.10007C1 3.34552 1.61212 2.7334 2.36667 2.7334H6.7C6.97614 2.7334 7.2 2.95726 7.2 3.2334C7.2 3.50954 6.97614 3.7334 6.7 3.7334H2.36667Z" fill="#1C00C2"/>
</svg>
