<svg width="16" height="16" viewBox="0 0 16 16" fill="none" xmlns="http://www.w3.org/2000/svg">
<path fill-rule="evenodd" clip-rule="evenodd" d="M8 12.1429C8.27614 12.1429 8.5 12.3667 8.5 12.6429V14.5C8.5 14.7762 8.27614 15 8 15C7.72386 15 7.5 14.7762 7.5 14.5V12.6429C7.5 12.3667 7.72386 12.1429 8 12.1429Z" fill="black"/>
<path fill-rule="evenodd" clip-rule="evenodd" d="M3.32129 14.5C3.32129 14.2239 3.54515 14 3.82129 14H12.1784C12.4546 14 12.6784 14.2239 12.6784 14.5C12.6784 14.7761 12.4546 15 12.1784 15H3.82129C3.54515 15 3.32129 14.7761 3.32129 14.5Z" fill="black"/>
<path fill-rule="evenodd" clip-rule="evenodd" d="M2.36667 2C2.10937 2 2 2.17436 2 2.27381V10.0119C2 10.1114 2.10937 10.2857 2.36667 10.2857H13.6333C13.8906 10.2857 14 10.1114 14 10.0119V2.27381C14 2.17436 13.8906 2 13.6333 2H2.36667ZM1 2.27381C1 1.51853 1.66667 1 2.36667 1H13.6333C14.3333 1 15 1.51853 15 2.27381V10.0119C15 10.7672 14.3333 11.2857 13.6333 11.2857H2.36667C1.66667 11.2857 1 10.7672 1 10.0119V2.27381Z" fill="black"/>
</svg>
