<svg width="16" height="16" viewBox="0 0 16 16" fill="none" xmlns="http://www.w3.org/2000/svg">
<path fill-rule="evenodd" clip-rule="evenodd" d="M1 1.5C1 1.22386 1.22386 1 1.5 1H14.5C14.7761 1 15 1.22386 15 1.5C15 1.77614 14.7761 2 14.5 2H1.5C1.22386 2 1 1.77614 1 1.5Z" fill="black"/>
<path fill-rule="evenodd" clip-rule="evenodd" d="M1 14.5C1 14.2239 1.22386 14 1.5 14H14.5C14.7761 14 15 14.2239 15 14.5C15 14.7761 14.7761 15 14.5 15H1.5C1.22386 15 1 14.7761 1 14.5Z" fill="black"/>
<path fill-rule="evenodd" clip-rule="evenodd" d="M3.60059 6.69995C3.60059 6.42381 3.82444 6.19995 4.10059 6.19995H11.9006C12.1767 6.19995 12.4006 6.42381 12.4006 6.69995V9.29995C12.4006 9.57609 12.1767 9.79995 11.9006 9.79995H4.10059C3.82444 9.79995 3.60059 9.57609 3.60059 9.29995V6.69995ZM4.60059 7.19995V8.79995H11.4006V7.19995H4.60059Z" fill="black"/>
</svg>
