<svg width="16" height="16" viewBox="0 0 16 16" fill="none" xmlns="http://www.w3.org/2000/svg">
<path fill-rule="evenodd" clip-rule="evenodd" d="M1.5 1C1.77614 1 2 1.22386 2 1.5V14.5C2 14.7761 1.77614 15 1.5 15C1.22386 15 1 14.7761 1 14.5V1.5C1 1.22386 1.22386 1 1.5 1Z" fill="black"/>
<path fill-rule="evenodd" clip-rule="evenodd" d="M14.5 1C14.7761 1 15 1.22386 15 1.5V14.5C15 14.7761 14.7761 15 14.5 15C14.2239 15 14 14.7761 14 14.5V1.5C14 1.22386 14.2239 1 14.5 1Z" fill="black"/>
<path fill-rule="evenodd" clip-rule="evenodd" d="M6.19922 4.1001C6.19922 3.82396 6.42308 3.6001 6.69922 3.6001H9.29922C9.57536 3.6001 9.79922 3.82396 9.79922 4.1001V11.9001C9.79922 12.1762 9.57536 12.4001 9.29922 12.4001H6.69922C6.42308 12.4001 6.19922 12.1762 6.19922 11.9001V4.1001ZM7.19922 4.6001V11.4001H8.79922V4.6001H7.19922Z" fill="black"/>
</svg>
