<svg width="16" height="16" viewBox="0 0 16 16" fill="none" xmlns="http://www.w3.org/2000/svg">
<path d="M13.8761 15.9508H2.123C1.74102 15.9508 1.43164 15.6414 1.43164 15.2594V0.74092C1.43164 0.358944 1.74102 0.0495605 2.123 0.0495605H10.4193L14.5675 4.19771V15.2594C14.5675 15.6414 14.2581 15.9508 13.8761 15.9508Z" fill="#E6E6E6"/>
<path d="M10.4199 0.0495605V3.50636C10.4199 3.88832 10.7293 4.19771 11.1113 4.19771H14.5681L10.4199 0.0495605Z" fill="#B3B3B3"/>
<path d="M15.4074 7.70361H0.592593C0.265313 7.70361 0 7.96893 0 8.29621V13.3332C0 13.6605 0.265313 13.9258 0.592593 13.9258H15.4074C15.7347 13.9258 16 13.6605 16 13.3332V8.29621C16 7.96893 15.7347 7.70361 15.4074 7.70361Z" fill="#CBCBCB"/>
</svg>
