<svg width="16" height="16" viewBox="0 0 16 16" fill="none" xmlns="http://www.w3.org/2000/svg">
<path d="M6.78767 7.99996C6.78767 8.6694 7.33036 9.21208 7.99979 9.21208C8.66923 9.21208 9.21191 8.6694 9.21191 7.99996C9.21191 7.33053 8.66923 6.78784 7.99979 6.78784C7.33036 6.78784 6.78767 7.33053 6.78767 7.99996Z" fill="black"/>
<path d="M6.78767 2.54537C6.78767 3.21481 7.33036 3.75749 7.99979 3.75749C8.66923 3.75749 9.21191 3.21481 9.21191 2.54537C9.21191 1.87594 8.66923 1.33325 7.99979 1.33325C7.33036 1.33325 6.78767 1.87594 6.78767 2.54537Z" fill="black"/>
<path d="M6.78767 13.4543C6.78767 14.1237 7.33036 14.6664 7.99979 14.6664C8.66923 14.6664 9.21191 14.1237 9.21191 13.4543C9.21191 12.7849 8.66923 12.2422 7.99979 12.2422C7.33036 12.2422 6.78767 12.7849 6.78767 13.4543Z" fill="black"/>
</svg>
