<svg width="16" height="16" viewBox="0 0 16 16" fill="none" xmlns="http://www.w3.org/2000/svg">
<path d="M7.99923 9.21208C8.66867 9.21208 9.21135 8.6694 9.21135 7.99996C9.21135 7.33053 8.66867 6.78784 7.99923 6.78784C7.32979 6.78784 6.78711 7.33053 6.78711 7.99996C6.78711 8.6694 7.32979 9.21208 7.99923 9.21208Z" fill="black"/>
<path d="M2.54513 9.21208C3.21456 9.21208 3.75725 8.6694 3.75725 7.99996C3.75725 7.33053 3.21456 6.78784 2.54513 6.78784C1.87569 6.78784 1.33301 7.33053 1.33301 7.99996C1.33301 8.6694 1.87569 9.21208 2.54513 9.21208Z" fill="black"/>
<path d="M13.4543 9.21208C14.1237 9.21208 14.6664 8.6694 14.6664 7.99996C14.6664 7.33053 14.1237 6.78784 13.4543 6.78784C12.7849 6.78784 12.2422 7.33053 12.2422 7.99996C12.2422 8.6694 12.7849 9.21208 13.4543 9.21208Z" fill="black"/>
</svg>
