<svg width="16" height="16" viewBox="0 0 16 16" fill="none" xmlns="http://www.w3.org/2000/svg">
<path fill-rule="evenodd" clip-rule="evenodd" d="M8 1C8.27614 1 8.5 1.22386 8.5 1.5V11.0333C8.5 11.3095 8.27614 11.5333 8 11.5333C7.72386 11.5333 7.5 11.3095 7.5 11.0333V1.5C7.5 1.22386 7.72386 1 8 1Z" fill="white"/>
<path fill-rule="evenodd" clip-rule="evenodd" d="M3.74606 6.77975C3.94132 6.58449 4.2579 6.58449 4.45316 6.77975L7.99961 10.3262L11.5461 6.77975C11.7413 6.58449 12.0579 6.58449 12.2532 6.77975C12.4484 6.97501 12.4484 7.29159 12.2532 7.48685L8.35316 11.3869C8.1579 11.5821 7.84132 11.5821 7.64606 11.3869L3.74606 7.48685C3.55079 7.29159 3.55079 6.97501 3.74606 6.77975Z" fill="white"/>
<path fill-rule="evenodd" clip-rule="evenodd" d="M1 14.5C1 14.2239 1.22386 14 1.5 14H14.5C14.7761 14 15 14.2239 15 14.5C15 14.7761 14.7761 15 14.5 15H1.5C1.22386 15 1 14.7761 1 14.5Z" fill="white"/>
</svg>
