<svg width="16" height="16" viewBox="0 0 16 16" fill="none" xmlns="http://www.w3.org/2000/svg">
<path fill-rule="evenodd" clip-rule="evenodd" d="M8.00195 15C7.72581 15 7.50195 14.7761 7.50195 14.5L7.50195 1.5C7.50195 1.22386 7.72581 1 8.00195 1C8.2781 1 8.50195 1.22386 8.50195 1.5V14.5C8.50195 14.7761 8.2781 15 8.00195 15Z" fill="black"/>
<path fill-rule="evenodd" clip-rule="evenodd" d="M3.31442 9.81311C3.50968 9.61785 3.82626 9.61785 4.02152 9.81311L8.0013 13.7929L11.9811 9.81311C12.1763 9.61785 12.4929 9.61785 12.6882 9.81311C12.8835 10.0084 12.8835 10.325 12.6882 10.5202L8.35486 14.8536C8.15959 15.0488 7.84301 15.0488 7.64775 14.8536L3.31442 10.5202C3.11915 10.325 3.11915 10.0084 3.31442 9.81311Z" fill="black"/>
</svg>
