<svg width="16" height="16" viewBox="0 0 16 16" fill="none" xmlns="http://www.w3.org/2000/svg">
<path fill-rule="evenodd" clip-rule="evenodd" d="M13.5559 4.66675C13.8506 4.66675 14.1332 4.78381 14.3416 4.99219C14.5499 5.20056 14.667 5.48317 14.667 5.77786C14.667 6.07254 14.5499 6.35516 14.3416 6.56353C14.1332 6.77191 13.8506 6.88897 13.5559 6.88897C13.2612 6.88897 12.9786 6.77191 12.7702 6.56353C12.5618 6.35516 12.4448 6.07254 12.4448 5.77786C12.4448 5.48317 12.5618 5.20056 12.7702 4.99219C12.9786 4.78381 13.2612 4.66675 13.5559 4.66675ZM13.5559 9.11119C13.8506 9.11119 14.1332 9.22826 14.3416 9.43663C14.5499 9.645 14.667 9.92762 14.667 10.2223C14.667 10.517 14.5499 10.7996 14.3416 11.008C14.1332 11.2164 13.8506 11.3334 13.5559 11.3334C13.2612 11.3334 12.9786 11.2164 12.7702 11.008C12.5618 10.7996 12.4448 10.517 12.4448 10.2223C12.4448 9.92762 12.5618 9.645 12.7702 9.43663C12.9786 9.22826 13.2612 9.11119 13.5559 9.11119ZM8.00033 4.66675C8.29501 4.66675 8.57763 4.78381 8.786 4.99218C8.99437 5.20056 9.11144 5.48317 9.11144 5.77786C9.11144 6.07254 8.99437 6.35516 8.786 6.56353C8.57763 6.77191 8.29501 6.88897 8.00033 6.88897C7.70564 6.88897 7.42303 6.77191 7.21465 6.56353C7.00628 6.35516 6.88921 6.07254 6.88921 5.77786C6.88921 5.48317 7.00628 5.20056 7.21465 4.99218C7.42303 4.78381 7.70564 4.66675 8.00033 4.66675ZM8.00033 9.11119C8.29501 9.11119 8.57763 9.22826 8.786 9.43663C8.99437 9.645 9.11144 9.92762 9.11144 10.2223C9.11144 10.517 8.99437 10.7996 8.786 11.008C8.57763 11.2164 8.29501 11.3334 8.00033 11.3334C7.70564 11.3334 7.42303 11.2164 7.21465 11.008C7.00628 10.7996 6.88921 10.517 6.88921 10.2223C6.88921 9.92762 7.00628 9.645 7.21465 9.43663C7.42303 9.22826 7.70564 9.11119 8.00033 9.11119ZM2.44477 4.66675C2.73946 4.66675 3.02207 4.78381 3.23045 4.99218C3.43882 5.20056 3.55588 5.48317 3.55588 5.77786C3.55588 6.07254 3.43882 6.35516 3.23045 6.56353C3.02207 6.77191 2.73946 6.88897 2.44477 6.88897C2.15008 6.88897 1.86747 6.77191 1.6591 6.56353C1.45072 6.35516 1.33366 6.07254 1.33366 5.77786C1.33366 5.48317 1.45072 5.20056 1.6591 4.99218C1.86747 4.78381 2.15008 4.66675 2.44477 4.66675ZM2.44477 9.11119C2.73946 9.11119 3.02207 9.22826 3.23045 9.43663C3.43882 9.645 3.55588 9.92762 3.55588 10.2223C3.55588 10.517 3.43882 10.7996 3.23044 11.008C3.02207 11.2164 2.73946 11.3334 2.44477 11.3334C2.15008 11.3334 1.86747 11.2164 1.6591 11.008C1.45072 10.7996 1.33366 10.517 1.33366 10.2223C1.33366 9.92762 1.45072 9.645 1.6591 9.43663C1.86747 9.22826 2.15008 9.11119 2.44477 9.11119Z" fill="black"/>
</svg>
