<svg width="16" height="16" viewBox="0 0 16 16" fill="none" xmlns="http://www.w3.org/2000/svg">
<path fill-rule="evenodd" clip-rule="evenodd" d="M2 4.9668C2 4.69065 2.22386 4.4668 2.5 4.4668H10.3C10.5761 4.4668 10.8 4.69065 10.8 4.9668V14.5001C10.8 14.7763 10.5761 15.0001 10.3 15.0001H2.5C2.22386 15.0001 2 14.7763 2 14.5001V4.9668ZM3 5.4668V14.0001H9.8V5.4668H3Z" fill="black"/>
<path fill-rule="evenodd" clip-rule="evenodd" d="M3.73242 3.2334C3.73242 2.95726 3.95628 2.7334 4.23242 2.7334H12.0324C12.3086 2.7334 12.5324 2.95726 12.5324 3.2334V12.7667C12.5324 13.0429 12.3086 13.2667 12.0324 13.2667C11.7563 13.2667 11.5324 13.0429 11.5324 12.7667V3.7334H4.23242C3.95628 3.7334 3.73242 3.50954 3.73242 3.2334Z" fill="black"/>
<path fill-rule="evenodd" clip-rule="evenodd" d="M6.33398 1.5C6.33398 1.22386 6.55784 1 6.83398 1H13.7673C14.0435 1 14.2673 1.22386 14.2673 1.5V10.1667C14.2673 10.4428 14.0435 10.6667 13.7673 10.6667C13.4912 10.6667 13.2673 10.4428 13.2673 10.1667V2H6.83398C6.55784 2 6.33398 1.77614 6.33398 1.5Z" fill="black"/>
</svg>
