<svg width="16" height="16" viewBox="0 0 16 16" fill="none" xmlns="http://www.w3.org/2000/svg">
<path fill-rule="evenodd" clip-rule="evenodd" d="M1 14.9644C1 14.6882 1.22386 14.4644 1.5 14.4644H14.5C14.7761 14.4644 15 14.6882 15 14.9644C15 15.2405 14.7761 15.4644 14.5 15.4644H1.5C1.22386 15.4644 1 15.2405 1 14.9644Z" fill="black"/>
<path fill-rule="evenodd" clip-rule="evenodd" d="M9.96789 0.682091C10.1631 0.486829 10.4797 0.486829 10.675 0.682091L13.4607 3.46781C13.656 3.66307 13.656 3.97965 13.4607 4.17491L5.56785 12.0678C5.50377 12.1318 5.42348 12.1773 5.33556 12.1993L1.62128 13.1279C1.45089 13.1705 1.27065 13.1205 1.14646 12.9963C1.02227 12.8722 0.972342 12.6919 1.01494 12.5215L1.94351 8.80723C1.96549 8.71932 2.01095 8.63903 2.07503 8.57495L9.96789 0.682091ZM2.88006 9.18413L2.18719 11.9556L4.95867 11.2627L12.4 3.82136L10.3214 1.74275L2.88006 9.18413Z" fill="black"/>
<path fill-rule="evenodd" clip-rule="evenodd" d="M8.11031 2.53927C8.30558 2.34401 8.62216 2.34401 8.81742 2.53927L11.6031 5.32498C11.7984 5.52025 11.7984 5.83683 11.6031 6.03209C11.4079 6.22735 11.0913 6.22735 10.896 6.03209L8.11031 3.24638C7.91505 3.05111 7.91505 2.73453 8.11031 2.53927Z" fill="black"/>
</svg>
