<svg width="16" height="16" viewBox="0 0 16 16" fill="none" xmlns="http://www.w3.org/2000/svg">
<path fill-rule="evenodd" clip-rule="evenodd" d="M7.5 1C7.77614 1 8 1.24569 8 1.54877V3.45123C8 3.75431 7.77614 4 7.5 4C7.22386 4 7 3.75431 7 3.45123V1.54877C7 1.24569 7.22386 1 7.5 1Z" fill="black"/>
<path fill-rule="evenodd" clip-rule="evenodd" d="M1.3484 12.9439C1.15598 12.7514 1.15598 12.4395 1.3484 12.2471L8.18111 5.41435C8.37353 5.22193 8.68549 5.22193 8.87791 5.41435L10.5858 7.12222C10.7782 7.31464 10.7782 7.62661 10.5858 7.81903L3.75308 14.6517C3.56066 14.8442 3.24869 14.8442 3.05628 14.6517L1.3484 12.9439ZM2.3936 12.5955L3.40468 13.6065L9.54058 7.47063L8.52951 6.45955L2.3936 12.5955Z" fill="black"/>
<path fill-rule="evenodd" clip-rule="evenodd" d="M12 8.5C12 8.22386 12.2457 8 12.5488 8H14.4512C14.7543 8 15 8.22386 15 8.5C15 8.77614 14.7543 9 14.4512 9H12.5488C12.2457 9 12 8.77614 12 8.5Z" fill="black"/>
<path fill-rule="evenodd" clip-rule="evenodd" d="M12.8727 3.12734C13.0424 3.29713 13.0424 3.57242 12.8727 3.74221L11.7422 4.87266C11.5724 5.04245 11.2971 5.04245 11.1273 4.87266C10.9576 4.70287 10.9576 4.42758 11.1273 4.25779L12.2578 3.12734C12.4276 2.95755 12.7029 2.95755 12.8727 3.12734Z" fill="black"/>
<path fill-rule="evenodd" clip-rule="evenodd" d="M3.12734 3.12734C3.29713 2.95755 3.57242 2.95755 3.74221 3.12734L4.87266 4.25779C5.04245 4.42758 5.04245 4.70287 4.87266 4.87266C4.70287 5.04245 4.42758 5.04245 4.25779 4.87266L3.12734 3.74221C2.95755 3.57242 2.95755 3.29713 3.12734 3.12734Z" fill="black"/>
<path fill-rule="evenodd" clip-rule="evenodd" d="M11.1273 11.1273C11.2971 10.9576 11.5724 10.9576 11.7422 11.1273L12.8727 12.2578C13.0424 12.4276 13.0424 12.7029 12.8727 12.8727C12.7029 13.0424 12.4276 13.0424 12.2578 12.8727L11.1273 11.7422C10.9576 11.5724 10.9576 11.2971 11.1273 11.1273Z" fill="black"/>
<path fill-rule="evenodd" clip-rule="evenodd" d="M6.5 7.5C6.71431 7.28569 6.7228 6.94652 6.93711 7.16083L8.83957 9.06329C9.05388 9.2776 8.71461 9.28579 8.5003 9.5001C8.28599 9.7144 8.2778 10.0537 8.06349 9.83936L6.16103 7.9369C5.94672 7.72259 6.28569 7.71431 6.5 7.5Z" fill="black"/>
</svg>
