<svg width="16" height="16" viewBox="0 0 16 16" fill="none" xmlns="http://www.w3.org/2000/svg">
<path fill-rule="evenodd" clip-rule="evenodd" d="M8 2C4.68629 2 2 4.68629 2 8C2 11.3137 4.68629 14 8 14C11.3137 14 14 11.3137 14 8C14 4.68629 11.3137 2 8 2ZM1 8C1 4.13401 4.13401 1 8 1C11.866 1 15 4.13401 15 8C15 11.866 11.866 15 8 15C4.13401 15 1 11.866 1 8Z" fill="black"/>
<path d="M5.39987 7.13324C5.87852 7.13324 6.26654 6.74522 6.26654 6.26657C6.26654 5.78792 5.87852 5.3999 5.39987 5.3999C4.92122 5.3999 4.5332 5.78792 4.5332 6.26657C4.5332 6.74522 4.92122 7.13324 5.39987 7.13324Z" fill="black"/>
<path d="M10.5991 7.13324C11.0777 7.13324 11.4658 6.74522 11.4658 6.26657C11.4658 5.78792 11.0777 5.3999 10.5991 5.3999C10.1204 5.3999 9.73242 5.78792 9.73242 6.26657C9.73242 6.74522 10.1204 7.13324 10.5991 7.13324Z" fill="black"/>
<path fill-rule="evenodd" clip-rule="evenodd" d="M5.14293 9.13132C5.37962 8.98908 5.6868 9.06566 5.82904 9.30235C6.05422 9.67707 6.37254 9.98715 6.75305 10.2024C7.13355 10.4177 7.56329 10.5308 8.00047 10.5308C8.43764 10.5308 8.86738 10.4177 9.24789 10.2024C9.62839 9.98715 9.94671 9.67707 10.1719 9.30235C10.3141 9.06566 10.6213 8.98908 10.858 9.13132C11.0947 9.27355 11.1713 9.58074 11.029 9.81743C10.715 10.3401 10.271 10.7725 9.74029 11.0728C9.20958 11.373 8.61021 11.5308 8.00047 11.5308C7.39072 11.5308 6.79135 11.373 6.26064 11.0728C5.72994 10.7725 5.28596 10.3401 4.97189 9.81743C4.82966 9.58074 4.90623 9.27355 5.14293 9.13132Z" fill="black"/>
</svg>
