<svg width="16" height="16" viewBox="0 0 16 16" fill="none" xmlns="http://www.w3.org/2000/svg">
<path fill-rule="evenodd" clip-rule="evenodd" d="M1 14.5C1 14.2239 1.22831 14 1.50993 14H14.4901C14.7717 14 15 14.2239 15 14.5C15 14.7761 14.7717 15 14.4901 15H1.50993C1.22831 15 1 14.7761 1 14.5Z" fill="black"/>
<path fill-rule="evenodd" clip-rule="evenodd" d="M9.11325 2.19451C9.11323 2.19453 9.11327 2.1945 9.11325 2.19451L2.21085 9.04181C2.14356 9.10858 2.10526 9.19971 2.10526 9.29531C2.10526 9.39091 2.14356 9.48205 2.21085 9.54882L4.75215 12.0698C4.96742 12.2834 4.96653 12.6287 4.75017 12.8412C4.53381 13.0537 4.18391 13.0528 3.96864 12.8393L1.42728 10.3182C1.15341 10.0464 1 9.67841 1 9.29531C1 8.91222 1.15335 8.54425 1.42722 8.27249L8.3298 1.42502C8.60384 1.15324 8.97614 1 9.36485 1C9.75357 1 10.1258 1.15318 10.3999 1.42496L14.5727 5.56451C14.8466 5.83628 15 6.2043 15 6.5874C15 6.97049 14.8466 7.33846 14.5728 7.61022L9.30166 12.8393C9.08639 13.0528 8.73648 13.0537 8.52012 12.8412C8.30376 12.6287 8.30288 12.2834 8.51815 12.0698L13.7891 6.8409C13.8564 6.77413 13.8947 6.683 13.8947 6.5874C13.8947 6.49183 13.8565 6.40072 13.7892 6.33395M13.7892 6.33395L9.61645 2.19451C9.61644 2.19449 9.61647 2.19453 9.61645 2.19451C9.54925 2.12789 9.45866 2.09091 9.36485 2.09091C9.27104 2.09091 9.18046 2.12788 9.11325 2.19451" fill="black"/>
</svg>
