<svg width="16" height="16" viewBox="0 0 16 16" fill="none" xmlns="http://www.w3.org/2000/svg">
<path fill-rule="evenodd" clip-rule="evenodd" d="M3.87417 1.37063C3.93273 1.15202 4.13083 1 4.35715 1H9C9.15544 1 9.30204 1.07229 9.39667 1.1956C9.4913 1.31892 9.5232 1.47922 9.48298 1.62937L8.72299 4.46665H12.7143C12.8996 4.46665 13.0698 4.56917 13.1564 4.73303C13.2429 4.89688 13.2318 5.0952 13.1274 5.24832L6.6274 14.7816C6.49587 14.9745 6.24833 15.0507 6.03108 14.9652C5.81383 14.8796 5.68472 14.6551 5.72005 14.4243L6.56051 8.93331H2.5C2.34457 8.93331 2.19797 8.86102 2.10334 8.73771C2.00871 8.61439 1.97681 8.45409 2.01703 8.30394L3.87417 1.37063ZM4.74084 2L3.15156 7.93331H7.14286C7.28868 7.93331 7.42723 7.99696 7.52222 8.1076C7.61721 8.21823 7.65917 8.36482 7.63711 8.50896L7.04171 12.3988L11.7682 5.46665H8.07143C7.916 5.46665 7.7694 5.39437 7.67477 5.27105C7.58014 5.14774 7.54824 4.98743 7.58846 4.83729L8.34845 2H4.74084Z" fill="black"/>
</svg>
