<svg width="16" height="16" viewBox="0 0 16 16" fill="none" xmlns="http://www.w3.org/2000/svg">
<path fill-rule="evenodd" clip-rule="evenodd" d="M7.64684 1.14645C7.8421 0.951184 8.15868 0.951184 8.35394 1.14645L10.9539 3.74645C11.1492 3.94171 11.1492 4.25829 10.9539 4.45355C10.7587 4.64882 10.4421 4.64882 10.2468 4.45355L8.00039 2.20711L5.75394 4.45355C5.55868 4.64882 5.2421 4.64882 5.04684 4.45355C4.85158 4.25829 4.85158 3.94171 5.04684 3.74645L7.64684 1.14645Z" fill="black"/>
<path fill-rule="evenodd" clip-rule="evenodd" d="M8 1C8.27614 1 8.5 1.22386 8.5 1.5V10.1667C8.5 10.4428 8.27614 10.6667 8 10.6667C7.72386 10.6667 7.5 10.4428 7.5 10.1667V1.5C7.5 1.22386 7.72386 1 8 1Z" fill="black"/>
<path fill-rule="evenodd" clip-rule="evenodd" d="M2.74524 6.59155C2.79608 6.36278 2.99899 6.20001 3.23334 6.20001H5.83334C6.10948 6.20001 6.33334 6.42387 6.33334 6.70001C6.33334 6.97615 6.10948 7.20001 5.83334 7.20001H3.63442L2.12331 14H13.8767L12.3656 7.20001H10.1667C9.89053 7.20001 9.66667 6.97615 9.66667 6.70001C9.66667 6.42387 9.89053 6.20001 10.1667 6.20001H12.7667C13.001 6.20001 13.2039 6.36278 13.2548 6.59155L14.9881 14.3915C15.021 14.5396 14.9849 14.6946 14.89 14.8129C14.7951 14.9312 14.6517 15 14.5 15H1.5C1.34834 15 1.20488 14.9312 1.10998 14.8129C1.01509 14.6946 0.979011 14.5396 1.01191 14.3915L2.74524 6.59155Z" fill="black"/>
</svg>
