<svg width="16" height="16" viewBox="0 0 16 16" fill="none" xmlns="http://www.w3.org/2000/svg">
<path fill-rule="evenodd" clip-rule="evenodd" d="M2.07979 7.99958C2.15291 8.11881 2.25356 8.27712 2.38009 8.4627C2.67387 8.89357 3.10386 9.4666 3.64897 10.0377C4.75371 11.195 6.25541 12.2662 7.99979 12.2662C9.74417 12.2662 11.2459 11.195 12.3506 10.0377C12.8957 9.4666 13.3257 8.89357 13.6195 8.4627C13.746 8.27712 13.8467 8.1188 13.9198 7.99957C13.8467 7.88034 13.746 7.72203 13.6195 7.53645C13.3257 7.10558 12.8957 6.53255 12.3506 5.96148C11.2459 4.80414 9.74417 3.73291 7.99979 3.73291C6.25541 3.73291 4.75371 4.80414 3.64897 5.96148C3.10386 6.53255 2.67387 7.10558 2.38009 7.53645C2.25356 7.72204 2.15291 7.88035 2.07979 7.99958ZM14.4998 7.99958C14.9387 7.76015 14.9387 7.76 14.9386 7.75983L14.9377 7.75819L14.9356 7.75451L14.9287 7.74205C14.9228 7.73152 14.9144 7.71659 14.9035 7.69755C14.8817 7.65948 14.8499 7.60494 14.8085 7.53629C14.7256 7.39904 14.6038 7.20502 14.4457 6.97312C14.1301 6.51024 13.6664 5.8916 13.074 5.27101C11.9037 4.04502 10.1554 2.73291 7.99979 2.73291C5.84417 2.73291 4.09588 4.04502 2.92562 5.27101C2.33323 5.8916 1.86947 6.51024 1.55387 6.97312C1.39575 7.20502 1.274 7.39904 1.19112 7.53629C1.14966 7.60494 1.11787 7.65948 1.09607 7.69755C1.08516 7.71659 1.07675 7.73152 1.07087 7.74205L1.06394 7.75451L1.06192 7.75819L1.06126 7.75939C1.06117 7.75956 1.06085 7.76015 1.49979 7.99958L1.06126 7.75939C0.979857 7.90863 0.979442 8.08976 1.06085 8.239L1.49979 7.99958C1.06085 8.239 1.06075 8.23883 1.06085 8.239L1.06192 8.24096L1.06394 8.24465L1.07087 8.2571C1.07675 8.26763 1.08516 8.28256 1.09607 8.3016C1.11787 8.33968 1.14966 8.39421 1.19112 8.46287C1.274 8.60011 1.39575 8.79413 1.55387 9.02604C1.86947 9.48891 2.33323 10.1076 2.92562 10.7281C4.09588 11.9541 5.84417 13.2662 7.99979 13.2662C10.1554 13.2662 11.9037 11.9541 13.074 10.7281C13.6664 10.1076 14.1301 9.48891 14.4457 9.02604C14.6038 8.79413 14.7256 8.60011 14.8085 8.46287C14.8499 8.39421 14.8817 8.33968 14.9035 8.3016C14.9144 8.28256 14.9228 8.26763 14.9287 8.2571L14.9356 8.24465L14.9377 8.24096L14.9383 8.23976C14.9384 8.23959 14.9387 8.239 14.4998 7.99958ZM14.4998 7.99958L14.9383 8.23976C15.0197 8.09052 15.02 7.90906 14.9386 7.75983L14.4998 7.99958Z" fill="black"/>
<path fill-rule="evenodd" clip-rule="evenodd" d="M7.99967 6.33301C7.0792 6.33301 6.33301 7.0792 6.33301 7.99967C6.33301 8.92015 7.0792 9.66634 7.99967 9.66634C8.92015 9.66634 9.66634 8.92015 9.66634 7.99967C9.66634 7.0792 8.92015 6.33301 7.99967 6.33301ZM5.33301 7.99967C5.33301 6.52692 6.52692 5.33301 7.99967 5.33301C9.47243 5.33301 10.6663 6.52692 10.6663 7.99967C10.6663 9.47243 9.47243 10.6663 7.99967 10.6663C6.52692 10.6663 5.33301 9.47243 5.33301 7.99967Z" fill="black"/>
<path fill-rule="evenodd" clip-rule="evenodd" d="M14.4205 1.57955C14.6157 1.77481 14.6157 2.0914 14.4205 2.28666L2.28715 14.42C2.09189 14.6153 1.7753 14.6153 1.58004 14.42C1.38478 14.2247 1.38478 13.9081 1.58004 13.7129L13.7134 1.57955C13.9086 1.38429 14.2252 1.38429 14.4205 1.57955Z" fill="black"/>
</svg>
