<svg width="16" height="16" viewBox="0 0 16 16" fill="none" xmlns="http://www.w3.org/2000/svg">
<path fill-rule="evenodd" clip-rule="evenodd" d="M2.08 8.00007C2.15311 8.1193 2.25377 8.27761 2.3803 8.46319C2.67408 8.89406 3.10406 9.46709 3.64918 10.0382C4.75392 11.1955 6.25562 12.2667 8 12.2667C9.74438 12.2667 11.2461 11.1955 12.3508 10.0382C12.8959 9.46709 13.3259 8.89406 13.6197 8.46319C13.7462 8.27761 13.8469 8.11929 13.92 8.00006C13.8469 7.88083 13.7462 7.72252 13.6197 7.53694C13.3259 7.10607 12.8959 6.53304 12.3508 5.96197C11.2461 4.80462 9.74438 3.7334 8 3.7334C6.25562 3.7334 4.75392 4.80462 3.64918 5.96197C3.10406 6.53304 2.67408 7.10607 2.3803 7.53694C2.25377 7.72252 2.15311 7.88083 2.08 8.00007ZM14.5 8.00007C14.9389 7.76064 14.9389 7.76049 14.9388 7.76031L14.9385 7.75988L14.9379 7.75868L14.9358 7.755L14.9289 7.74254C14.923 7.73201 14.9146 7.71708 14.9037 7.69804C14.8819 7.65997 14.8501 7.60543 14.8087 7.53677C14.7258 7.39953 14.604 7.20551 14.4459 6.97361C14.1303 6.51073 13.6666 5.89209 13.0742 5.27149C11.9039 4.04551 10.1556 2.7334 8 2.7334C5.84438 2.7334 4.09608 4.04551 2.92582 5.27149C2.33344 5.89209 1.86967 6.51073 1.55407 6.97361C1.39596 7.20551 1.27421 7.39953 1.19133 7.53677C1.14987 7.60543 1.11808 7.65997 1.09627 7.69804C1.08537 7.71708 1.07696 7.73201 1.07107 7.74254L1.06415 7.755L1.06212 7.75868L1.06147 7.75988L1.06123 7.76031C1.06114 7.76049 1.06105 7.76064 1.5 8.00007L1.06105 7.76064C0.979649 7.90988 0.979649 8.09025 1.06105 8.23949L1.5 8.00007C1.06105 8.23949 1.06114 8.23965 1.06123 8.23982L1.06147 8.24025L1.06212 8.24145L1.06415 8.24513L1.07107 8.25759C1.07696 8.26812 1.08537 8.28305 1.09627 8.30209C1.11808 8.34016 1.14987 8.3947 1.19133 8.46336C1.27421 8.6006 1.39596 8.79462 1.55407 9.02653C1.86967 9.4894 2.33344 10.108 2.92582 10.7286C4.09608 11.9546 5.84438 13.2667 8 13.2667C10.1556 13.2667 11.9039 11.9546 13.0742 10.7286C13.6666 10.108 14.1303 9.4894 14.4459 9.02653C14.604 8.79462 14.7258 8.6006 14.8087 8.46336C14.8501 8.3947 14.8819 8.34016 14.9037 8.30209C14.9146 8.28305 14.923 8.26812 14.9289 8.25759L14.9358 8.24513L14.9379 8.24145L14.9385 8.24025L14.9388 8.23982C14.9389 8.23965 14.9389 8.23949 14.5 8.00007ZM14.5 8.00007L14.9389 8.23949C15.0204 8.09025 15.0204 7.90988 14.9389 7.76064L14.5 8.00007Z" fill="black"/>
<path fill-rule="evenodd" clip-rule="evenodd" d="M7.99967 6.33325C7.0792 6.33325 6.33301 7.07944 6.33301 7.99992C6.33301 8.92039 7.0792 9.66659 7.99967 9.66659C8.92015 9.66659 9.66634 8.92039 9.66634 7.99992C9.66634 7.07944 8.92015 6.33325 7.99967 6.33325ZM5.33301 7.99992C5.33301 6.52716 6.52692 5.33325 7.99967 5.33325C9.47243 5.33325 10.6663 6.52716 10.6663 7.99992C10.6663 9.47268 9.47243 10.6666 7.99967 10.6666C6.52692 10.6666 5.33301 9.47268 5.33301 7.99992Z" fill="black"/>
</svg>
