<svg width="16" height="16" viewBox="0 0 16 16" fill="none" xmlns="http://www.w3.org/2000/svg">
<path fill-rule="evenodd" clip-rule="evenodd" d="M7.5 6C7.77614 6 8 6.22386 8 6.5V9.25H10.4545C10.7307 9.25 10.9545 9.47386 10.9545 9.75C10.9545 10.0261 10.7307 10.25 10.4545 10.25H7.5C7.22386 10.25 7 10.0261 7 9.75V6.5C7 6.22386 7.22386 6 7.5 6Z" fill="black"/>
<path fill-rule="evenodd" clip-rule="evenodd" d="M1 1.5C1 1.22386 1.22386 1 1.5 1H6.22727C6.39261 1 6.54725 1.08173 6.64039 1.21833L8.26425 3.6H14.5C14.7761 3.6 15 3.82386 15 4.1V13.2C15 13.6628 14.8333 14.1152 14.5238 14.4556C14.2129 14.7976 13.7804 15 13.3182 15H2.68182C2.21956 15 1.78709 14.7976 1.47618 14.4556C1.1667 14.1152 1 13.6628 1 13.2V1.5ZM2 2V13.2C2 13.4267 2.08232 13.6357 2.21612 13.7829C2.34847 13.9285 2.5172 14 2.68182 14H13.3182C13.4828 14 13.6515 13.9285 13.7839 13.7829C13.9177 13.6357 14 13.4267 14 13.2V4.6H8C7.83467 4.6 7.68002 4.51827 7.58689 4.38167L5.96302 2H2Z" fill="black"/>
</svg>
