<svg width="16" height="16" viewBox="0 0 16 16" fill="none" xmlns="http://www.w3.org/2000/svg">
<path fill-rule="evenodd" clip-rule="evenodd" d="M1 6.7002C1 6.42405 1.22386 6.2002 1.5 6.2002H14.5C14.7761 6.2002 15 6.42405 15 6.7002C15 6.97634 14.7761 7.2002 14.5 7.2002H1.5C1.22386 7.2002 1 6.97634 1 6.7002Z" fill="black"/>
<path fill-rule="evenodd" clip-rule="evenodd" d="M1 1.5C1 1.22386 1.22386 1 1.5 1H5.83333C6.00051 1 6.15663 1.08355 6.24936 1.22265L7.83426 3.6H14.5C14.7761 3.6 15 3.82386 15 4.1V12.7667C15 14.0005 14.0005 15 12.7667 15H3.23333C1.99952 15 1 14.0005 1 12.7667V1.5ZM2 2V12.7667C2 13.4482 2.55181 14 3.23333 14H12.7667C13.4482 14 14 13.4482 14 12.7667V4.6H7.56667C7.39949 4.6 7.24337 4.51645 7.15064 4.37735L5.56574 2H2Z" fill="black"/>
</svg>
