<svg width="16" height="16" viewBox="0 0 16 16" fill="none" xmlns="http://www.w3.org/2000/svg">
<path fill-rule="evenodd" clip-rule="evenodd" d="M2.36667 2C2.16416 2 2 2.16416 2 2.36667V13.6333C2 13.8358 2.16416 14 2.36667 14H13.6333C13.8358 14 14 13.8358 14 13.6333V2.36667C14 2.16416 13.8358 2 13.6333 2H2.36667ZM1 2.36667C1 1.61188 1.61188 1 2.36667 1H13.6333C14.3881 1 15 1.61188 15 2.36667V13.6333C15 14.3881 14.3881 15 13.6333 15H2.36667C1.61188 15 1 14.3881 1 13.6333V2.36667Z" fill="black"/>
<path fill-rule="evenodd" clip-rule="evenodd" d="M7.09259 3.94186C7.16065 3.73769 7.35172 3.59998 7.56693 3.59998H8.4336C8.64881 3.59998 8.83988 3.73769 8.90794 3.94186L11.5079 11.7419C11.5953 12.0038 11.4537 12.287 11.1917 12.3743C10.9297 12.4616 10.6466 12.3201 10.5593 12.0581L8.07322 4.59998H7.92731L5.44127 12.0581C5.35395 12.3201 5.07079 12.4616 4.80882 12.3743C4.54685 12.287 4.40527 12.0038 4.49259 11.7419L7.09259 3.94186Z" fill="black"/>
<path fill-rule="evenodd" clip-rule="evenodd" d="M3.59961 11.9C3.59961 11.6239 3.82347 11.4 4.09961 11.4H6.69961C6.97575 11.4 7.19961 11.6239 7.19961 11.9C7.19961 12.1762 6.97575 12.4 6.69961 12.4H4.09961C3.82347 12.4 3.59961 12.1762 3.59961 11.9Z" fill="black"/>
<path fill-rule="evenodd" clip-rule="evenodd" d="M8.80078 11.9C8.80078 11.6239 9.02464 11.4 9.30078 11.4H11.9008C12.1769 11.4 12.4008 11.6239 12.4008 11.9C12.4008 12.1762 12.1769 12.4 11.9008 12.4H9.30078C9.02464 12.4 8.80078 12.1762 8.80078 11.9Z" fill="black"/>
<path fill-rule="evenodd" clip-rule="evenodd" d="M5.62207 8.43335C5.62207 8.15721 5.84593 7.93335 6.12207 7.93335H9.8782C10.1543 7.93335 10.3782 8.15721 10.3782 8.43335C10.3782 8.70949 10.1543 8.93335 9.8782 8.93335H6.12207C5.84593 8.93335 5.62207 8.70949 5.62207 8.43335Z" fill="black"/>
</svg>
