<svg width="16" height="16" viewBox="0 0 16 16" fill="none" xmlns="http://www.w3.org/2000/svg">
<path fill-rule="evenodd" clip-rule="evenodd" d="M1 8C1 7.72386 1.22386 7.5 1.5 7.5H10.1667C10.4428 7.5 10.6667 7.72386 10.6667 8C10.6667 8.27614 10.4428 8.5 10.1667 8.5H1.5C1.22386 8.5 1 8.27614 1 8Z" fill="black"/>
<path fill-rule="evenodd" clip-rule="evenodd" d="M6.34567 4.17965C6.54093 3.98439 6.85751 3.98439 7.05277 4.17965L10.5194 7.64632C10.7147 7.84158 10.7147 8.15816 10.5194 8.35342L7.05277 11.8201C6.85751 12.0154 6.54093 12.0154 6.34567 11.8201C6.1504 11.6248 6.1504 11.3082 6.34567 11.113L9.45878 7.99987L6.34567 4.88676C6.1504 4.69149 6.1504 4.37491 6.34567 4.17965Z" fill="black"/>
<path fill-rule="evenodd" clip-rule="evenodd" d="M2.8 2C2.58783 2 2.38434 2.08429 2.23431 2.23431C2.08429 2.38434 2 2.58783 2 2.8V4.96667C2 5.24281 1.77614 5.46667 1.5 5.46667C1.22386 5.46667 1 5.24281 1 4.96667V2.8C1 2.32261 1.18964 1.86477 1.52721 1.52721C1.86477 1.18964 2.32261 1 2.8 1H13.2C13.6774 1 14.1352 1.18964 14.4728 1.52721C14.8104 1.86477 15 2.32261 15 2.8V13.2C15 13.6774 14.8104 14.1352 14.4728 14.4728C14.1352 14.8104 13.6774 15 13.2 15H2.8C2.32261 15 1.86477 14.8104 1.52721 14.4728C1.18964 14.1352 1 13.6774 1 13.2V11.0333C1 10.7572 1.22386 10.5333 1.5 10.5333C1.77614 10.5333 2 10.7572 2 11.0333V13.2C2 13.4122 2.08429 13.6157 2.23431 13.7657C2.38434 13.9157 2.58783 14 2.8 14H13.2C13.4122 14 13.6157 13.9157 13.7657 13.7657C13.9157 13.6157 14 13.4122 14 13.2V2.8C14 2.58783 13.9157 2.38434 13.7657 2.23431C13.6157 2.08429 13.4122 2 13.2 2H2.8Z" fill="black"/>
</svg>
