<svg width="16" height="16" viewBox="0 0 16 16" fill="none" xmlns="http://www.w3.org/2000/svg">
<path fill-rule="evenodd" clip-rule="evenodd" d="M1 1.5C1 1.22386 1.22386 1 1.5 1H14.5C14.7761 1 15 1.22386 15 1.5V9.3C15 9.57614 14.7761 9.8 14.5 9.8H1.5C1.22386 9.8 1 9.57614 1 9.3V1.5ZM2 2V8.8H14V2H2Z" fill="black"/>
<path fill-rule="evenodd" clip-rule="evenodd" d="M7.93359 11.8999C7.93359 11.6238 8.15745 11.3999 8.43359 11.3999H14.5003C14.7764 11.3999 15.0003 11.6238 15.0003 11.8999V14.4999C15.0003 14.776 14.7764 14.9999 14.5003 14.9999H8.43359C8.15745 14.9999 7.93359 14.776 7.93359 14.4999V11.8999ZM8.93359 12.3999V13.9999H14.0003V12.3999H8.93359Z" fill="black"/>
<path fill-rule="evenodd" clip-rule="evenodd" d="M1 4.1001C1 3.82396 1.22386 3.6001 1.5 3.6001H14.5C14.7761 3.6001 15 3.82396 15 4.1001C15 4.37624 14.7761 4.6001 14.5 4.6001H1.5C1.22386 4.6001 1 4.37624 1 4.1001Z" fill="black"/>
</svg>
