<svg width="16" height="16" viewBox="0 0 16 16" fill="none" xmlns="http://www.w3.org/2000/svg">
<path fill-rule="evenodd" clip-rule="evenodd" d="M8 1.43335C8.27614 1.43335 8.5 1.65721 8.5 1.93335V11.4667C8.5 11.7428 8.27614 11.9667 8 11.9667C7.72386 11.9667 7.5 11.7428 7.5 11.4667V1.93335C7.5 1.65721 7.72386 1.43335 8 1.43335Z" fill="black"/>
<path fill-rule="evenodd" clip-rule="evenodd" d="M7.64658 1.5798C7.84184 1.38453 8.15842 1.38453 8.35368 1.5798L11.387 4.61313C11.5823 4.80839 11.5823 5.12497 11.387 5.32024C11.1918 5.5155 10.8752 5.5155 10.6799 5.32024L8.00013 2.64046L5.32035 5.32024C5.12509 5.5155 4.80851 5.5155 4.61324 5.32024C4.41798 5.12497 4.41798 4.80839 4.61324 4.61313L7.64658 1.5798Z" fill="black"/>
<path fill-rule="evenodd" clip-rule="evenodd" d="M1 14.0667C1 13.7905 1.22386 13.5667 1.5 13.5667H14.5C14.7761 13.5667 15 13.7905 15 14.0667C15 14.3428 14.7761 14.5667 14.5 14.5667H1.5C1.22386 14.5667 1 14.3428 1 14.0667Z" fill="black"/>
<path fill-rule="evenodd" clip-rule="evenodd" d="M1 8.8667C1 8.59056 1.22386 8.3667 1.5 8.3667H4.96667C5.24281 8.3667 5.46667 8.59056 5.46667 8.8667C5.46667 9.14284 5.24281 9.3667 4.96667 9.3667H1.5C1.22386 9.3667 1 9.14284 1 8.8667Z" fill="black"/>
<path fill-rule="evenodd" clip-rule="evenodd" d="M10.5332 8.8667C10.5332 8.59056 10.7571 8.3667 11.0332 8.3667H14.4999C14.776 8.3667 14.9999 8.59056 14.9999 8.8667C14.9999 9.14284 14.776 9.3667 14.4999 9.3667H11.0332C10.7571 9.3667 10.5332 9.14284 10.5332 8.8667Z" fill="black"/>
</svg>
