<svg width="16" height="16" viewBox="0 0 16 16" fill="none" xmlns="http://www.w3.org/2000/svg">
<path fill-rule="evenodd" clip-rule="evenodd" d="M1 1.5C1 1.22386 1.22386 1 1.5 1H3.44892C3.72506 1 3.94892 1.22386 3.94892 1.5V3.44892C3.94892 3.72506 3.72506 3.94892 3.44892 3.94892H1.5C1.22386 3.94892 1 3.72506 1 3.44892V1.5ZM2 2V2.94892H2.94892V2H2Z" fill="black"/>
<path fill-rule="evenodd" clip-rule="evenodd" d="M2.94922 2.47534C2.94922 2.1992 3.17308 1.97534 3.44922 1.97534H12.5502C12.8264 1.97534 13.0502 2.1992 13.0502 2.47534C13.0502 2.75148 12.8264 2.97534 12.5502 2.97534H3.44922C3.17308 2.97534 2.94922 2.75148 2.94922 2.47534Z" fill="black"/>
<path fill-rule="evenodd" clip-rule="evenodd" d="M2.47461 2.94897C2.75075 2.94897 2.97461 3.17283 2.97461 3.44897V12.5513C2.97461 12.8274 2.75075 13.0513 2.47461 13.0513C2.19847 13.0513 1.97461 12.8274 1.97461 12.5513V3.44897C1.97461 3.17283 2.19847 2.94897 2.47461 2.94897ZM13.5246 2.95027C13.8007 2.95027 14.0246 3.17413 14.0246 3.45027V12.5526C14.0246 12.8287 13.8007 13.0526 13.5246 13.0526C13.2484 13.0526 13.0246 12.8287 13.0246 12.5526V3.45027C13.0246 3.17413 13.2484 2.95027 13.5246 2.95027Z" fill="black"/>
<path fill-rule="evenodd" clip-rule="evenodd" d="M2.94922 13.0264H13.0502V14.0264H2.94922V13.0264Z" fill="black"/>
<path fill-rule="evenodd" clip-rule="evenodd" d="M12.0512 1.50073C12.0512 1.22459 12.2751 1.00073 12.5512 1.00073H14.4995C14.7757 1.00073 15.0002 1.22459 15.0002 1.50073V3.44965C15.0002 3.72579 14.7763 3.94965 14.5002 3.94965H12.5512C12.2751 3.94965 12.0512 3.72579 12.0512 3.44965V1.50073ZM13.0512 2.00073V2.94965H14.0002V2.00073H13.0512ZM1 12.5513C1 12.2752 1.22386 12.0513 1.5 12.0513H3.44892C3.72506 12.0513 3.94892 12.2752 3.94892 12.5513V14.5002C3.94892 14.7764 3.72506 15.0002 3.44892 15.0002H1.5C1.22386 15.0002 1 14.7764 1 14.5002V12.5513ZM2 13.0513V14.0002H2.94892V13.0513H2ZM12.0512 12.552C12.0512 12.2758 12.2751 12.052 12.5512 12.052H14.4995C14.7757 12.052 15.0002 12.2758 15.0002 12.552V14.5009C15.0002 14.777 14.7763 15.0009 14.5002 15.0009H12.5512C12.2751 15.0009 12.0512 14.777 12.0512 14.5009V12.552ZM13.0512 13.052V14.0009H14.0002V13.052H13.0512Z" fill="black"/>
<path fill-rule="evenodd" clip-rule="evenodd" d="M8.001 5.55054C8.27714 5.55054 8.501 5.77439 8.501 6.05054V7.50076H9.95122C10.2274 7.50076 10.4512 7.72461 10.4512 8.00076C10.4512 8.2769 10.2274 8.50076 9.95122 8.50076H8.501V9.95097C8.501 10.2271 8.27714 10.451 8.001 10.451C7.72486 10.451 7.501 10.2271 7.501 9.95097V8.50076H6.05078C5.77464 8.50076 5.55078 8.2769 5.55078 8.00076C5.55078 7.72461 5.77464 7.50076 6.05078 7.50076H7.501V6.05054C7.501 5.77439 7.72486 5.55054 8.001 5.55054Z" fill="black"/>
</svg>
