<svg width="16" height="16" viewBox="0 0 16 16" fill="none" xmlns="http://www.w3.org/2000/svg">
<path fill-rule="evenodd" clip-rule="evenodd" d="M8.80078 1.5C8.80078 1.22386 9.02464 1 9.30078 1H14.5008C14.7769 1 15.0008 1.22386 15.0008 1.5V6.7C15.0008 6.97614 14.7769 7.2 14.5008 7.2C14.2246 7.2 14.0008 6.97614 14.0008 6.7V2H9.30078C9.02464 2 8.80078 1.77614 8.80078 1.5Z" fill="black"/>
<path fill-rule="evenodd" clip-rule="evenodd" d="M1.5 8.7998C1.77614 8.7998 2 9.02366 2 9.2998V13.9998H6.7C6.97614 13.9998 7.2 14.2237 7.2 14.4998C7.2 14.7759 6.97614 14.9998 6.7 14.9998H1.5C1.22386 14.9998 1 14.7759 1 14.4998V9.2998C1 9.02366 1.22386 8.7998 1.5 8.7998Z" fill="black"/>
<path fill-rule="evenodd" clip-rule="evenodd" d="M14.8529 1.14645C15.0482 1.34171 15.0482 1.65829 14.8529 1.85355L10.5196 6.18689C10.3243 6.38215 10.0077 6.38215 9.81246 6.18689C9.6172 5.99162 9.6172 5.67504 9.81246 5.47978L14.1458 1.14645C14.3411 0.951184 14.6576 0.951184 14.8529 1.14645Z" fill="black"/>
<path fill-rule="evenodd" clip-rule="evenodd" d="M6.18689 9.81295C6.38215 10.0082 6.38215 10.3248 6.18689 10.5201L1.85355 14.8534C1.65829 15.0487 1.34171 15.0487 1.14645 14.8534C0.951184 14.6581 0.951184 14.3415 1.14645 14.1463L5.47978 9.81295C5.67504 9.61769 5.99162 9.61769 6.18689 9.81295Z" fill="black"/>
<path fill-rule="evenodd" clip-rule="evenodd" d="M1 1.5C1 1.22386 1.22386 1 1.5 1H6.7C6.97614 1 7.2 1.22386 7.2 1.5C7.2 1.77614 6.97614 2 6.7 2H2V6.7C2 6.97614 1.77614 7.2 1.5 7.2C1.22386 7.2 1 6.97614 1 6.7V1.5Z" fill="black"/>
<path fill-rule="evenodd" clip-rule="evenodd" d="M1.14645 1.14645C1.34171 0.951184 1.65829 0.951184 1.85355 1.14645L6.18689 5.47978C6.38215 5.67504 6.38215 5.99162 6.18689 6.18689C5.99162 6.38215 5.67504 6.38215 5.47978 6.18689L1.14645 1.85355C0.951184 1.65829 0.951184 1.34171 1.14645 1.14645Z" fill="black"/>
<path fill-rule="evenodd" clip-rule="evenodd" d="M14.5008 8.7998C14.7769 8.7998 15.0008 9.02366 15.0008 9.2998V14.4998C15.0008 14.7759 14.7769 14.9998 14.5008 14.9998H9.30078C9.02464 14.9998 8.80078 14.7759 8.80078 14.4998C8.80078 14.2237 9.02464 13.9998 9.30078 13.9998H14.0008V9.2998C14.0008 9.02366 14.2246 8.7998 14.5008 8.7998Z" fill="black"/>
<path fill-rule="evenodd" clip-rule="evenodd" d="M9.81246 9.81295C10.0077 9.61769 10.3243 9.61769 10.5196 9.81295L14.8529 14.1463C15.0482 14.3415 15.0482 14.6581 14.8529 14.8534C14.6576 15.0487 14.3411 15.0487 14.1458 14.8534L9.81246 10.5201C9.6172 10.3248 9.6172 10.0082 9.81246 9.81295Z" fill="black"/>
</svg>
