<svg width="16" height="16" viewBox="0 0 16 16" fill="none" xmlns="http://www.w3.org/2000/svg">
<path fill-rule="evenodd" clip-rule="evenodd" d="M10.166 1C10.4422 1 10.666 1.22386 10.666 1.5V5.33333H14.4993C14.7755 5.33333 14.9993 5.55719 14.9993 5.83333C14.9993 6.10948 14.7755 6.33333 14.4993 6.33333H10.166C9.88987 6.33333 9.66602 6.10948 9.66602 5.83333V1.5C9.66602 1.22386 9.88987 1 10.166 1Z" fill="black"/>
<path fill-rule="evenodd" clip-rule="evenodd" d="M1 10.1665C1 9.89036 1.22386 9.6665 1.5 9.6665H5.83333C6.10948 9.6665 6.33333 9.89036 6.33333 10.1665V14.4998C6.33333 14.776 6.10948 14.9998 5.83333 14.9998C5.55719 14.9998 5.33333 14.776 5.33333 14.4998V10.6665H1.5C1.22386 10.6665 1 10.4426 1 10.1665Z" fill="black"/>
<path fill-rule="evenodd" clip-rule="evenodd" d="M14.8529 1.14645C15.0482 1.34171 15.0482 1.65829 14.8529 1.85355L10.5196 6.18689C10.3243 6.38215 10.0077 6.38215 9.81246 6.18689C9.6172 5.99162 9.6172 5.67504 9.81246 5.47978L14.1458 1.14645C14.3411 0.951184 14.6576 0.951184 14.8529 1.14645Z" fill="black"/>
<path fill-rule="evenodd" clip-rule="evenodd" d="M6.18689 9.81295C6.38215 10.0082 6.38215 10.3248 6.18689 10.5201L1.85355 14.8534C1.65829 15.0487 1.34171 15.0487 1.14645 14.8534C0.951184 14.6581 0.951184 14.3415 1.14645 14.1463L5.47978 9.81295C5.67504 9.61769 5.99162 9.61769 6.18689 9.81295Z" fill="black"/>
<path fill-rule="evenodd" clip-rule="evenodd" d="M5.83333 1C6.10948 1 6.33333 1.22386 6.33333 1.5V5.83333C6.33333 6.10948 6.10948 6.33333 5.83333 6.33333H1.5C1.22386 6.33333 1 6.10948 1 5.83333C1 5.55719 1.22386 5.33333 1.5 5.33333H5.33333V1.5C5.33333 1.22386 5.55719 1 5.83333 1Z" fill="black"/>
<path fill-rule="evenodd" clip-rule="evenodd" d="M1.14645 1.14645C1.34171 0.951184 1.65829 0.951184 1.85355 1.14645L6.18689 5.47978C6.38215 5.67504 6.38215 5.99162 6.18689 6.18689C5.99162 6.38215 5.67504 6.38215 5.47978 6.18689L1.14645 1.85355C0.951184 1.65829 0.951184 1.34171 1.14645 1.14645Z" fill="black"/>
<path fill-rule="evenodd" clip-rule="evenodd" d="M9.66602 10.1665C9.66602 9.89036 9.88987 9.6665 10.166 9.6665H14.4993C14.7755 9.6665 14.9993 9.89036 14.9993 10.1665C14.9993 10.4426 14.7755 10.6665 14.4993 10.6665H10.666V14.4998C10.666 14.776 10.4422 14.9998 10.166 14.9998C9.88987 14.9998 9.66602 14.776 9.66602 14.4998V10.1665Z" fill="black"/>
<path fill-rule="evenodd" clip-rule="evenodd" d="M9.81246 9.81295C10.0077 9.61769 10.3243 9.61769 10.5196 9.81295L14.8529 14.1463C15.0482 14.3415 15.0482 14.6581 14.8529 14.8534C14.6576 15.0487 14.3411 15.0487 14.1458 14.8534L9.81246 10.5201C9.6172 10.3248 9.6172 10.0082 9.81246 9.81295Z" fill="black"/>
</svg>
