<svg width="16" height="16" viewBox="0 0 16 16" fill="none" xmlns="http://www.w3.org/2000/svg">
<path fill-rule="evenodd" clip-rule="evenodd" d="M1.46484 4.28564C1.46484 4.0095 1.6887 3.78564 1.96484 3.78564H14.0363C14.3124 3.78564 14.5363 4.0095 14.5363 4.28564V14.4999C14.5363 14.7761 14.3124 14.9999 14.0363 14.9999H1.96484C1.6887 14.9999 1.46484 14.7761 1.46484 14.4999V4.28564ZM2.46484 4.78564V13.9999H13.5363V4.78564H2.46484Z" fill="black"/>
<path fill-rule="evenodd" clip-rule="evenodd" d="M4.25098 1.5C4.25098 1.22386 4.47483 1 4.75098 1H11.251C11.5271 1 11.751 1.22386 11.751 1.5C11.751 1.77614 11.5271 2 11.251 2H4.75098C4.47483 2 4.25098 1.77614 4.25098 1.5Z" fill="black"/>
<path fill-rule="evenodd" clip-rule="evenodd" d="M9.47724 7.50703C9.62121 7.53142 9.74733 7.61754 9.82247 7.74276L12.6082 12.3856C12.7009 12.5401 12.7033 12.7325 12.6145 12.8892C12.5258 13.046 12.3596 13.1429 12.1794 13.1429H3.82229C3.61178 13.1429 3.42382 13.011 3.35216 12.8131C3.28049 12.6151 3.34048 12.3935 3.5022 12.2587L9.07363 7.61589C9.18581 7.52241 9.33326 7.48264 9.47724 7.50703ZM5.20332 12.1429H11.2963L9.26533 8.75785L5.20332 12.1429Z" fill="black"/>
<path d="M5.2147 8.46432C5.72754 8.46432 6.14328 8.04858 6.14328 7.53575C6.14328 7.02291 5.72754 6.60718 5.2147 6.60718C4.70187 6.60718 4.28613 7.02291 4.28613 7.53575C4.28613 8.04858 4.70187 8.46432 5.2147 8.46432Z" fill="black"/>
</svg>
