<svg width="16" height="16" viewBox="0 0 16 16" fill="none" xmlns="http://www.w3.org/2000/svg">
<path fill-rule="evenodd" clip-rule="evenodd" d="M2.36667 2C2.16416 2 2 2.16416 2 2.36667V13.6333C2 13.8358 2.16416 14 2.36667 14H13.6333C13.8358 14 14 13.8358 14 13.6333V2.36667C14 2.16416 13.8358 2 13.6333 2H2.36667ZM1 2.36667C1 1.61188 1.61188 1 2.36667 1H13.6333C14.3881 1 15 1.61188 15 2.36667V13.6333C15 14.3881 14.3881 15 13.6333 15H2.36667C1.61188 15 1 14.3881 1 13.6333V2.36667Z" fill="black"/>
<path fill-rule="evenodd" clip-rule="evenodd" d="M3.59961 4.1001C3.59961 3.82396 3.82347 3.6001 4.09961 3.6001H9.29961C9.57575 3.6001 9.79961 3.82396 9.79961 4.1001V9.3001C9.79961 9.57624 9.57575 9.8001 9.29961 9.8001H4.09961C3.82347 9.8001 3.59961 9.57624 3.59961 9.3001V4.1001ZM4.59961 4.6001V8.8001H8.79961V4.6001H4.59961Z" fill="black"/>
<path fill-rule="evenodd" clip-rule="evenodd" d="M11.9002 6.19995C12.1763 6.19995 12.4002 6.42381 12.4002 6.69995V11.9C12.4002 12.1761 12.1763 12.4 11.9002 12.4H6.7002C6.42405 12.4 6.2002 12.1761 6.2002 11.9C6.2002 11.6238 6.42405 11.4 6.7002 11.4H11.4002V6.69995C11.4002 6.42381 11.6241 6.19995 11.9002 6.19995Z" fill="black"/>
</svg>
