<svg width="16" height="16" viewBox="0 0 16 16" fill="none" xmlns="http://www.w3.org/2000/svg">
<path fill-rule="evenodd" clip-rule="evenodd" d="M1 1.5C1 1.22386 1.22386 1 1.5 1H14.5C14.7761 1 15 1.22386 15 1.5V3.35714C15 3.63329 14.7761 3.85714 14.5 3.85714C14.2239 3.85714 14 3.63329 14 3.35714V2H2V3.35714C2 3.63329 1.77614 3.85714 1.5 3.85714C1.22386 3.85714 1 3.63329 1 3.35714V1.5Z" fill="black"/>
<path fill-rule="evenodd" clip-rule="evenodd" d="M8 1C8.27614 1 8.5 1.22386 8.5 1.5V14.5C8.5 14.7761 8.27614 15 8 15C7.72386 15 7.5 14.7761 7.5 14.5V1.5C7.5 1.22386 7.72386 1 8 1Z" fill="black"/>
<path fill-rule="evenodd" clip-rule="evenodd" d="M4.71387 14.5C4.71387 14.2239 4.93772 14 5.21387 14H10.7853C11.0614 14 11.2853 14.2239 11.2853 14.5C11.2853 14.7761 11.0614 15 10.7853 15H5.21387C4.93772 15 4.71387 14.7761 4.71387 14.5Z" fill="black"/>
</svg>
