<svg width="16" height="16" viewBox="0 0 16 16" fill="none" xmlns="http://www.w3.org/2000/svg">
<path fill-rule="evenodd" clip-rule="evenodd" d="M8 2C4.68629 2 2 4.68629 2 8C2 11.3137 4.68629 14 8 14C11.3137 14 14 11.3137 14 8C14 4.68629 11.3137 2 8 2ZM1 8C1 4.13401 4.13401 1 8 1C11.866 1 15 4.13401 15 8C15 11.866 11.866 15 8 15C4.13401 15 1 11.866 1 8Z" fill="black"/>
<path d="M8.00241 12.3332C8.48106 12.3332 8.86908 11.9452 8.86908 11.4665C8.86908 10.9879 8.48106 10.5999 8.00241 10.5999C7.52376 10.5999 7.13574 10.9879 7.13574 11.4665C7.13574 11.9452 7.52376 12.3332 8.00241 12.3332Z" fill="black"/>
<path fill-rule="evenodd" clip-rule="evenodd" d="M8.30279 4.17779C7.83118 4.12194 7.32682 4.27462 7.03518 4.5378C6.83017 4.7228 6.514 4.70658 6.329 4.50158C6.144 4.29657 6.16021 3.9804 6.36522 3.7954C6.89951 3.31325 7.70295 3.09976 8.42041 3.18474C9.15432 3.27166 9.90465 3.69254 10.1489 4.58453C10.2946 5.11303 10.2401 5.55203 10.0487 5.94059C9.88976 6.26348 9.63924 6.53654 9.43027 6.7643C9.41152 6.78475 9.3931 6.80483 9.37511 6.82454C9.14005 7.08216 8.92927 7.32495 8.77019 7.63544C8.61518 7.93799 8.5002 8.32444 8.5002 8.86653C8.5002 9.14267 8.27634 9.36653 8.0002 9.36653C7.72406 9.36653 7.5002 9.14267 7.5002 8.86653C7.5002 8.17016 7.65096 7.62689 7.88021 7.17945C8.10539 6.73995 8.39739 6.41247 8.63639 6.15052C8.64424 6.14192 8.652 6.13342 8.65968 6.12501C8.90201 5.8595 9.05838 5.68818 9.1516 5.49885C9.22965 5.34034 9.26866 5.15398 9.18479 4.84985L9.18453 4.8489C9.0777 4.45852 8.75783 4.23169 8.30279 4.17779Z" fill="black"/>
</svg>
