<svg width="16" height="16" viewBox="0 0 16 16" fill="none" xmlns="http://www.w3.org/2000/svg">
<path fill-rule="evenodd" clip-rule="evenodd" d="M8 3.95166C8.27614 3.95166 8.5 4.17552 8.5 4.45166V7.49711H11.5455C11.8216 7.49711 12.0455 7.72097 12.0455 7.99711C12.0455 8.27325 11.8216 8.49711 11.5455 8.49711H8C7.72386 8.49711 7.5 8.27325 7.5 7.99711V4.45166C7.5 4.17552 7.72386 3.95166 8 3.95166Z" fill="black"/>
<path fill-rule="evenodd" clip-rule="evenodd" d="M1.90377 10.6161C2.03046 10.5068 2.20346 10.4681 2.36468 10.513L5.72813 11.4502C5.99414 11.5243 6.1497 11.8 6.07558 12.066C6.00146 12.332 5.72573 12.4876 5.45972 12.4135L2.82035 11.678L3.15734 14.3577C3.19179 14.6317 2.99762 14.8818 2.72363 14.9162C2.44965 14.9507 2.19961 14.7565 2.16515 14.4825L1.73438 11.057C1.7135 10.891 1.77708 10.7255 1.90377 10.6161Z" fill="black"/>
<path fill-rule="evenodd" clip-rule="evenodd" d="M7.16649 1.04982C8.86593 0.846011 10.5811 1.27192 11.9879 2.24702C13.3946 3.22212 14.3952 4.67883 14.8007 6.34172C15.2062 8.00462 14.9884 9.75845 14.1884 11.2716C13.3884 12.7848 12.0618 13.9524 10.4593 14.5538C8.85679 15.1551 7.08949 15.1485 5.49155 14.5351C3.8936 13.9218 2.57576 12.7442 1.78718 11.2251C1.65996 10.98 1.7555 10.6781 2.00059 10.5509C2.24568 10.4237 2.5475 10.5192 2.67473 10.7643C3.35065 12.0664 4.48023 13.0758 5.8499 13.6015C7.21956 14.1273 8.73439 14.133 10.108 13.6175C11.4815 13.1021 12.6187 12.1013 13.3044 10.8042C13.99 9.50724 14.1768 8.00396 13.8292 6.57862C13.4816 5.15328 12.6239 3.90468 11.4182 3.06888C10.2124 2.23308 8.74222 1.86801 7.28556 2.0427C5.8289 2.21739 4.48672 2.91973 3.51279 4.01693C2.53886 5.11413 2.00068 6.53014 2 7.99724C1.99987 8.27339 1.77591 8.49714 1.49977 8.49701C1.22363 8.49688 0.999873 8.27292 1 7.99678C1.00079 6.28516 1.62867 4.63315 2.76492 3.35309C3.90117 2.07302 5.46705 1.25362 7.16649 1.04982Z" fill="black"/>
</svg>
