<svg width="16" height="16" viewBox="0 0 16 16" fill="none" xmlns="http://www.w3.org/2000/svg">
<path fill-rule="evenodd" clip-rule="evenodd" d="M10.346 1.89992C10.6037 1.99905 10.7323 2.28834 10.6331 2.54608L6.29982 13.8127C6.20069 14.0705 5.91139 14.1991 5.65365 14.0999C5.39592 14.0008 5.26734 13.7115 5.36647 13.4538L9.6998 2.1871C9.79893 1.92936 10.0882 1.80079 10.346 1.89992Z" fill="black"/>
<path fill-rule="evenodd" clip-rule="evenodd" d="M4.45355 4.613C4.64882 4.80826 4.64882 5.12484 4.45355 5.32011L2.20711 7.56655L4.45355 9.813C4.64882 10.0083 4.64882 10.3248 4.45355 10.5201C4.25829 10.7154 3.94171 10.7154 3.74645 10.5201L1.14645 7.92011C0.951184 7.72484 0.951184 7.40826 1.14645 7.213L3.74645 4.613C3.94171 4.41774 4.25829 4.41774 4.45355 4.613Z" fill="black"/>
<path fill-rule="evenodd" clip-rule="evenodd" d="M11.5468 4.613C11.7421 4.41774 12.0587 4.41774 12.2539 4.613L14.8539 7.213C15.0492 7.40826 15.0492 7.72484 14.8539 7.92011L12.2539 10.5201C12.0587 10.7154 11.7421 10.7154 11.5468 10.5201C11.3516 10.3248 11.3516 10.0083 11.5468 9.813L13.7933 7.56655L11.5468 5.32011C11.3516 5.12484 11.3516 4.80826 11.5468 4.613Z" fill="black"/>
</svg>
