<svg width="324" height="200" viewBox="0 0 324 200" fill="none" xmlns="http://www.w3.org/2000/svg">
	<path d="M324 0H0V200H324V0Z" fill="#F1F3F4"/>
	<path d="M107.464 135.326V136.399H102.077V135.326H107.464ZM102.282 131.047V141H100.963V131.047H102.282ZM108.612 131.047V141H107.3V131.047H108.612ZM114.43 131.047V141H113.131V131.047H114.43ZM117.629 131.047V132.127H109.939V131.047H117.629ZM119.522 131.047H120.801L124.062 139.161L127.315 131.047H128.601L124.554 141H123.556L119.522 131.047ZM119.105 131.047H120.233L120.418 137.117V141H119.105V131.047ZM127.883 131.047H129.011V141H127.698V137.117L127.883 131.047ZM137.364 139.927V141H132.388V139.927H137.364ZM132.647 131.047V141H131.328V131.047H132.647ZM143.086 131.047L138.937 141.854H137.85L142.006 131.047H143.086ZM148.835 138.095V131.047H150.147V138.095C150.147 138.751 150.013 139.305 149.744 139.756C149.475 140.207 149.104 140.551 148.63 140.788C148.161 141.021 147.62 141.137 147.01 141.137C146.399 141.137 145.857 141.032 145.383 140.822C144.909 140.613 144.537 140.294 144.269 139.865C144 139.437 143.865 138.897 143.865 138.245H145.185C145.185 138.664 145.262 139.008 145.417 139.277C145.572 139.546 145.786 139.744 146.06 139.872C146.338 140 146.654 140.063 147.01 140.063C147.356 140.063 147.666 139.991 147.939 139.845C148.217 139.694 148.436 139.473 148.596 139.182C148.755 138.885 148.835 138.523 148.835 138.095ZM155.917 131.929L152.622 141H151.275L155.069 131.047H155.938L155.917 131.929ZM158.679 141L155.377 131.929L155.356 131.047H156.225L160.032 141H158.679ZM158.508 137.315V138.396H152.916V137.315H158.508ZM163.977 139.489L166.909 131.047H168.338L164.653 141H163.635L163.977 139.489ZM161.235 131.047L164.141 139.489L164.503 141H163.484L159.807 131.047H161.235ZM172.843 131.929L169.548 141H168.201L171.995 131.047H172.863L172.843 131.929ZM175.605 141L172.303 131.929L172.282 131.047H173.15L176.958 141H175.605ZM175.434 137.315V138.396H169.842V137.315H175.434ZM183.596 138.484C183.596 138.252 183.559 138.047 183.486 137.869C183.418 137.687 183.295 137.523 183.117 137.377C182.944 137.231 182.702 137.092 182.393 136.96C182.087 136.828 181.7 136.693 181.23 136.557C180.738 136.411 180.294 136.249 179.897 136.071C179.501 135.889 179.161 135.682 178.879 135.449C178.596 135.217 178.38 134.95 178.23 134.649C178.079 134.349 178.004 134.005 178.004 133.617C178.004 133.23 178.084 132.872 178.243 132.544C178.403 132.216 178.631 131.931 178.927 131.689C179.228 131.443 179.585 131.252 180 131.115C180.415 130.979 180.877 130.91 181.388 130.91C182.135 130.91 182.769 131.054 183.288 131.341C183.812 131.623 184.211 131.995 184.484 132.455C184.758 132.911 184.895 133.398 184.895 133.918H183.582C183.582 133.544 183.502 133.214 183.343 132.927C183.183 132.635 182.942 132.407 182.618 132.243C182.295 132.075 181.884 131.99 181.388 131.99C180.918 131.99 180.531 132.061 180.226 132.202C179.92 132.343 179.692 132.535 179.542 132.776C179.396 133.018 179.323 133.294 179.323 133.604C179.323 133.813 179.367 134.005 179.453 134.178C179.544 134.346 179.683 134.504 179.87 134.649C180.062 134.795 180.303 134.93 180.595 135.053C180.891 135.176 181.244 135.294 181.654 135.408C182.219 135.568 182.707 135.745 183.117 135.941C183.527 136.137 183.865 136.358 184.129 136.604C184.398 136.846 184.596 137.122 184.724 137.432C184.856 137.737 184.922 138.083 184.922 138.471C184.922 138.876 184.84 139.243 184.676 139.571C184.512 139.899 184.277 140.18 183.972 140.412C183.666 140.645 183.3 140.825 182.871 140.952C182.447 141.075 181.973 141.137 181.449 141.137C180.989 141.137 180.536 141.073 180.089 140.945C179.647 140.818 179.244 140.626 178.879 140.371C178.519 140.116 178.23 139.801 178.011 139.428C177.797 139.049 177.689 138.612 177.689 138.115H179.002C179.002 138.457 179.068 138.751 179.2 138.997C179.332 139.239 179.512 139.439 179.74 139.599C179.973 139.758 180.235 139.877 180.526 139.954C180.823 140.027 181.13 140.063 181.449 140.063C181.91 140.063 182.299 140 182.618 139.872C182.937 139.744 183.179 139.562 183.343 139.325C183.511 139.088 183.596 138.808 183.596 138.484ZM192.612 137.835H193.925C193.856 138.464 193.676 139.027 193.385 139.523C193.093 140.02 192.681 140.414 192.147 140.706C191.614 140.993 190.949 141.137 190.151 141.137C189.568 141.137 189.037 141.027 188.559 140.809C188.085 140.59 187.677 140.28 187.335 139.879C186.993 139.473 186.729 138.988 186.542 138.423C186.36 137.853 186.269 137.22 186.269 136.522V135.531C186.269 134.834 186.36 134.203 186.542 133.638C186.729 133.068 186.995 132.58 187.342 132.175C187.693 131.769 188.114 131.457 188.606 131.238C189.099 131.02 189.652 130.91 190.268 130.91C191.02 130.91 191.655 131.051 192.175 131.334C192.694 131.617 193.098 132.008 193.385 132.51C193.676 133.007 193.856 133.583 193.925 134.239H192.612C192.549 133.774 192.43 133.376 192.257 133.043C192.084 132.706 191.838 132.446 191.519 132.264C191.2 132.081 190.783 131.99 190.268 131.99C189.826 131.99 189.436 132.075 189.099 132.243C188.766 132.412 188.486 132.651 188.258 132.961C188.035 133.271 187.866 133.642 187.752 134.075C187.638 134.508 187.581 134.989 187.581 135.518V136.522C187.581 137.01 187.631 137.468 187.731 137.896C187.836 138.325 187.994 138.701 188.203 139.024C188.413 139.348 188.679 139.603 189.003 139.79C189.327 139.972 189.709 140.063 190.151 140.063C190.712 140.063 191.159 139.975 191.491 139.797C191.824 139.619 192.075 139.364 192.243 139.031C192.416 138.699 192.539 138.3 192.612 137.835ZM195.723 131.047H199.018C199.765 131.047 200.396 131.161 200.911 131.389C201.431 131.617 201.825 131.954 202.094 132.4C202.367 132.842 202.504 133.387 202.504 134.034C202.504 134.49 202.411 134.907 202.224 135.285C202.041 135.659 201.777 135.978 201.431 136.242C201.089 136.502 200.679 136.696 200.2 136.823L199.831 136.967H196.734L196.721 135.894H199.059C199.533 135.894 199.927 135.812 200.241 135.647C200.556 135.479 200.793 135.253 200.952 134.971C201.112 134.688 201.191 134.376 201.191 134.034C201.191 133.651 201.116 133.316 200.966 133.029C200.815 132.742 200.578 132.521 200.255 132.366C199.936 132.207 199.523 132.127 199.018 132.127H197.042V141H195.723V131.047ZM201.54 141L199.12 136.488L200.494 136.481L202.948 140.918V141H201.54ZM205.765 131.047V141H204.445V131.047H205.765ZM211.835 137.097H209.176V136.023H211.835C212.35 136.023 212.767 135.941 213.086 135.777C213.405 135.613 213.637 135.385 213.783 135.094C213.934 134.802 214.009 134.469 214.009 134.096C214.009 133.754 213.934 133.433 213.783 133.132C213.637 132.831 213.405 132.59 213.086 132.407C212.767 132.22 212.35 132.127 211.835 132.127H209.483V141H208.164V131.047H211.835C212.587 131.047 213.223 131.177 213.742 131.437C214.262 131.696 214.656 132.056 214.925 132.517C215.194 132.972 215.328 133.494 215.328 134.082C215.328 134.72 215.194 135.265 214.925 135.716C214.656 136.167 214.262 136.511 213.742 136.748C213.223 136.98 212.587 137.097 211.835 137.097ZM220.674 131.047V141H219.375V131.047H220.674ZM223.873 131.047V132.127H216.183V131.047H223.873Z" fill="#6D6D6D"/>
	<path d="M153.25 83.75L149.75 87.25L153.25 90.75" stroke="#6D6D6D" stroke-width="2" stroke-linecap="square"/>
	<path d="M170.75 83.75L174.25 87.25L170.75 90.75" stroke="#6D6D6D" stroke-width="2" stroke-linecap="square"/>
	<path d="M158.5 94.25L165.5 80.25" stroke="#6D6D6D" stroke-width="2" stroke-linecap="square"/>
	<path d="M142.75 65.375H146.25" stroke="#6D6D6D" stroke-width="2" stroke-linecap="square" stroke-linejoin="round"/>
	<path d="M151.5 65.375H155" stroke="#6D6D6D" stroke-width="2" stroke-linecap="square" stroke-linejoin="round"/>
	<path d="M171.625 65.375H181.25" stroke="#6D6D6D" stroke-width="2" stroke-linecap="square" stroke-linejoin="round"/>
	<path d="M135.75 71.5H188.25" stroke="#6D6D6D" stroke-width="2" stroke-linecap="round" stroke-linejoin="round"/>
	<path d="M188.25 59.25H135.75V104.75H188.25V59.25Z" stroke="#6D6D6D" stroke-width="2" stroke-linecap="round"/>
</svg>
