<svg width="324" height="200" viewBox="0 0 324 200" fill="none" xmlns="http://www.w3.org/2000/svg">
	<path d="M324 0H0V200H324V0Z" fill="#F1F3F4"/>
	<path d="M137.902 131.047V141H136.576L131.565 133.323V141H130.246V131.047H131.565L136.597 138.744V131.047H137.902ZM147.903 135.709V136.338C147.903 137.085 147.81 137.755 147.623 138.348C147.436 138.94 147.167 139.444 146.816 139.858C146.465 140.273 146.044 140.59 145.552 140.809C145.064 141.027 144.517 141.137 143.911 141.137C143.323 141.137 142.783 141.027 142.291 140.809C141.803 140.59 141.38 140.273 141.02 139.858C140.664 139.444 140.388 138.94 140.192 138.348C139.996 137.755 139.898 137.085 139.898 136.338V135.709C139.898 134.962 139.994 134.294 140.186 133.706C140.381 133.114 140.657 132.61 141.013 132.195C141.368 131.776 141.79 131.457 142.277 131.238C142.77 131.02 143.31 130.91 143.897 130.91C144.504 130.91 145.05 131.02 145.538 131.238C146.03 131.457 146.452 131.776 146.803 132.195C147.158 132.61 147.429 133.114 147.616 133.706C147.808 134.294 147.903 134.962 147.903 135.709ZM146.598 136.338V135.695C146.598 135.103 146.536 134.579 146.413 134.123C146.295 133.667 146.119 133.285 145.887 132.975C145.654 132.665 145.369 132.43 145.032 132.271C144.7 132.111 144.321 132.031 143.897 132.031C143.487 132.031 143.116 132.111 142.783 132.271C142.455 132.43 142.173 132.665 141.936 132.975C141.703 133.285 141.523 133.667 141.395 134.123C141.268 134.579 141.204 135.103 141.204 135.695V136.338C141.204 136.935 141.268 137.464 141.395 137.924C141.523 138.38 141.705 138.765 141.942 139.079C142.184 139.389 142.469 139.624 142.797 139.783C143.13 139.943 143.501 140.022 143.911 140.022C144.339 140.022 144.72 139.943 145.053 139.783C145.385 139.624 145.666 139.389 145.894 139.079C146.126 138.765 146.301 138.38 146.42 137.924C146.538 137.464 146.598 136.935 146.598 136.338ZM154.767 131.047V141H153.447V131.047H154.767ZM157.583 131.047H158.861L162.122 139.161L165.376 131.047H166.661L162.614 141H161.616L157.583 131.047ZM157.166 131.047H158.294L158.478 137.117V141H157.166V131.047ZM165.943 131.047H167.071V141H165.759V137.117L165.943 131.047ZM173.196 131.929L169.901 141H168.555L172.349 131.047H173.217L173.196 131.929ZM175.958 141L172.656 131.929L172.636 131.047H173.504L177.311 141H175.958ZM175.787 137.315V138.396H170.195V137.315H175.787ZM185.918 136.044V139.688C185.795 139.87 185.599 140.075 185.33 140.303C185.061 140.526 184.69 140.722 184.216 140.891C183.746 141.055 183.14 141.137 182.397 141.137C181.791 141.137 181.233 141.032 180.723 140.822C180.217 140.608 179.777 140.298 179.403 139.893C179.034 139.482 178.747 138.986 178.542 138.402C178.341 137.814 178.241 137.149 178.241 136.406V135.634C178.241 134.891 178.328 134.228 178.501 133.645C178.679 133.061 178.938 132.567 179.28 132.161C179.622 131.751 180.041 131.441 180.538 131.231C181.035 131.017 181.604 130.91 182.247 130.91C183.008 130.91 183.644 131.042 184.154 131.307C184.669 131.566 185.07 131.926 185.357 132.387C185.649 132.847 185.836 133.371 185.918 133.959H184.599C184.539 133.599 184.421 133.271 184.243 132.975C184.07 132.678 183.822 132.441 183.498 132.264C183.174 132.081 182.757 131.99 182.247 131.99C181.787 131.99 181.388 132.075 181.051 132.243C180.714 132.412 180.436 132.653 180.217 132.968C179.998 133.282 179.834 133.663 179.725 134.109C179.62 134.556 179.567 135.06 179.567 135.62V136.406C179.567 136.98 179.633 137.493 179.766 137.944C179.902 138.396 180.096 138.781 180.347 139.1C180.597 139.414 180.896 139.653 181.242 139.817C181.593 139.981 181.98 140.063 182.404 140.063C182.874 140.063 183.254 140.025 183.546 139.947C183.838 139.865 184.065 139.77 184.229 139.66C184.394 139.546 184.519 139.439 184.605 139.339V137.11H182.302V136.044H185.918ZM194.429 139.927V141H189.158V139.927H194.429ZM189.425 131.047V141H188.105V131.047H189.425ZM193.731 135.326V136.399H189.158V135.326H193.731ZM194.36 131.047V132.127H189.158V131.047H194.36Z" fill="#6D6D6D"/>
	<path d="M185.334 63.332H138.668V100.665H185.334V63.332Z" stroke="#6D6D6D" stroke-width="2" stroke-miterlimit="10" stroke-linecap="square"/>
	<path d="M149.273 92.366L168.364 75.7734L176.849 92.366H149.273Z" stroke="#6D6D6D" stroke-width="2" stroke-miterlimit="10" stroke-linecap="square"/>
	<path d="M151.395 77.8471C153.738 77.8471 155.637 75.9899 155.637 73.6989C155.637 71.408 153.738 69.5508 151.395 69.5508C149.052 69.5508 147.152 71.408 147.152 73.6989C147.152 75.9899 149.052 77.8471 151.395 77.8471Z" fill="#6D6D6D"/>
</svg>
