<svg width="16" height="16" viewBox="0 0 16 16" fill="none" xmlns="http://www.w3.org/2000/svg">
<path fill-rule="evenodd" clip-rule="evenodd" d="M9.81311 6.3464C10.0084 6.15114 10.325 6.15114 10.5202 6.3464L14.8536 10.6797C15.0488 10.875 15.0488 11.1916 14.8536 11.3868C14.6583 11.5821 14.3417 11.5821 14.1464 11.3868L10.1667 7.40706L6.18689 11.3868C5.99162 11.5821 5.67504 11.5821 5.47978 11.3868L4.1 10.0071L1.85355 12.2535C1.65829 12.4488 1.34171 12.4488 1.14645 12.2535C0.951184 12.0582 0.951184 11.7417 1.14645 11.5464L3.74645 8.9464C3.94171 8.75114 4.25829 8.75114 4.45355 8.9464L5.83333 10.3262L9.81311 6.3464Z" fill="black"/>
<path fill-rule="evenodd" clip-rule="evenodd" d="M2.8 2C2.58783 2 2.38434 2.08429 2.23431 2.23431C2.08429 2.38434 2 2.58783 2 2.8V13.2C2 13.4122 2.08429 13.6157 2.23431 13.7657C2.38434 13.9157 2.58783 14 2.8 14H13.2C13.4122 14 13.6157 13.9157 13.7657 13.7657C13.9157 13.6157 14 13.4122 14 13.2V2.8C14 2.58783 13.9157 2.38434 13.7657 2.23431C13.6157 2.08429 13.4122 2 13.2 2H2.8ZM13.2 15H2.8C2.32261 15 1.86477 14.8104 1.52721 14.4728C1.18964 14.1352 1 13.6774 1 13.2V2.8C1 2.32261 1.18964 1.86477 1.52721 1.52721C1.86477 1.18964 2.32261 1 2.8 1H13.2C13.6774 1 14.1352 1.18964 14.4728 1.52721C14.8104 1.86477 15 2.32261 15 2.8V13.2C15 13.6774 14.8104 14.1352 14.4728 14.4728C14.1352 14.8104 13.6774 15 13.2 15Z" fill="black"/>
<path fill-rule="evenodd" clip-rule="evenodd" d="M5.39961 4.6001C4.95778 4.6001 4.59961 4.95827 4.59961 5.4001C4.59961 5.84193 4.95778 6.2001 5.39961 6.2001C5.84144 6.2001 6.19961 5.84193 6.19961 5.4001C6.19961 4.95827 5.84144 4.6001 5.39961 4.6001ZM3.59961 5.4001C3.59961 4.40599 4.4055 3.6001 5.39961 3.6001C6.39372 3.6001 7.19961 4.40599 7.19961 5.4001C7.19961 6.39421 6.39372 7.2001 5.39961 7.2001C4.4055 7.2001 3.59961 6.39421 3.59961 5.4001Z" fill="black"/>
</svg>
