<svg width="16" height="16" viewBox="0 0 16 16" fill="none" xmlns="http://www.w3.org/2000/svg">
<path fill-rule="evenodd" clip-rule="evenodd" d="M8.35316 11.8202C8.1579 12.0155 7.84132 12.0155 7.64606 11.8202L5.04606 9.22023C4.85079 9.02497 4.85079 8.70838 5.04606 8.51312C5.24132 8.31786 5.5579 8.31786 5.75316 8.51312L7.99961 10.7596L10.2461 8.51312C10.4413 8.31786 10.7579 8.31786 10.9532 8.51312C11.1484 8.70838 11.1484 9.02497 10.9532 9.22023L8.35316 11.8202Z" fill="black"/>
<path fill-rule="evenodd" clip-rule="evenodd" d="M8 11.9667C7.72386 11.9667 7.5 11.7428 7.5 11.4667L7.5 1.50001C7.5 1.22387 7.72386 1.00001 8 1.00001C8.27614 1.00001 8.5 1.22387 8.5 1.50001L8.5 11.4667C8.5 11.7428 8.27614 11.9667 8 11.9667Z" fill="black"/>
<path fill-rule="evenodd" clip-rule="evenodd" d="M2.74524 6.59155C2.79608 6.36278 2.99899 6.20001 3.23334 6.20001H5.83334C6.10948 6.20001 6.33334 6.42387 6.33334 6.70001C6.33334 6.97615 6.10948 7.20001 5.83334 7.20001H3.63442L2.12331 14H13.8767L12.3656 7.20001H10.1667C9.89053 7.20001 9.66667 6.97615 9.66667 6.70001C9.66667 6.42387 9.89053 6.20001 10.1667 6.20001H12.7667C13.001 6.20001 13.2039 6.36278 13.2548 6.59155L14.9881 14.3915C15.021 14.5396 14.9849 14.6946 14.89 14.8129C14.7951 14.9312 14.6517 15 14.5 15H1.5C1.34834 15 1.20488 14.9312 1.10998 14.8129C1.01509 14.6946 0.979011 14.5396 1.01191 14.3915L2.74524 6.59155Z" fill="black"/>
</svg>
