<svg width="16" height="16" viewBox="0 0 16 16" fill="none" xmlns="http://www.w3.org/2000/svg">
<path d="M7.99986 5.67868C8.5127 5.67868 8.92843 5.26294 8.92843 4.7501C8.92843 4.23727 8.5127 3.82153 7.99986 3.82153C7.48702 3.82153 7.07129 4.23727 7.07129 4.7501C7.07129 5.26294 7.48702 5.67868 7.99986 5.67868Z" fill="black"/>
<path fill-rule="evenodd" clip-rule="evenodd" d="M8 2C4.68629 2 2 4.68629 2 8C2 11.3137 4.68629 14 8 14C11.3137 14 14 11.3137 14 8C14 4.68629 11.3137 2 8 2ZM1 8C1 4.13401 4.13401 1 8 1C11.866 1 15 4.13401 15 8C15 11.866 11.866 15 8 15C4.13401 15 1 11.866 1 8Z" fill="black"/>
<path fill-rule="evenodd" clip-rule="evenodd" d="M8 7.5C8.27614 7.5 8.5 7.72386 8.5 8V11.7143C8.5 11.9904 8.27614 12.2143 8 12.2143C7.72386 12.2143 7.5 11.9904 7.5 11.7143V8C7.5 7.72386 7.72386 7.5 8 7.5Z" fill="black"/>
</svg>
