<svg width="16" height="16" viewBox="0 0 16 16" fill="none" xmlns="http://www.w3.org/2000/svg">
<path fill-rule="evenodd" clip-rule="evenodd" d="M5.97226 7.63003C6.17658 7.81579 6.19164 8.13201 6.00589 8.33634L5.12983 9.3L6.00589 10.2637C6.19164 10.468 6.17658 10.7842 5.97226 10.97C5.76793 11.1557 5.4517 11.1407 5.26595 10.9363L4.08413 9.63634C3.91076 9.44563 3.91076 9.15438 4.08413 8.96367L5.26595 7.66367C5.4517 7.45934 5.76793 7.44428 5.97226 7.63003Z" fill="black"/>
<path fill-rule="evenodd" clip-rule="evenodd" d="M10.0279 7.63003C10.2323 7.44428 10.5485 7.45934 10.7342 7.66367L11.916 8.96367C12.0894 9.15438 12.0894 9.44563 11.916 9.63634L10.7342 10.9363C10.5485 11.1407 10.2323 11.1557 10.0279 10.97C9.8236 10.7842 9.80854 10.468 9.99429 10.2637L10.8703 9.3L9.99429 8.33634C9.80854 8.13201 9.8236 7.81579 10.0279 7.63003Z" fill="black"/>
<path fill-rule="evenodd" clip-rule="evenodd" d="M8.70094 6.21249C8.97022 6.27369 9.1389 6.5416 9.0777 6.81087L7.89588 12.0109C7.83468 12.2801 7.56678 12.4488 7.2975 12.3876C7.02823 12.3264 6.85955 12.0585 6.92075 11.7892L8.10256 6.58925C8.16376 6.31997 8.43167 6.1513 8.70094 6.21249Z" fill="black"/>
<path fill-rule="evenodd" clip-rule="evenodd" d="M1 1.5C1 1.22386 1.22386 1 1.5 1H14.5C14.7761 1 15 1.22386 15 1.5V14.5C15 14.7761 14.7761 15 14.5 15H1.5C1.22386 15 1 14.7761 1 14.5V1.5ZM2 2V14H14V2H2Z" fill="black"/>
<path fill-rule="evenodd" clip-rule="evenodd" d="M1 4.1001C1 3.82396 1.22386 3.6001 1.5 3.6001H14.5C14.7761 3.6001 15 3.82396 15 4.1001C15 4.37624 14.7761 4.6001 14.5 4.6001H1.5C1.22386 4.6001 1 4.37624 1 4.1001Z" fill="black"/>
<path fill-rule="evenodd" clip-rule="evenodd" d="M4.4541 1C4.73024 1 4.9541 1.22386 4.9541 1.5V4.1C4.9541 4.37614 4.73024 4.6 4.4541 4.6C4.17796 4.6 3.9541 4.37614 3.9541 4.1V1.5C3.9541 1.22386 4.17796 1 4.4541 1Z" fill="black"/>
</svg>
