<svg width="16" height="16" viewBox="0 0 16 16" fill="none" xmlns="http://www.w3.org/2000/svg">
    <path fill-rule="evenodd" clip-rule="evenodd" d="M7.74275 1.08132C7.90109 0.972893 8.09891 0.972893 8.25725 1.08132L14.7572 5.53239C14.9079 5.63552 15 5.82127 15 6.02172C15 6.22217 14.9079 6.40792 14.7572 6.51105L8.25725 10.9621C8.09891 11.0705 7.90109 11.0705 7.74275 10.9621L1.24275 6.51105C1.09215 6.40792 1 6.22217 1 6.02172C1 5.82127 1.09215 5.63552 1.24275 5.53239L7.74275 1.08132ZM2.47183 6.02172L8 9.8073L13.5282 6.02172L8 2.23614L2.47183 6.02172Z" fill="black"/>
    <path fill-rule="evenodd" clip-rule="evenodd" d="M3.22875 8.79447C3.37082 9.06472 3.29404 9.41525 3.05725 9.5774L2.47183 9.97828L8 13.7639L13.5282 9.97828L12.9428 9.5774C12.706 9.41525 12.6292 9.06472 12.7713 8.79447C12.9133 8.52422 13.2205 8.43659 13.4572 8.59874L14.7572 9.48896C14.9079 9.59208 15 9.77784 15 9.97828C15 10.1787 14.9079 10.3645 14.7572 10.4676L8.25725 14.9187C8.09891 15.0271 7.90109 15.0271 7.74275 14.9187L1.24275 10.4676C1.09215 10.3645 1 10.1787 1 9.97828C1 9.77784 1.09215 9.59208 1.24275 9.48896L2.54275 8.59874C2.77954 8.43659 3.08667 8.52422 3.22875 8.79447Z" fill="black"/>
</svg>