<svg width="16" height="16" viewBox="0 0 16 16" fill="none" xmlns="http://www.w3.org/2000/svg">
<path fill-rule="evenodd" clip-rule="evenodd" d="M2.85742 1.5C2.85742 1.22386 3.08128 1 3.35742 1H12.6431C12.9193 1 13.1431 1.22386 13.1431 1.5V3.35714C13.1431 3.63329 12.9193 3.85714 12.6431 3.85714C12.367 3.85714 12.1431 3.63329 12.1431 3.35714V2H3.85742V3.35714C3.85742 3.63329 3.63356 3.85714 3.35742 3.85714C3.08128 3.85714 2.85742 3.63329 2.85742 3.35714V1.5Z" fill="#6D6D6D"/>
<path fill-rule="evenodd" clip-rule="evenodd" d="M8 1C8.27614 1 8.5 1.22386 8.5 1.5V10.7857C8.5 11.0619 8.27614 11.2857 8 11.2857C7.72386 11.2857 7.5 11.0619 7.5 10.7857V1.5C7.5 1.22386 7.72386 1 8 1Z" fill="#6D6D6D"/>
<path fill-rule="evenodd" clip-rule="evenodd" d="M5.64258 10.7856C5.64258 10.5095 5.86644 10.2856 6.14258 10.2856H9.85686C10.133 10.2856 10.3569 10.5095 10.3569 10.7856C10.3569 11.0618 10.133 11.2856 9.85686 11.2856H6.14258C5.86644 11.2856 5.64258 11.0618 5.64258 10.7856Z" fill="#6D6D6D"/>
<path fill-rule="evenodd" clip-rule="evenodd" d="M3.7107 10.3608C3.90596 10.5561 3.90596 10.8726 3.7107 11.0679L2.20711 12.5715L3.7107 14.0751C3.90596 14.2703 3.90596 14.5869 3.7107 14.7822C3.51543 14.9775 3.19885 14.9775 3.00359 14.7822L1.14645 12.9251C0.951184 12.7298 0.951184 12.4132 1.14645 12.2179L3.00359 10.3608C3.19885 10.1655 3.51543 10.1655 3.7107 10.3608Z" fill="#6D6D6D"/>
<path fill-rule="evenodd" clip-rule="evenodd" d="M12.289 10.3608C12.4843 10.1655 12.8009 10.1655 12.9961 10.3608L14.8533 12.2179C15.0485 12.4132 15.0485 12.7298 14.8533 12.9251L12.9961 14.7822C12.8009 14.9775 12.4843 14.9775 12.289 14.7822C12.0938 14.5869 12.0938 14.2703 12.289 14.0751L13.7926 12.5715L12.289 11.0679C12.0938 10.8726 12.0938 10.5561 12.289 10.3608Z" fill="#6D6D6D"/>
<path fill-rule="evenodd" clip-rule="evenodd" d="M1 12.5715C1 12.2954 1.22386 12.0715 1.5 12.0715H14.5C14.7761 12.0715 15 12.2954 15 12.5715C15 12.8477 14.7761 13.0715 14.5 13.0715H1.5C1.22386 13.0715 1 12.8477 1 12.5715Z" fill="#6D6D6D"/>
</svg>
