<svg width="16" height="16" viewBox="0 0 16 16" fill="none" xmlns="http://www.w3.org/2000/svg">
<path fill-rule="evenodd" clip-rule="evenodd" d="M5.33398 4.9668C5.33398 4.69065 5.55784 4.4668 5.83398 4.4668H14.5007C14.7768 4.4668 15.0007 4.69065 15.0007 4.9668V6.70013C15.0007 6.97627 14.7768 7.20013 14.5007 7.20013C14.2245 7.20013 14.0007 6.97627 14.0007 6.70013V5.4668H6.33398V6.70013C6.33398 6.97627 6.11013 7.20013 5.83398 7.20013C5.55784 7.20013 5.33398 6.97627 5.33398 6.70013V4.9668Z" fill="#6D6D6D"/>
<path fill-rule="evenodd" clip-rule="evenodd" d="M10.166 4.4668C10.4422 4.4668 10.666 4.69065 10.666 4.9668V13.6335C10.666 13.9096 10.4422 14.1335 10.166 14.1335C9.88987 14.1335 9.66602 13.9096 9.66602 13.6335V4.9668C9.66602 4.69065 9.88987 4.4668 10.166 4.4668Z" fill="#6D6D6D"/>
<path fill-rule="evenodd" clip-rule="evenodd" d="M7.93359 13.6333C7.93359 13.3572 8.15745 13.1333 8.43359 13.1333H11.9003C12.1764 13.1333 12.4003 13.3572 12.4003 13.6333C12.4003 13.9094 12.1764 14.1333 11.9003 14.1333H8.43359C8.15745 14.1333 7.93359 13.9094 7.93359 13.6333Z" fill="#6D6D6D"/>
<path fill-rule="evenodd" clip-rule="evenodd" d="M2.87978 1.14645C3.07504 0.951184 3.39162 0.951184 3.58689 1.14645L5.32022 2.87978C5.51548 3.07504 5.51548 3.39162 5.32022 3.58689C5.12496 3.78215 4.80838 3.78215 4.61311 3.58689L3.23333 2.20711L1.85355 3.58689C1.65829 3.78215 1.34171 3.78215 1.14645 3.58689C0.951184 3.39162 0.951184 3.07504 1.14645 2.87978L2.87978 1.14645Z" fill="#6D6D6D"/>
<path fill-rule="evenodd" clip-rule="evenodd" d="M1.14645 12.413C1.34171 12.2178 1.65829 12.2178 1.85355 12.413L3.23333 13.7928L4.61311 12.413C4.80838 12.2178 5.12496 12.2178 5.32022 12.413C5.51548 12.6083 5.51548 12.9249 5.32022 13.1202L3.58689 14.8535C3.39162 15.0488 3.07504 15.0488 2.87978 14.8535L1.14645 13.1202C0.951184 12.9249 0.951184 12.6083 1.14645 12.413Z" fill="#6D6D6D"/>
<path fill-rule="evenodd" clip-rule="evenodd" d="M3.23242 1C3.50856 1 3.73242 1.22386 3.73242 1.5V14.5C3.73242 14.7761 3.50856 15 3.23242 15C2.95628 15 2.73242 14.7761 2.73242 14.5V1.5C2.73242 1.22386 2.95628 1 3.23242 1Z" fill="#6D6D6D"/>
</svg>
