<svg width="16" height="16" viewBox="0 0 16 16" fill="none" xmlns="http://www.w3.org/2000/svg">
<path fill-rule="evenodd" clip-rule="evenodd" d="M2.8 2C2.35817 2 2 2.35817 2 2.8C2 3.24183 2.35817 3.6 2.8 3.6C3.24183 3.6 3.6 3.24183 3.6 2.8C3.6 2.35817 3.24183 2 2.8 2ZM1 2.8C1 1.80589 1.80589 1 2.8 1C3.79411 1 4.6 1.80589 4.6 2.8C4.6 3.79411 3.79411 4.6 2.8 4.6C1.80589 4.6 1 3.79411 1 2.8Z" fill="black"/>
<path fill-rule="evenodd" clip-rule="evenodd" d="M2.8 7.19995C2.35817 7.19995 2 7.55812 2 7.99995C2 8.44178 2.35817 8.79995 2.8 8.79995C3.24183 8.79995 3.6 8.44178 3.6 7.99995C3.6 7.55812 3.24183 7.19995 2.8 7.19995ZM1 7.99995C1 7.00584 1.80589 6.19995 2.8 6.19995C3.79411 6.19995 4.6 7.00584 4.6 7.99995C4.6 8.99406 3.79411 9.79995 2.8 9.79995C1.80589 9.79995 1 8.99406 1 7.99995Z" fill="black"/>
<path fill-rule="evenodd" clip-rule="evenodd" d="M2.8 12.3999C2.35817 12.3999 2 12.7581 2 13.1999C2 13.6417 2.35817 13.9999 2.8 13.9999C3.24183 13.9999 3.6 13.6417 3.6 13.1999C3.6 12.7581 3.24183 12.3999 2.8 12.3999ZM1 13.1999C1 12.2058 1.80589 11.3999 2.8 11.3999C3.79411 11.3999 4.6 12.2058 4.6 13.1999C4.6 14.194 3.79411 14.9999 2.8 14.9999C1.80589 14.9999 1 14.194 1 13.1999Z" fill="black"/>
<path fill-rule="evenodd" clip-rule="evenodd" d="M6.2002 3.2334C6.2002 2.95726 6.42405 2.7334 6.7002 2.7334H14.5002C14.7763 2.7334 15.0002 2.95726 15.0002 3.2334C15.0002 3.50954 14.7763 3.7334 14.5002 3.7334H6.7002C6.42405 3.7334 6.2002 3.50954 6.2002 3.2334Z" fill="black"/>
<path fill-rule="evenodd" clip-rule="evenodd" d="M6.2002 8.43335C6.2002 8.15721 6.42405 7.93335 6.7002 7.93335H14.5002C14.7763 7.93335 15.0002 8.15721 15.0002 8.43335C15.0002 8.70949 14.7763 8.93335 14.5002 8.93335H6.7002C6.42405 8.93335 6.2002 8.70949 6.2002 8.43335Z" fill="black"/>
<path fill-rule="evenodd" clip-rule="evenodd" d="M6.2002 13.6333C6.2002 13.3572 6.42405 13.1333 6.7002 13.1333H14.5002C14.7763 13.1333 15.0002 13.3572 15.0002 13.6333C15.0002 13.9094 14.7763 14.1333 14.5002 14.1333H6.7002C6.42405 14.1333 6.2002 13.9094 6.2002 13.6333Z" fill="black"/>
</svg>
