<svg width="16" height="16" viewBox="0 0 16 16" fill="none" xmlns="http://www.w3.org/2000/svg">
<path fill-rule="evenodd" clip-rule="evenodd" d="M3.2319 7.2002C3.13466 7.2002 3.04139 7.23883 2.97263 7.30759C2.90387 7.37635 2.86523 7.46962 2.86523 7.56686V13.6335C2.86523 13.7308 2.90387 13.824 2.97263 13.8928C3.04139 13.9616 3.13466 14.0002 3.2319 14.0002H12.7652C12.8625 14.0002 12.9557 13.9616 13.0245 13.8928C13.0933 13.824 13.1319 13.7308 13.1319 13.6335V7.56686C13.1319 7.46962 13.0933 7.37635 13.0245 7.30759C12.9557 7.23883 12.8625 7.2002 12.7652 7.2002H3.2319ZM2.26552 6.60048C2.52182 6.34418 2.86944 6.2002 3.2319 6.2002H12.7652C13.1277 6.2002 13.4753 6.34418 13.7316 6.60048C13.9879 6.85678 14.1319 7.2044 14.1319 7.56686V13.6335C14.1319 13.996 13.9879 14.3436 13.7316 14.5999C13.4753 14.8562 13.1277 15.0002 12.7652 15.0002H3.2319C2.86944 15.0002 2.52182 14.8562 2.26552 14.5999C2.00922 14.3436 1.86523 13.996 1.86523 13.6335V7.56686C1.86523 7.2044 2.00922 6.85678 2.26552 6.60048Z" fill="black"/>
<path fill-rule="evenodd" clip-rule="evenodd" d="M7.99818 2C7.3263 2 6.68193 2.2669 6.20684 2.742C5.73175 3.21709 5.46484 3.86145 5.46484 4.53333V6.7C5.46484 6.97614 5.24099 7.2 4.96484 7.2C4.6887 7.2 4.46484 6.97614 4.46484 6.7V4.53333C4.46484 3.59623 4.8371 2.69752 5.49973 2.03489C6.16236 1.37226 7.06108 1 7.99818 1C8.93528 1 9.83399 1.37226 10.4966 2.03489C11.1592 2.69752 11.5315 3.59623 11.5315 4.53333V6.7C11.5315 6.97614 11.3077 7.2 11.0315 7.2C10.7554 7.2 10.5315 6.97614 10.5315 6.7V4.53333C10.5315 3.86145 10.2646 3.21709 9.78951 2.742C9.31442 2.2669 8.67006 2 7.99818 2Z" fill="black"/>
<path fill-rule="evenodd" clip-rule="evenodd" d="M7.99922 9.7998C7.55739 9.7998 7.19922 10.158 7.19922 10.5998C7.19922 11.0416 7.55739 11.3998 7.99922 11.3998C8.44105 11.3998 8.79922 11.0416 8.79922 10.5998C8.79922 10.158 8.44105 9.7998 7.99922 9.7998ZM6.19922 10.5998C6.19922 9.60569 7.00511 8.7998 7.99922 8.7998C8.99333 8.7998 9.79922 9.60569 9.79922 10.5998C9.79922 11.5939 8.99333 12.3998 7.99922 12.3998C7.00511 12.3998 6.19922 11.5939 6.19922 10.5998Z" fill="black"/>
</svg>
