<svg width="16" height="16" viewBox="0 0 16 16" fill="none" xmlns="http://www.w3.org/2000/svg">
<path fill-rule="evenodd" clip-rule="evenodd" d="M6.19922 1.5C6.19922 1.22386 6.42308 1 6.69922 1H14.4992C14.7754 1 14.9992 1.22386 14.9992 1.5V14.5C14.9992 14.7761 14.7754 15 14.4992 15H6.69922C6.42308 15 6.19922 14.7761 6.19922 14.5V1.5ZM7.19922 2V14H13.9992V2H7.19922Z" fill="black"/>
<path fill-rule="evenodd" clip-rule="evenodd" d="M1 4.9668C1 4.69065 1.22386 4.4668 1.5 4.4668H4.1C4.37614 4.4668 4.6 4.69065 4.6 4.9668C4.6 5.24294 4.37614 5.4668 4.1 5.4668H2V10.5335H4.1C4.37614 10.5335 4.6 10.7573 4.6 11.0335C4.6 11.3096 4.37614 11.5335 4.1 11.5335H1.5C1.22386 11.5335 1 11.3096 1 11.0335V4.9668Z" fill="black"/>
<path fill-rule="evenodd" clip-rule="evenodd" d="M6.19922 4.9668C6.19922 4.69065 6.42308 4.4668 6.69922 4.4668H10.1659C10.442 4.4668 10.6659 4.69065 10.6659 4.9668V11.0335C10.6659 11.3096 10.442 11.5335 10.1659 11.5335H6.69922C6.42308 11.5335 6.19922 11.3096 6.19922 11.0335C6.19922 10.7573 6.42308 10.5335 6.69922 10.5335H9.66589V5.4668H6.69922C6.42308 5.4668 6.19922 5.24294 6.19922 4.9668Z" fill="black"/>
</svg>
