<svg width="16" height="16" viewBox="0 0 16 16" fill="none" xmlns="http://www.w3.org/2000/svg">
<path fill-rule="evenodd" clip-rule="evenodd" d="M3.60059 4.09985C3.60059 3.82371 3.82444 3.59985 4.10059 3.59985H4.96725C5.24339 3.59985 5.46725 3.82371 5.46725 4.09985C5.46725 4.376 5.24339 4.59985 4.96725 4.59985H4.10059C3.82444 4.59985 3.60059 4.376 3.60059 4.09985Z" fill="black"/>
<path fill-rule="evenodd" clip-rule="evenodd" d="M7.06641 4.09985C7.06641 3.82371 7.29026 3.59985 7.56641 3.59985H8.43307C8.70922 3.59985 8.93307 3.82371 8.93307 4.09985C8.93307 4.376 8.70922 4.59985 8.43307 4.59985H7.56641C7.29026 4.59985 7.06641 4.376 7.06641 4.09985Z" fill="black"/>
<path fill-rule="evenodd" clip-rule="evenodd" d="M10.5342 4.09985C10.5342 3.82371 10.758 3.59985 11.0342 3.59985H11.9008C12.177 3.59985 12.4008 3.82371 12.4008 4.09985C12.4008 4.376 12.177 4.59985 11.9008 4.59985H11.0342C10.758 4.59985 10.5342 4.376 10.5342 4.09985Z" fill="black"/>
<path fill-rule="evenodd" clip-rule="evenodd" d="M3.60059 11.9001C3.60059 11.624 3.82444 11.4001 4.10059 11.4001H4.96725C5.24339 11.4001 5.46725 11.624 5.46725 11.9001C5.46725 12.1763 5.24339 12.4001 4.96725 12.4001H4.10059C3.82444 12.4001 3.60059 12.1763 3.60059 11.9001Z" fill="black"/>
<path fill-rule="evenodd" clip-rule="evenodd" d="M7.06641 11.9001C7.06641 11.624 7.29026 11.4001 7.56641 11.4001H8.43307C8.70922 11.4001 8.93307 11.624 8.93307 11.9001C8.93307 12.1763 8.70922 12.4001 8.43307 12.4001H7.56641C7.29026 12.4001 7.06641 12.1763 7.06641 11.9001Z" fill="black"/>
<path fill-rule="evenodd" clip-rule="evenodd" d="M10.5342 11.9001C10.5342 11.624 10.758 11.4001 11.0342 11.4001H11.9008C12.177 11.4001 12.4008 11.624 12.4008 11.9001C12.4008 12.1763 12.177 12.4001 11.9008 12.4001H11.0342C10.758 12.4001 10.5342 12.1763 10.5342 11.9001Z" fill="black"/>
<path fill-rule="evenodd" clip-rule="evenodd" d="M6.45683 5.39593C6.61581 5.30782 6.81008 5.31292 6.96422 5.40925L10.4309 7.57592C10.5771 7.66729 10.6659 7.82752 10.6659 7.99992C10.6659 8.17231 10.5771 8.33255 10.4309 8.42392L6.96422 10.5906C6.81008 10.6869 6.61581 10.692 6.45683 10.6039C6.29786 10.5158 6.19922 10.3483 6.19922 10.1666V5.83325C6.19922 5.65149 6.29786 5.48404 6.45683 5.39593ZM7.19922 6.73538V9.26446L9.22249 7.99992L7.19922 6.73538Z" fill="black"/>
<path fill-rule="evenodd" clip-rule="evenodd" d="M2.36667 2C2.16441 2 2 2.16441 2 2.36667V13.6333C2 13.8356 2.16441 14 2.36667 14H13.6333C13.8356 14 14 13.8356 14 13.6333V2.36667C14 2.16441 13.8356 2 13.6333 2H2.36667ZM1 2.36667C1 1.61212 1.61212 1 2.36667 1H13.6333C14.3879 1 15 1.61212 15 2.36667V13.6333C15 14.3879 14.3879 15 13.6333 15H2.36667C1.61212 15 1 14.3879 1 13.6333V2.36667Z" fill="black"/>
</svg>
