<svg width="16" height="16" viewBox="0 0 16 16" fill="none" xmlns="http://www.w3.org/2000/svg">
<path fill-rule="evenodd" clip-rule="evenodd" d="M4.5 11.5C4.5 11.2239 4.72386 11 5 11H11C11.2761 11 11.5 11.2239 11.5 11.5C11.5 11.7761 11.2761 12 11 12H5C4.72386 12 4.5 11.7761 4.5 11.5Z" fill="black"/>
<path fill-rule="evenodd" clip-rule="evenodd" d="M3.90909 2C3.66037 2 3.5 2.18641 3.5 2.36667V13.6333C3.5 13.8136 3.66037 14 3.90909 14H12.0909C12.3396 14 12.5 13.8136 12.5 13.6333V2.36667C12.5 2.18641 12.3396 2 12.0909 2H3.90909ZM2.5 2.36667C2.5 1.58963 3.15366 1 3.90909 1H12.0909C12.8463 1 13.5 1.58963 13.5 2.36667V13.6333C13.5 14.4104 12.8463 15 12.0909 15H3.90909C3.15366 15 2.5 14.4104 2.5 13.6333V2.36667Z" fill="black"/>
</svg>
