<svg width="16" height="16" viewBox="0 0 16 16" fill="none" xmlns="http://www.w3.org/2000/svg">
<path fill-rule="evenodd" clip-rule="evenodd" d="M8 1C8.27614 1 8.5 1.22386 8.5 1.5V14.5C8.5 14.7761 8.27614 15 8 15C7.72386 15 7.5 14.7761 7.5 14.5V1.5C7.5 1.22386 7.72386 1 8 1Z" fill="black"/>
<path fill-rule="evenodd" clip-rule="evenodd" d="M7.64612 1.14645C7.84138 0.951184 8.15797 0.951184 8.35323 1.14645L10.5199 3.31311C10.7152 3.50838 10.7152 3.82496 10.5199 4.02022C10.3246 4.21548 10.0081 4.21548 9.81279 4.02022L7.99967 2.20711L6.18656 4.02022C5.9913 4.21548 5.67472 4.21548 5.47945 4.02022C5.28419 3.82496 5.28419 3.50838 5.47945 3.31311L7.64612 1.14645Z" fill="black"/>
<path fill-rule="evenodd" clip-rule="evenodd" d="M5.47945 11.9797C5.67472 11.7844 5.9913 11.7844 6.18656 11.9797L7.99967 13.7928L9.81279 11.9797C10.0081 11.7844 10.3246 11.7844 10.5199 11.9797C10.7152 12.175 10.7152 12.4915 10.5199 12.6868L8.35323 14.8535C8.15797 15.0487 7.84138 15.0487 7.64612 14.8535L5.47945 12.6868C5.28419 12.4915 5.28419 12.175 5.47945 11.9797Z" fill="black"/>
<path fill-rule="evenodd" clip-rule="evenodd" d="M1 8C1 7.72386 1.22386 7.5 1.5 7.5H14.5C14.7761 7.5 15 7.72386 15 8C15 8.27614 14.7761 8.5 14.5 8.5H1.5C1.22386 8.5 1 8.27614 1 8Z" fill="black"/>
<path fill-rule="evenodd" clip-rule="evenodd" d="M4.02022 5.4797C4.21548 5.67496 4.21548 5.99154 4.02022 6.18681L2.20711 7.99992L4.02022 9.81303C4.21548 10.0083 4.21548 10.3249 4.02022 10.5201C3.82496 10.7154 3.50838 10.7154 3.31311 10.5201L1.14645 8.35347C0.951184 8.15821 0.951184 7.84163 1.14645 7.64637L3.31311 5.4797C3.50838 5.28444 3.82496 5.28444 4.02022 5.4797Z" fill="black"/>
<path fill-rule="evenodd" clip-rule="evenodd" d="M11.9795 5.4797C12.1747 5.28444 12.4913 5.28444 12.6866 5.4797L14.8532 7.64637C15.0485 7.84163 15.0485 8.15821 14.8532 8.35347L12.6866 10.5201C12.4913 10.7154 12.1747 10.7154 11.9795 10.5201C11.7842 10.3249 11.7842 10.0083 11.9795 9.81303L13.7926 7.99992L11.9795 6.18681C11.7842 5.99154 11.7842 5.67496 11.9795 5.4797Z" fill="black"/>
</svg>
