<svg width="16" height="16" viewBox="0 0 16 16" fill="none" xmlns="http://www.w3.org/2000/svg">
<path fill-rule="evenodd" clip-rule="evenodd" d="M5.0332 11.0333C5.0332 12.6717 6.36155 14 7.99987 14C9.63819 14 10.9665 12.6717 10.9665 11.0333L10.9665 10.1667C10.9665 9.89052 11.1904 9.66667 11.4665 9.66667C11.7427 9.66667 11.9665 9.89052 11.9665 10.1667L11.9665 11.0333C11.9665 13.2239 10.1905 15 7.99987 15C5.80926 15 4.0332 13.2239 4.0332 11.0333L4.0332 10.1667C4.0332 9.89052 4.25706 9.66667 4.5332 9.66667C4.80935 9.66667 5.0332 9.89052 5.0332 10.1667L5.0332 11.0333Z" fill="black"/>
<path fill-rule="evenodd" clip-rule="evenodd" d="M4.5332 6.33325C4.25706 6.33325 4.0332 6.10939 4.0332 5.83325L4.0332 4.96659C4.0332 2.77598 5.80926 0.999918 7.99987 0.999918C10.1905 0.999918 11.9665 2.77598 11.9665 4.96658L11.9665 5.83325C11.9665 6.10939 11.7427 6.33325 11.4665 6.33325C11.1904 6.33325 10.9665 6.10939 10.9665 5.83325L10.9665 4.96658C10.9665 3.32826 9.63819 1.99992 7.99987 1.99992C6.36155 1.99992 5.0332 3.32826 5.0332 4.96659L5.0332 5.83325C5.0332 6.10939 4.80935 6.33325 4.5332 6.33325Z" fill="black"/>
</svg>
