<svg width="16" height="16" viewBox="0 0 16 16" fill="none" xmlns="http://www.w3.org/2000/svg">
<path fill-rule="evenodd" clip-rule="evenodd" d="M3.6 5.4C3.6 2.97019 5.57019 1 8 1C10.4298 1 12.4 2.97019 12.4 5.4V5.65653C12.4 6.71309 12.9623 7.69369 13.8748 8.21607L13.8753 8.21638C14.4631 8.55381 15 9.0521 15 9.73333C15 10.2514 14.6846 10.6653 14.2987 10.9695C13.9071 11.2781 13.3715 11.5341 12.7543 11.7398C11.5145 12.153 9.83364 12.4 8 12.4C6.16636 12.4 4.4855 12.153 3.24575 11.7398C2.62849 11.5341 2.09289 11.2781 1.70133 10.9695C1.31539 10.6653 1 10.2514 1 9.73333C1 9.0521 1.5369 8.55381 2.12466 8.21638L2.12493 8.21622C3.03785 7.69286 3.6 6.71289 3.6 5.65653V5.4ZM8 2C6.12248 2 4.6 3.52248 4.6 5.4V5.65653C4.6 7.06671 3.85002 8.37993 2.62227 9.08377C2.0992 9.38413 2 9.62418 2 9.73333C2 9.81371 2.04839 9.9698 2.32031 10.1841C2.58661 10.394 3.00293 10.6048 3.56195 10.7911C4.67477 11.1621 6.24391 11.4 8 11.4C9.75609 11.4 11.3252 11.1621 12.438 10.7911C12.9971 10.6048 13.4134 10.394 13.6797 10.1841C13.9516 9.9698 14 9.81371 14 9.73333C14 9.62416 13.9008 9.38405 13.3775 9.08362L13.6262 8.65029L13.378 9.08393C12.1498 8.38084 11.4 7.06651 11.4 5.65653V5.4C11.4 3.52248 9.87752 2 8 2Z" fill="black"/>
<path fill-rule="evenodd" clip-rule="evenodd" d="M10.1859 12.7419C10.4389 12.8525 10.5544 13.1473 10.4438 13.4004C10.0325 14.3411 9.0934 15.0001 7.99922 15.0001C6.90482 15.0001 5.96699 14.3409 5.55496 13.4018C5.444 13.149 5.55905 12.854 5.81192 12.7431C6.06479 12.6321 6.35973 12.7472 6.47069 13C6.72945 13.5898 7.31696 14.0001 7.99922 14.0001C8.68171 14.0001 9.26964 13.5896 9.52748 12.9998C9.63809 12.7468 9.93287 12.6313 10.1859 12.7419Z" fill="black"/>
</svg>
