<svg width="16" height="16" viewBox="0 0 16 16" fill="none" xmlns="http://www.w3.org/2000/svg">
<path fill-rule="evenodd" clip-rule="evenodd" d="M14.5 1C14.7761 1 15 1.22386 15 1.5L15 3.74138C15 4.01752 14.7761 4.24138 14.5 4.24138L1.49997 4.24138C1.22382 4.24138 0.999966 4.01752 0.999967 3.74138L0.999967 1.5C0.999967 1.22386 1.22382 0.999999 1.49997 0.999999C1.77611 0.999999 1.99997 1.22386 1.99997 1.5L1.99997 3.24138L14 3.24138L14 1.5C14 1.22386 14.2239 1 14.5 1Z" fill="black"/>
<path fill-rule="evenodd" clip-rule="evenodd" d="M14.5 15C14.7761 15 15 14.7761 15 14.5L15 12.2586C15 11.9825 14.7761 11.7586 14.5 11.7586L1.49997 11.7586C1.22382 11.7586 0.999967 11.9825 0.999967 12.2586L0.999967 14.5C0.999967 14.7761 1.22382 15 1.49997 15C1.77611 15 1.99997 14.7761 1.99997 14.5L1.99997 12.7586L14 12.7586L14 14.5C14 14.7761 14.2239 15 14.5 15Z" fill="black"/>
<path fill-rule="evenodd" clip-rule="evenodd" d="M11.7998 8.22412C11.7998 8.50026 11.5963 8.72412 11.3453 8.72412L4.25435 8.72412C4.00331 8.72412 3.7998 8.50026 3.7998 8.22412C3.7998 7.94798 4.00331 7.72412 4.25435 7.72412L11.3453 7.72412C11.5963 7.72412 11.7998 7.94798 11.7998 8.22412Z" fill="black"/>
</svg>
