<svg width="16" height="16" viewBox="0 0 16 16" fill="none" xmlns="http://www.w3.org/2000/svg">
<path fill-rule="evenodd" clip-rule="evenodd" d="M1 1.5C1 1.22386 1.22386 1 1.5 1H3.74138C4.01752 1 4.24138 1.22386 4.24138 1.5V14.5C4.24138 14.7761 4.01752 15 3.74138 15H1.5C1.22386 15 1 14.7761 1 14.5C1 14.2239 1.22386 14 1.5 14H3.24138V2H1.5C1.22386 2 1 1.77614 1 1.5Z" fill="black"/>
<path fill-rule="evenodd" clip-rule="evenodd" d="M15 1.5C15 1.22386 14.7761 1 14.5 1H12.2586C11.9825 1 11.7586 1.22386 11.7586 1.5V14.5C11.7586 14.7761 11.9825 15 12.2586 15H14.5C14.7761 15 15 14.7761 15 14.5C15 14.2239 14.7761 14 14.5 14H12.7586V2H14.5C14.7761 2 15 1.77614 15 1.5Z" fill="black"/>
<path fill-rule="evenodd" clip-rule="evenodd" d="M8.22461 4.1665C8.50075 4.1665 8.72461 4.37001 8.72461 4.62105L8.72461 11.712C8.72461 11.963 8.50075 12.1665 8.22461 12.1665C7.94847 12.1665 7.72461 11.963 7.72461 11.712L7.72461 4.62105C7.72461 4.37001 7.94847 4.1665 8.22461 4.1665Z" fill="black"/>
</svg>
