<svg width="16" height="16" viewBox="0 0 16 16" fill="none" xmlns="http://www.w3.org/2000/svg">
<path fill-rule="evenodd" clip-rule="evenodd" d="M1.5 1.07715C1.5 0.801006 1.72386 0.577148 2 0.577148H14C14.2761 0.577148 14.5 0.801006 14.5 1.07715V14.9233C14.5 15.1994 14.2761 15.4233 14 15.4233H2C1.72386 15.4233 1.5 15.1994 1.5 14.9233V1.07715ZM2.5 1.57715V14.4233H13.5V1.57715H2.5Z" fill="black"/>
<path fill-rule="evenodd" clip-rule="evenodd" d="M4.26953 3.84619C4.26953 3.57005 4.49339 3.34619 4.76953 3.34619H11.2311C11.5072 3.34619 11.7311 3.57005 11.7311 3.84619C11.7311 4.12233 11.5072 4.34619 11.2311 4.34619H4.76953C4.49339 4.34619 4.26953 4.12233 4.26953 3.84619Z" fill="black"/>
<path fill-rule="evenodd" clip-rule="evenodd" d="M4.26953 6.61523C4.26953 6.33909 4.49339 6.11523 4.76953 6.11523H11.2311C11.5072 6.11523 11.7311 6.33909 11.7311 6.61523C11.7311 6.89138 11.5072 7.11523 11.2311 7.11523H4.76953C4.49339 7.11523 4.26953 6.89138 4.26953 6.61523Z" fill="black"/>
<path fill-rule="evenodd" clip-rule="evenodd" d="M4.26953 9.38477C4.26953 9.10862 4.49339 8.88477 4.76953 8.88477H11.2311C11.5072 8.88477 11.7311 9.10862 11.7311 9.38477C11.7311 9.66091 11.5072 9.88477 11.2311 9.88477H4.76953C4.49339 9.88477 4.26953 9.66091 4.26953 9.38477Z" fill="black"/>
<path fill-rule="evenodd" clip-rule="evenodd" d="M4.26953 12.1538C4.26953 11.8777 4.49339 11.6538 4.76953 11.6538H7.53876C7.8149 11.6538 8.03876 11.8777 8.03876 12.1538C8.03876 12.43 7.8149 12.6538 7.53876 12.6538H4.76953C4.49339 12.6538 4.26953 12.43 4.26953 12.1538Z" fill="black"/>
</svg>
