<svg width="16" height="16" viewBox="0 0 16 16" fill="none" xmlns="http://www.w3.org/2000/svg">
<path fill-rule="evenodd" clip-rule="evenodd" d="M1 2.5C1 2.22386 1.22386 2 1.5 2H14.5C14.7761 2 15 2.22386 15 2.5C15 2.77614 14.7761 3 14.5 3H1.5C1.22386 3 1 2.77614 1 2.5Z" fill="black"/>
<path fill-rule="evenodd" clip-rule="evenodd" d="M1 6.16675C1 5.89061 1.22386 5.66675 1.5 5.66675H9.3C9.57614 5.66675 9.8 5.89061 9.8 6.16675C9.8 6.44289 9.57614 6.66675 9.3 6.66675H1.5C1.22386 6.66675 1 6.44289 1 6.16675Z" fill="black"/>
<path fill-rule="evenodd" clip-rule="evenodd" d="M1 9.83325C1 9.55711 1.22386 9.33325 1.5 9.33325H14.5C14.7761 9.33325 15 9.55711 15 9.83325C15 10.1094 14.7761 10.3333 14.5 10.3333H1.5C1.22386 10.3333 1 10.1094 1 9.83325Z" fill="black"/>
<path fill-rule="evenodd" clip-rule="evenodd" d="M1 13.5C1 13.2239 1.22386 13 1.5 13H9.3C9.57614 13 9.8 13.2239 9.8 13.5C9.8 13.7761 9.57614 14 9.3 14H1.5C1.22386 14 1 13.7761 1 13.5Z" fill="black"/>
</svg>
