<svg width="16" height="16" viewBox="0 0 16 16" fill="none" xmlns="http://www.w3.org/2000/svg">
<path fill-rule="evenodd" clip-rule="evenodd" d="M2.5 2.43311C2.35669 2.43311 2.22559 2.48656 2.13405 2.572C2.04368 2.65635 2 2.76308 2 2.86644V14.0664C2 14.1698 2.04368 14.2765 2.13405 14.3609C2.22559 14.4463 2.35669 14.4998 2.5 14.4998H13.5C13.6433 14.4998 13.7744 14.4463 13.8659 14.3609C13.9563 14.2765 14 14.1698 14 14.0664V2.86644C14 2.76308 13.9563 2.65635 13.8659 2.572C13.7744 2.48656 13.6433 2.43311 13.5 2.43311H12.5C12.2239 2.43311 12 2.20925 12 1.93311C12 1.65696 12.2239 1.43311 12.5 1.43311H13.5C13.8871 1.43311 14.2647 1.57632 14.5483 1.84094C14.833 2.10666 15 2.47473 15 2.86644V14.0664C15 14.4582 14.833 14.8262 14.5483 15.0919C14.2647 15.3566 13.8871 15.4998 13.5 15.4998H2.5C2.11288 15.4998 1.73527 15.3566 1.45173 15.0919C1.16704 14.8262 1 14.4582 1 14.0664V2.86644C1 2.47473 1.16704 2.10666 1.45173 1.84094C1.73527 1.57632 2.11288 1.43311 2.5 1.43311H3.5C3.77614 1.43311 4 1.65696 4 1.93311C4 2.20925 3.77614 2.43311 3.5 2.43311H2.5Z" fill="black"/>
<path fill-rule="evenodd" clip-rule="evenodd" d="M5 1C5 0.723858 5.22386 0.5 5.5 0.5H10.5C10.7761 0.5 11 0.723858 11 1V2.86667C11 3.14281 10.7761 3.36667 10.5 3.36667H5.5C5.22386 3.36667 5 3.14281 5 2.86667V1ZM6 1.5V2.36667H10V1.5H6Z" fill="black"/>
<path fill-rule="evenodd" clip-rule="evenodd" d="M4 6.6001C4 6.32396 4.22386 6.1001 4.5 6.1001H11.5C11.7761 6.1001 12 6.32396 12 6.6001C12 6.87624 11.7761 7.1001 11.5 7.1001H4.5C4.22386 7.1001 4 6.87624 4 6.6001Z" fill="black"/>
<path fill-rule="evenodd" clip-rule="evenodd" d="M4 9.3999C4 9.12376 4.22386 8.8999 4.5 8.8999H11.5C11.7761 8.8999 12 9.12376 12 9.3999C12 9.67604 11.7761 9.8999 11.5 9.8999H4.5C4.22386 9.8999 4 9.67604 4 9.3999Z" fill="black"/>
<path fill-rule="evenodd" clip-rule="evenodd" d="M4 12.2002C4 11.9241 4.22386 11.7002 4.5 11.7002H11.5C11.7761 11.7002 12 11.9241 12 12.2002C12 12.4763 11.7761 12.7002 11.5 12.7002H4.5C4.22386 12.7002 4 12.4763 4 12.2002Z" fill="black"/>
</svg>
