<svg width="16" height="16" viewBox="0 0 16 16" fill="none" xmlns="http://www.w3.org/2000/svg">
<path fill-rule="evenodd" clip-rule="evenodd" d="M7.13301 8.06665C6.69118 8.06665 6.33301 8.42482 6.33301 8.86665C6.33301 9.30848 6.69118 9.66665 7.13301 9.66665C7.57484 9.66665 7.93301 9.30848 7.93301 8.86665C7.93301 8.42482 7.57484 8.06665 7.13301 8.06665ZM5.33301 8.86665C5.33301 7.87254 6.1389 7.06665 7.13301 7.06665C8.12712 7.06665 8.93301 7.87254 8.93301 8.86665C8.93301 9.86076 8.12712 10.6667 7.13301 10.6667C6.1389 10.6667 5.33301 9.86076 5.33301 8.86665Z" fill="black"/>
<path fill-rule="evenodd" clip-rule="evenodd" d="M6.56822 9.43185C6.76348 9.62711 6.76348 9.94369 6.56822 10.139L1.85355 14.8536C1.65829 15.0489 1.34171 15.0489 1.14645 14.8536C0.951184 14.6584 0.951184 14.3418 1.14645 14.1465L5.86111 9.43185C6.05638 9.23658 6.37296 9.23658 6.56822 9.43185Z" fill="black"/>
<path fill-rule="evenodd" clip-rule="evenodd" d="M7.21285 1.14645C7.40811 0.951184 7.7247 0.951184 7.91996 1.14645L14.8533 8.07978C15.0486 8.27504 15.0486 8.59162 14.8533 8.78689C14.658 8.98215 14.3414 8.98215 14.1462 8.78689L7.21285 1.85355C7.01759 1.65829 7.01759 1.34171 7.21285 1.14645Z" fill="black"/>
<path fill-rule="evenodd" clip-rule="evenodd" d="M9.78077 3.09592C9.85663 3.36144 9.70288 3.63818 9.43737 3.71404L3.66966 5.36196L2.12114 13.8788L10.638 12.3303L12.2859 6.56259C12.3618 6.29707 12.6385 6.14333 12.904 6.21919C13.1696 6.29505 13.3233 6.57179 13.2474 6.83731L11.5141 12.904C11.4618 13.087 11.3101 13.2245 11.1228 13.2586L1.58945 14.9919C1.42802 15.0212 1.26247 14.9695 1.14645 14.8535C1.03044 14.7375 0.978722 14.5719 1.00807 14.4105L2.74141 4.87717C2.77546 4.68987 2.91293 4.53815 3.09598 4.48585L9.16265 2.75252C9.42816 2.67666 9.70491 2.8304 9.78077 3.09592Z" fill="black"/>
</svg>
