<svg width="129" height="65" viewBox="0 0 129 65" fill="none" xmlns="http://www.w3.org/2000/svg">
<path d="M127 0H2C0.89543 0 0 0.89543 0 2V63C0 64.1046 0.89543 65 2 65H127C128.105 65 129 64.1046 129 63V2C129 0.89543 128.105 0 127 0Z" fill="#F1F3F4"/>
<path d="M84 4H45V7H84V4Z" fill="#D9D9D9"/>
<path d="M26.7 13H5.3C5.13431 13 5 13.1343 5 13.3V14.7C5 14.8657 5.13431 15 5.3 15H26.7C26.8657 15 27 14.8657 27 14.7V13.3C27 13.1343 26.8657 13 26.7 13Z" fill="#D9D9D9"/>
<path d="M52.7 20H8.3C8.13431 20 8 20.1343 8 20.3V20.7C8 20.8657 8.13431 21 8.3 21H52.7C52.8657 21 53 20.8657 53 20.7V20.3C53 20.1343 52.8657 20 52.7 20Z" fill="#D9D9D9"/>
<path d="M60.7 16.75H5.3C4.99624 16.75 4.75 16.9962 4.75 17.3V23.7C4.75 24.0038 4.99624 24.25 5.3 24.25H60.7C61.0038 24.25 61.25 24.0038 61.25 23.7V17.3C61.25 16.9962 61.0038 16.75 60.7 16.75Z" stroke="#D0D0D0" stroke-width="0.5"/>
<path d="M91.7 13H70.3C70.1343 13 70 13.1343 70 13.3V14.7C70 14.8657 70.1343 15 70.3 15H91.7C91.8657 15 92 14.8657 92 14.7V13.3C92 13.1343 91.8657 13 91.7 13Z" fill="#D9D9D9"/>
<path d="M117.7 20H73.3C73.1343 20 73 20.1343 73 20.3V20.7C73 20.8657 73.1343 21 73.3 21H117.7C117.866 21 118 20.8657 118 20.7V20.3C118 20.1343 117.866 20 117.7 20Z" fill="#D9D9D9"/>
<path d="M125.7 16.75H70.3C69.9962 16.75 69.75 16.9962 69.75 17.3V23.7C69.75 24.0038 69.9962 24.25 70.3 24.25H125.7C126.004 24.25 126.25 24.0038 126.25 23.7V17.3C126.25 16.9962 126.004 16.75 125.7 16.75Z" stroke="#D0D0D0" stroke-width="0.5"/>
<path d="M13.4159 29H6C5.44772 29 5 29.4477 5 30V37.4159C5 37.9682 5.44772 38.4159 6 38.4159H13.4159C13.9682 38.4159 14.4159 37.9682 14.4159 37.4159V30C14.4159 29.4477 13.9682 29 13.4159 29Z" fill="#D0D0D0"/>
<path d="M37.6557 30.3452H16.7336C16.5679 30.3452 16.4336 30.4795 16.4336 30.6452V32.0629C16.4336 32.2286 16.5679 32.3629 16.7336 32.3629H37.6557C37.8214 32.3629 37.9557 32.2286 37.9557 32.0629V30.6452C37.9557 30.4795 37.8214 30.3452 37.6557 30.3452Z" fill="#D0D0D0"/>
<path d="M45.7265 33.0352H16.7336C16.5679 33.0352 16.4336 33.1695 16.4336 33.3352V34.0803C16.4336 34.246 16.5679 34.3803 16.7336 34.3803H45.7265C45.8922 34.3803 46.0265 34.246 46.0265 34.0803V33.3352C46.0265 33.1695 45.8922 33.0352 45.7265 33.0352Z" fill="#D0D0D0"/>
<path d="M80.7 31.0176H69.8664C69.7007 31.0176 69.5664 31.1519 69.5664 31.3176V32.7353C69.5664 32.901 69.7007 33.0353 69.8664 33.0353H80.7C80.8657 33.0353 81 32.901 81 32.7353V31.3176C81 31.1519 80.8657 31.0176 80.7 31.0176Z" fill="#D9D9D9"/>
<path d="M125.7 31H123.3C123.134 31 123 31.1343 123 31.3V32.7C123 32.8657 123.134 33 123.3 33H125.7C125.866 33 126 32.8657 126 32.7V31.3C126 31.1343 125.866 31 125.7 31Z" fill="#D9D9D9"/>
<path d="M5 40.9H126" stroke="#D0D0D0" stroke-width="0.2"/>
<path d="M13.4159 44H6C5.44772 44 5 44.4477 5 45V52.4159C5 52.9682 5.44772 53.4159 6 53.4159H13.4159C13.9682 53.4159 14.4159 52.9682 14.4159 52.4159V45C14.4159 44.4477 13.9682 44 13.4159 44Z" fill="#D0D0D0"/>
<path d="M37.6557 45.3452H16.7336C16.5679 45.3452 16.4336 45.4795 16.4336 45.6452V47.0629C16.4336 47.2286 16.5679 47.3629 16.7336 47.3629H37.6557C37.8214 47.3629 37.9557 47.2286 37.9557 47.0629V45.6452C37.9557 45.4795 37.8214 45.3452 37.6557 45.3452Z" fill="#D0D0D0"/>
<path d="M45.7265 48.0352H16.7336C16.5679 48.0352 16.4336 48.1695 16.4336 48.3352V49.0803C16.4336 49.246 16.5679 49.3803 16.7336 49.3803H45.7265C45.8922 49.3803 46.0265 49.246 46.0265 49.0803V48.3352C46.0265 48.1695 45.8922 48.0352 45.7265 48.0352Z" fill="#D0D0D0"/>
<path d="M80.7 46.0176H69.8664C69.7007 46.0176 69.5664 46.1519 69.5664 46.3176V47.7353C69.5664 47.901 69.7007 48.0353 69.8664 48.0353H80.7C80.8657 48.0353 81 47.901 81 47.7353V46.3176C81 46.1519 80.8657 46.0176 80.7 46.0176Z" fill="#D9D9D9"/>
<path d="M125.7 46H123.3C123.134 46 123 46.1343 123 46.3V47.7C123 47.8657 123.134 48 123.3 48H125.7C125.866 48 126 47.8657 126 47.7V46.3C126 46.1343 125.866 46 125.7 46Z" fill="#D9D9D9"/>
<path d="M125.7 55H84.3C84.1343 55 84 55.1343 84 55.3V61.7C84 61.8657 84.1343 62 84.3 62H125.7C125.866 62 126 61.8657 126 61.7V55.3C126 55.1343 125.866 55 125.7 55Z" fill="#D9D9D9"/>
</svg>
