<svg width="129" height="65" viewBox="0 0 129 65" fill="none" xmlns="http://www.w3.org/2000/svg">
<path d="M127 0H2C0.89543 0 0 0.89543 0 2V63C0 64.1046 0.89543 65 2 65H127C128.105 65 129 64.1046 129 63V2C129 0.89543 128.105 0 127 0Z" fill="#F1F3F4"/>
<path d="M89.7 41H61.3C61.1343 41 61 41.1343 61 41.3V48.7C61 48.8657 61.1343 49 61.3 49H89.7C89.8657 49 90 48.8657 90 48.7V41.3C90 41.1343 89.8657 41 89.7 41Z" fill="#D0D0D0"/>
<path d="M122.7 41H94.3C94.1343 41 94 41.1343 94 41.3V48.7C94 48.8657 94.1343 49 94.3 49H122.7C122.866 49 123 48.8657 123 48.7V41.3C123 41.1343 122.866 41 122.7 41Z" fill="#D0D0D0"/>
<path d="M62.5 26.7188C63.1731 26.7188 63.7188 26.1731 63.7188 25.5C63.7188 24.8269 63.1731 24.2812 62.5 24.2812C61.8269 24.2812 61.2812 24.8269 61.2812 25.5C61.2812 26.1731 61.8269 26.7188 62.5 26.7188Z" fill="#D0D0D0"/>
<path d="M63.0367 25.1494C63.0293 25.1417 63.0204 25.1355 63.0107 25.1313C63.0009 25.1272 62.9905 25.125 62.9799 25.125C62.9693 25.125 62.9589 25.1272 62.9491 25.1313C62.9394 25.1355 62.9305 25.1417 62.9231 25.1494L62.3267 25.7652L62.0761 25.506C62.0684 25.4983 62.0593 25.4923 62.0493 25.4882C62.0393 25.4841 62.0286 25.4822 62.0179 25.4823C62.0071 25.4825 61.9965 25.4849 61.9867 25.4893C61.9768 25.4937 61.9679 25.5001 61.9605 25.5081C61.953 25.516 61.9471 25.5255 61.9432 25.5358C61.9393 25.5461 61.9373 25.5571 61.9375 25.5681C61.9377 25.5792 61.94 25.5902 61.9443 25.6003C61.9486 25.6105 61.9547 25.6197 61.9625 25.6274L62.2699 25.9443C62.2773 25.9521 62.2862 25.9582 62.2959 25.9624C62.3057 25.9666 62.3161 25.9688 62.3267 25.9688C62.3373 25.9688 62.3477 25.9666 62.3575 25.9624C62.3672 25.9582 62.3761 25.9521 62.3835 25.9443L63.0367 25.2708C63.0449 25.263 63.0513 25.2536 63.0558 25.2432C63.0602 25.2328 63.0625 25.2215 63.0625 25.2101C63.0625 25.1987 63.0602 25.1874 63.0558 25.177C63.0513 25.1665 63.0449 25.1571 63.0367 25.1494Z" fill="white"/>
<path d="M99.7 24.5H65.3C65.1343 24.5 65 24.6343 65 24.8V26.2C65 26.3657 65.1343 26.5 65.3 26.5H99.7C99.8657 26.5 100 26.3657 100 26.2V24.8C100 24.6343 99.8657 24.5 99.7 24.5Z" fill="#D0D0D0"/>
<path d="M62.5 30.7188C63.1731 30.7188 63.7188 30.1731 63.7188 29.5C63.7188 28.8269 63.1731 28.2812 62.5 28.2812C61.8269 28.2812 61.2812 28.8269 61.2812 29.5C61.2812 30.1731 61.8269 30.7188 62.5 30.7188Z" fill="#D0D0D0"/>
<path d="M63.0367 29.1494C63.0293 29.1417 63.0204 29.1355 63.0107 29.1313C63.0009 29.1272 62.9905 29.125 62.9799 29.125C62.9693 29.125 62.9589 29.1272 62.9491 29.1313C62.9394 29.1355 62.9305 29.1417 62.9231 29.1494L62.3267 29.7652L62.0761 29.506C62.0684 29.4983 62.0593 29.4923 62.0493 29.4882C62.0393 29.4841 62.0286 29.4822 62.0179 29.4823C62.0071 29.4825 61.9965 29.4849 61.9867 29.4893C61.9768 29.4937 61.9679 29.5001 61.9605 29.5081C61.953 29.516 61.9471 29.5255 61.9432 29.5358C61.9393 29.5461 61.9373 29.5571 61.9375 29.5681C61.9377 29.5792 61.94 29.5902 61.9443 29.6003C61.9486 29.6105 61.9547 29.6197 61.9625 29.6274L62.2699 29.9443C62.2773 29.9521 62.2862 29.9582 62.2959 29.9624C62.3057 29.9666 62.3161 29.9688 62.3267 29.9688C62.3373 29.9688 62.3477 29.9666 62.3575 29.9624C62.3672 29.9582 62.3761 29.9521 62.3835 29.9443L63.0367 29.2708C63.0449 29.263 63.0513 29.2536 63.0558 29.2432C63.0602 29.2328 63.0625 29.2215 63.0625 29.2101C63.0625 29.1987 63.0602 29.1874 63.0558 29.177C63.0513 29.1665 63.0449 29.1571 63.0367 29.1494Z" fill="white"/>
<path d="M99.7 28.5H65.3C65.1343 28.5 65 28.6343 65 28.8V30.2C65 30.3657 65.1343 30.5 65.3 30.5H99.7C99.8657 30.5 100 30.3657 100 30.2V28.8C100 28.6343 99.8657 28.5 99.7 28.5Z" fill="#D0D0D0"/>
<path d="M62.5 34.7188C63.1731 34.7188 63.7188 34.1731 63.7188 33.5C63.7188 32.8269 63.1731 32.2812 62.5 32.2812C61.8269 32.2812 61.2812 32.8269 61.2812 33.5C61.2812 34.1731 61.8269 34.7188 62.5 34.7188Z" fill="#D0D0D0"/>
<path d="M63.0367 33.1494C63.0293 33.1417 63.0204 33.1355 63.0107 33.1313C63.0009 33.1272 62.9905 33.125 62.9799 33.125C62.9693 33.125 62.9589 33.1272 62.9491 33.1313C62.9394 33.1355 62.9305 33.1417 62.9231 33.1494L62.3267 33.7652L62.0761 33.506C62.0684 33.4983 62.0593 33.4923 62.0493 33.4882C62.0393 33.4841 62.0286 33.4822 62.0179 33.4823C62.0071 33.4825 61.9965 33.4849 61.9867 33.4893C61.9768 33.4937 61.9679 33.5001 61.9605 33.5081C61.953 33.516 61.9471 33.5255 61.9432 33.5358C61.9393 33.5461 61.9373 33.5571 61.9375 33.5681C61.9377 33.5792 61.94 33.5902 61.9443 33.6003C61.9486 33.6105 61.9547 33.6197 61.9625 33.6274L62.2699 33.9443C62.2773 33.9521 62.2862 33.9582 62.2959 33.9624C62.3057 33.9666 62.3161 33.9688 62.3267 33.9688C62.3373 33.9688 62.3477 33.9666 62.3575 33.9624C62.3672 33.9582 62.3761 33.9521 62.3835 33.9443L63.0367 33.2708C63.0449 33.263 63.0513 33.2536 63.0558 33.2432C63.0602 33.2328 63.0625 33.2215 63.0625 33.2101C63.0625 33.1987 63.0602 33.1874 63.0558 33.177C63.0513 33.1665 63.0449 33.1571 63.0367 33.1494Z" fill="white"/>
<path d="M99.7 32.5H65.3C65.1343 32.5 65 32.6343 65 32.8V34.2C65 34.3657 65.1343 34.5 65.3 34.5H99.7C99.8657 34.5 100 34.3657 100 34.2V32.8C100 32.6343 99.8657 32.5 99.7 32.5Z" fill="#D0D0D0"/>
<path d="M56 3H4C3.44772 3 3 3.44772 3 4V48C3 48.5523 3.44772 49 4 49H56C56.5523 49 57 48.5523 57 48V4C57 3.44772 56.5523 3 56 3Z" fill="#D0D0D0"/>
<path d="M13 51H4C3.44772 51 3 51.4477 3 52V61C3 61.5523 3.44772 62 4 62H13C13.5523 62 14 61.5523 14 61V52C14 51.4477 13.5523 51 13 51Z" fill="#D0D0D0"/>
<path d="M28 51H18C17.4477 51 17 51.4477 17 52V61C17 61.5523 17.4477 62 18 62H28C28.5523 62 29 61.5523 29 61V52C29 51.4477 28.5523 51 28 51Z" fill="#D0D0D0"/>
<path d="M42 51H32C31.4477 51 31 51.4477 31 52V61C31 61.5523 31.4477 62 32 62H42C42.5523 62 43 61.5523 43 61V52C43 51.4477 42.5523 51 42 51Z" fill="#D0D0D0"/>
<path d="M56 51H47C46.4477 51 46 51.4477 46 52V61C46 61.5523 46.4477 62 47 62H56C56.5523 62 57 61.5523 57 61V52C57 51.4477 56.5523 51 56 51Z" fill="#D0D0D0"/>
<path d="M122.7 6H61.3C61.1343 6 61 6.13431 61 6.3V10.7C61 10.8657 61.1343 11 61.3 11H122.7C122.866 11 123 10.8657 123 10.7V6.3C123 6.13431 122.866 6 122.7 6Z" fill="#D0D0D0"/>
<path d="M89.7 14H61.3C61.1343 14 61 14.1343 61 14.3V16.7C61 16.8657 61.1343 17 61.3 17H89.7C89.8657 17 90 16.8657 90 16.7V14.3C90 14.1343 89.8657 14 89.7 14Z" fill="#D0D0D0"/>
</svg>
