<svg width="129" height="65" viewBox="0 0 129 65" fill="none" xmlns="http://www.w3.org/2000/svg">
<path d="M127 0H2C0.89543 0 0 0.89543 0 2V63C0 64.1046 0.89543 65 2 65H127C128.105 65 129 64.1046 129 63V2C129 0.89543 128.105 0 127 0Z" fill="#F1F3F4"/>
<path d="M78.7 4H50.3C50.1343 4 50 4.13431 50 4.3V7.7C50 7.86569 50.1343 8 50.3 8H78.7C78.8657 8 79 7.86569 79 7.7V4.3C79 4.13431 78.8657 4 78.7 4Z" fill="#D0D0D0"/>
<path d="M21 13H9C8.44772 13 8 13.4477 8 14V26C8 26.5523 8.44772 27 9 27H21C21.5523 27 22 26.5523 22 26V14C22 13.4477 21.5523 13 21 13Z" fill="#D0D0D0"/>
<path d="M56.7 15H25.3C25.1343 15 25 15.1343 25 15.3V17.7C25 17.8657 25.1343 18 25.3 18H56.7C56.8657 18 57 17.8657 57 17.7V15.3C57 15.1343 56.8657 15 56.7 15Z" fill="#D0D0D0"/>
<path d="M68.7 19H25.3C25.1343 19 25 19.1343 25 19.3V20.7C25 20.8657 25.1343 21 25.3 21H68.7C68.8657 21 69 20.8657 69 20.7V19.3C69 19.1343 68.8657 19 68.7 19Z" fill="#D0D0D0"/>
<path d="M120.7 16H104.3C104.134 16 104 16.1343 104 16.3V18.7C104 18.8657 104.134 19 104.3 19H120.7C120.866 19 121 18.8657 121 18.7V16.3C121 16.1343 120.866 16 120.7 16Z" fill="#D9D9D9"/>
<path d="M8 30.9H121" stroke="#D0D0D0" stroke-width="0.2"/>
<path d="M21 34H9C8.44772 34 8 34.4477 8 35V47C8 47.5523 8.44772 48 9 48H21C21.5523 48 22 47.5523 22 47V35C22 34.4477 21.5523 34 21 34Z" fill="#D0D0D0"/>
<path d="M56.7 36H25.3C25.1343 36 25 36.1343 25 36.3V38.7C25 38.8657 25.1343 39 25.3 39H56.7C56.8657 39 57 38.8657 57 38.7V36.3C57 36.1343 56.8657 36 56.7 36Z" fill="#D0D0D0"/>
<path d="M68.7 40H25.3C25.1343 40 25 40.1343 25 40.3V41.7C25 41.8657 25.1343 42 25.3 42H68.7C68.8657 42 69 41.8657 69 41.7V40.3C69 40.1343 68.8657 40 68.7 40Z" fill="#D0D0D0"/>
<path d="M120.7 37H104.3C104.134 37 104 37.1343 104 37.3V39.7C104 39.8657 104.134 40 104.3 40H120.7C120.866 40 121 39.8657 121 39.7V37.3C121 37.1343 120.866 37 120.7 37Z" fill="#D9D9D9"/>
<path d="M91.7 51H36.3C36.1343 51 36 51.1343 36 51.3V58.7C36 58.8657 36.1343 59 36.3 59H91.7C91.8657 59 92 58.8657 92 58.7V51.3C92 51.1343 91.8657 51 91.7 51Z" fill="#D9D9D9"/>
</svg>
