<svg width="16" height="16" viewBox="0 0 16 16" fill="none" xmlns="http://www.w3.org/2000/svg">
<path fill-rule="evenodd" clip-rule="evenodd" d="M3.56738 6.62354H14.5674V7.62354H3.56738V6.62354Z" fill="black"/>
<path d="M5.57154 6.15592C5.8311 6.15592 6.04152 5.93935 6.04152 5.6722C6.04152 5.40505 5.8311 5.18848 5.57154 5.18848C5.31198 5.18848 5.10156 5.40505 5.10156 5.6722C5.10156 5.93935 5.31198 6.15592 5.57154 6.15592Z" fill="black"/>
<path d="M6.98072 6.15592C7.24028 6.15592 7.4507 5.93935 7.4507 5.6722C7.4507 5.40505 7.24028 5.18848 6.98072 5.18848C6.72116 5.18848 6.51074 5.40505 6.51074 5.6722C6.51074 5.93935 6.72116 6.15592 6.98072 6.15592Z" fill="black"/>
<path fill-rule="evenodd" clip-rule="evenodd" d="M1.45895 1.45895C1.71662 1.20127 2.08738 1 2.5 1H11.5C11.9126 1 12.2834 1.20127 12.5411 1.45895C12.7987 1.71662 13 2.08738 13 2.5V3.5H13.5C13.9126 3.5 14.2834 3.70127 14.5411 3.95895C14.7987 4.21662 15 4.58738 15 5V13.5C15 13.9126 14.7987 14.2834 14.5411 14.5411C14.2834 14.7987 13.9126 15 13.5 15H5C4.58738 15 4.21662 14.7987 3.95895 14.5411C3.70127 14.2834 3.5 13.9126 3.5 13.5V12H2.5C2.08738 12 1.71662 11.7987 1.45895 11.5411C1.20127 11.2834 1 10.9126 1 10.5V2.5C1 2.08738 1.20127 1.71662 1.45895 1.45895ZM3.5 11V5C3.5 4.58738 3.70127 4.21662 3.95895 3.95895C4.21662 3.70127 4.58738 3.5 5 3.5H12V2.5C12 2.41262 11.9513 2.28338 11.8339 2.16605C11.7166 2.04873 11.5874 2 11.5 2H2.5C2.41262 2 2.28338 2.04873 2.16605 2.16605C2.04873 2.28338 2 2.41262 2 2.5V10.5C2 10.5874 2.04873 10.7166 2.16605 10.8339C2.28338 10.9513 2.41262 11 2.5 11H3.5ZM4.5 4.5C4.5 4.5 4.5 4.91262 4.5 5V13.5C4.5 13.5874 4.54873 13.7166 4.66605 13.8339C4.78338 13.9513 4.91262 14 5 14H13.5C13.5874 14 13.7166 13.9513 13.8339 13.8339C13.9513 13.7166 14 13.5874 14 13.5V5C14 4.91262 13.9513 4.78338 13.8339 4.66605C13.7166 4.54873 13.5874 4.5 13.5 4.5H5C4.5 4.5 4.5 4.5 4.5 4.5Z" fill="black"/>
<path fill-rule="evenodd" clip-rule="evenodd" d="M4.08285 3.79423C4.39443 3.56989 4.75332 3.5 5 3.5H12.5V4.5H5C4.91334 4.5 4.77223 4.53011 4.66715 4.60577C4.58757 4.66307 4.5 4.76296 4.5 5V7H3.5V5C3.5 4.43704 3.74577 4.03693 4.08285 3.79423Z" fill="black"/>
</svg>
