<svg width="16" height="16" viewBox="0 0 16 16" fill="none" xmlns="http://www.w3.org/2000/svg">
<path fill-rule="evenodd" clip-rule="evenodd" d="M1 1.5C1 1.22386 1.22386 1 1.5 1H4.1C4.35477 1 4.56881 1.19157 4.59694 1.44478L5.41419 8.8H12.4063L13.8063 4.6H6.7C6.42386 4.6 6.2 4.37614 6.2 4.1C6.2 3.82386 6.42386 3.6 6.7 3.6H14.5C14.6607 3.6 14.8116 3.67726 14.9056 3.80764C14.9996 3.93803 15.0252 4.10564 14.9743 4.25811L13.241 9.45811C13.173 9.66229 12.9819 9.8 12.7667 9.8H4.96667C4.71189 9.8 4.49786 9.60843 4.46972 9.35522L3.65248 2H1.5C1.22386 2 1 1.77614 1 1.5Z" fill="black"/>
<path fill-rule="evenodd" clip-rule="evenodd" d="M5.39961 12.3999C4.95778 12.3999 4.59961 12.7581 4.59961 13.1999C4.59961 13.6417 4.95778 13.9999 5.39961 13.9999C5.84144 13.9999 6.19961 13.6417 6.19961 13.1999C6.19961 12.7581 5.84144 12.3999 5.39961 12.3999ZM3.59961 13.1999C3.59961 12.2058 4.4055 11.3999 5.39961 11.3999C6.39372 11.3999 7.19961 12.2058 7.19961 13.1999C7.19961 14.194 6.39372 14.9999 5.39961 14.9999C4.4055 14.9999 3.59961 14.194 3.59961 13.1999Z" fill="black"/>
<path fill-rule="evenodd" clip-rule="evenodd" d="M12.3332 12.3999C11.8914 12.3999 11.5332 12.7581 11.5332 13.1999C11.5332 13.6417 11.8914 13.9999 12.3332 13.9999C12.775 13.9999 13.1332 13.6417 13.1332 13.1999C13.1332 12.7581 12.775 12.3999 12.3332 12.3999ZM10.5332 13.1999C10.5332 12.2058 11.3391 11.3999 12.3332 11.3999C13.3273 11.3999 14.1332 12.2058 14.1332 13.1999C14.1332 14.194 13.3273 14.9999 12.3332 14.9999C11.3391 14.9999 10.5332 14.194 10.5332 13.1999Z" fill="black"/>
</svg>
