<svg width="16" height="16" viewBox="0 0 16 16" fill="none" xmlns="http://www.w3.org/2000/svg">
<path fill-rule="evenodd" clip-rule="evenodd" d="M1 1.5C1 1.22386 1.22386 1 1.5 1H6.7C6.97614 1 7.2 1.22386 7.2 1.5V6.7C7.2 6.97614 6.97614 7.2 6.7 7.2H1.5C1.22386 7.2 1 6.97614 1 6.7V1.5ZM2 2V6.2H6.2V2H2Z" fill="black"/>
<path fill-rule="evenodd" clip-rule="evenodd" d="M1 9.2998C1 9.02366 1.22386 8.7998 1.5 8.7998H6.7C6.97614 8.7998 7.2 9.02366 7.2 9.2998V14.4998C7.2 14.7759 6.97614 14.9998 6.7 14.9998H1.5C1.22386 14.9998 1 14.7759 1 14.4998V9.2998ZM2 9.7998V13.9998H6.2V9.7998H2Z" fill="black"/>
<path fill-rule="evenodd" clip-rule="evenodd" d="M8.80078 1.5C8.80078 1.22386 9.02464 1 9.30078 1H14.5008C14.7769 1 15.0008 1.22386 15.0008 1.5V6.7C15.0008 6.97614 14.7769 7.2 14.5008 7.2H9.30078C9.02464 7.2 8.80078 6.97614 8.80078 6.7V1.5ZM9.80078 2V6.2H14.0008V2H9.80078Z" fill="black"/>
<path fill-rule="evenodd" clip-rule="evenodd" d="M8.80078 14.5C8.80078 14.2239 9.02464 14 9.30078 14H14.5008C14.7769 14 15.0008 14.2239 15.0008 14.5C15.0008 14.7761 14.7769 15 14.5008 15H9.30078C9.02464 15 8.80078 14.7761 8.80078 14.5Z" fill="black"/>
<path fill-rule="evenodd" clip-rule="evenodd" d="M10.5332 9.2998C10.5332 9.02366 10.7571 8.7998 11.0332 8.7998H14.4999C14.776 8.7998 14.9999 9.02366 14.9999 9.2998V11.8998C14.9999 12.1759 14.776 12.3998 14.4999 12.3998C14.2237 12.3998 13.9999 12.1759 13.9999 11.8998V9.7998H11.0332C10.7571 9.7998 10.5332 9.57595 10.5332 9.2998Z" fill="black"/>
</svg>
