<svg width="16" height="16" viewBox="0 0 16 16" fill="none" xmlns="http://www.w3.org/2000/svg">
<path fill-rule="evenodd" clip-rule="evenodd" d="M2.8 2.8667C2.58783 2.8667 2.38434 2.95098 2.23431 3.10101C2.08429 3.25104 2 3.45453 2 3.6667V8.8667C2 9.07887 2.08429 9.28236 2.23431 9.43238C2.38434 9.58241 2.58783 9.6667 2.8 9.6667H14.5C14.7761 9.6667 15 9.89056 15 10.1667C15 10.4428 14.7761 10.6667 14.5 10.6667H2.8C2.32261 10.6667 1.86477 10.4771 1.52721 10.1395C1.18964 9.80193 1 9.34409 1 8.8667V3.6667C1 3.18931 1.18964 2.73147 1.52721 2.39391C1.86477 2.05634 2.32261 1.8667 2.8 1.8667H11.0333C11.3095 1.8667 11.5333 2.09056 11.5333 2.3667C11.5333 2.64284 11.3095 2.8667 11.0333 2.8667H2.8Z" fill="black"/>
<path fill-rule="evenodd" clip-rule="evenodd" d="M10.6796 6.3464C10.8749 6.15114 11.1915 6.15114 11.3868 6.3464L14.8534 9.81306C15.0487 10.0083 15.0487 10.3249 14.8534 10.5202L11.3868 13.9868C11.1915 14.1821 10.8749 14.1821 10.6796 13.9868C10.4844 13.7916 10.4844 13.475 10.6796 13.2797L13.7928 10.1666L10.6796 7.0535C10.4844 6.85824 10.4844 6.54166 10.6796 6.3464Z" fill="black"/>
</svg>
