<svg width="16" height="16" viewBox="0 0 16 16" fill="none" xmlns="http://www.w3.org/2000/svg">
<path fill-rule="evenodd" clip-rule="evenodd" d="M14.2582 1.05788C14.5344 1.05534 14.7603 1.27712 14.7628 1.55325L14.8055 6.17689C14.807 6.3384 14.7303 6.49068 14.5998 6.58573C14.4692 6.68079 14.3007 6.70692 14.1475 6.65588L9.71908 5.18082C9.45709 5.09355 9.31545 4.81042 9.40271 4.54843C9.48998 4.28644 9.77311 4.1448 10.0351 4.23207L13.7991 5.4858L13.7629 1.56247C13.7603 1.28634 13.9821 1.06043 14.2582 1.05788Z" fill="black"/>
<path fill-rule="evenodd" clip-rule="evenodd" d="M11.199 2.89634C9.93114 2.11639 8.41772 1.83142 6.9509 2.09673C5.4841 2.36204 4.16849 3.15868 3.25761 4.33228C2.34677 5.50582 1.90502 6.97323 2.0171 8.45142C2.12918 9.92963 2.78722 11.3146 3.86488 12.3389C4.94261 13.3633 6.36363 13.9543 7.85388 13.9974C9.34414 14.0405 10.7973 13.5326 11.933 12.5722C13.0687 11.6118 13.8064 10.2671 14.0045 8.79787C14.0414 8.5242 14.2931 8.33226 14.5668 8.36916C14.8405 8.40605 15.0324 8.65782 14.9955 8.93148C14.7642 10.6469 13.903 12.2158 12.5787 13.3357C11.2545 14.4556 9.56099 15.0472 7.82497 14.997C6.08895 14.9468 4.43272 14.2583 3.17595 13.0637C1.91911 11.8691 1.15083 10.253 1.01996 8.52703C0.889099 6.80106 1.405 5.08827 2.46763 3.71915C3.53022 2.35008 5.06406 1.42179 6.77291 1.1127C8.48173 0.803611 10.2451 1.13548 11.723 2.04459C13.2009 2.95374 14.2888 4.37596 14.7761 6.0373C14.8538 6.30228 14.702 6.58009 14.437 6.65781C14.172 6.73553 13.8942 6.58373 13.8165 6.31875C13.3991 4.89562 12.4669 3.67625 11.199 2.89634Z" fill="black"/>
</svg>
