<svg width="16" height="16" viewBox="0 0 16 16" fill="none" xmlns="http://www.w3.org/2000/svg">
<path fill-rule="evenodd" clip-rule="evenodd" d="M14.2209 1.06106C14.4971 1.05852 14.723 1.28031 14.7255 1.55644L14.7681 6.19433C14.7696 6.35596 14.6929 6.50833 14.5621 6.60336C14.4314 6.6984 14.2628 6.72437 14.1095 6.67309L9.68719 5.19349C9.42532 5.10587 9.28406 4.82255 9.37167 4.56068C9.45929 4.2988 9.74261 4.15754 10.0045 4.24516L13.7617 5.50224L13.7256 1.56563C13.723 1.2895 13.9448 1.06359 14.2209 1.06106Z" fill="black"/>
<path fill-rule="evenodd" clip-rule="evenodd" d="M11.361 3.02574C10.1926 2.2394 8.78545 1.88759 7.38446 2.03154C5.98348 2.17548 4.6773 2.80607 3.69322 3.81357C2.70913 4.82107 2.10943 6.14171 1.99847 7.5457C1.97671 7.82098 1.73591 8.0265 1.46063 8.00475C1.18535 7.98299 0.979823 7.74219 1.00158 7.46691C1.13098 5.8297 1.83029 4.28969 2.97785 3.11483C4.1254 1.93997 5.64855 1.20463 7.28225 1.03678C8.91596 0.868919 10.5568 1.27917 11.9193 2.19613C13.2818 3.1131 14.2796 4.47874 14.7392 6.05542C14.8165 6.32053 14.6643 6.59809 14.3991 6.67537C14.134 6.75265 13.8565 6.60038 13.7792 6.33528C13.3851 4.98319 12.5293 3.81209 11.361 3.02574Z" fill="black"/>
<path fill-rule="evenodd" clip-rule="evenodd" d="M1.43648 9.43883C1.56722 9.34379 1.73584 9.31782 1.88911 9.3691L6.31141 10.8487C6.57328 10.9363 6.71454 11.2196 6.62693 11.4815C6.53931 11.7434 6.25599 11.8847 5.99412 11.797L2.23689 10.5399L2.27305 14.4766C2.27558 14.7527 2.05379 14.9786 1.77766 14.9811C1.50153 14.9837 1.27562 14.7619 1.27309 14.4857L1.23049 9.84786C1.22901 9.68623 1.30574 9.53386 1.43648 9.43883Z" fill="black"/>
<path fill-rule="evenodd" clip-rule="evenodd" d="M14.5399 8.03722C14.8152 8.05898 15.0207 8.29978 14.999 8.57506C14.8696 10.2123 14.1703 11.7523 13.0227 12.9271C11.8752 14.102 10.352 14.8373 8.71831 15.0052C7.0846 15.1731 5.44375 14.7628 4.08127 13.8458C2.71879 12.9289 1.72093 11.5632 1.26132 9.98655C1.18404 9.72144 1.3363 9.44388 1.60141 9.3666C1.86652 9.28932 2.14408 9.44159 2.22136 9.7067C2.6155 11.0588 3.47121 12.2299 4.63961 13.0162C5.808 13.8026 7.21511 14.1544 8.6161 14.0104C10.0171 13.8665 11.3233 13.2359 12.3073 12.2284C13.2914 11.2209 13.8911 9.90026 14.0021 8.49628C14.0238 8.22099 14.2646 8.01547 14.5399 8.03722Z" fill="black"/>
</svg>
