<svg width="16" height="16" viewBox="0 0 16 16" fill="none" xmlns="http://www.w3.org/2000/svg">
<path fill-rule="evenodd" clip-rule="evenodd" d="M2.8 2C2.58783 2 2.38434 2.08429 2.23431 2.23431C2.08429 2.38434 2 2.58783 2 2.8V13.2C2 13.4122 2.08429 13.6157 2.23431 13.7657C2.38434 13.9157 2.58783 14 2.8 14H13.2C13.4122 14 13.6157 13.9157 13.7657 13.7657C13.9157 13.6157 14 13.4122 14 13.2V5.17377L10.8262 2H2.8ZM2.8 1H11.0333C11.1659 1 11.2931 1.05268 11.3869 1.14645L14.8536 4.61311C14.9473 4.70688 15 4.83406 15 4.96667V13.2C15 13.6774 14.8104 14.1352 14.4728 14.4728C14.1352 14.8104 13.6774 15 13.2 15H2.8C2.32261 15 1.86477 14.8104 1.52721 14.4728C1.18964 14.1352 1 13.6774 1 13.2V2.8C1 2.32261 1.18964 1.86477 1.52721 1.52721C1.86477 1.18964 2.32261 1 2.8 1Z" fill="black"/>
<path fill-rule="evenodd" clip-rule="evenodd" d="M4.09961 2.7334C4.37575 2.7334 4.59961 2.95726 4.59961 3.2334V5.3334H8.79961V3.2334C8.79961 2.95726 9.02347 2.7334 9.29961 2.7334C9.57575 2.7334 9.79961 2.95726 9.79961 3.2334V5.8334C9.79961 6.10954 9.57575 6.3334 9.29961 6.3334H4.09961C3.82347 6.3334 3.59961 6.10954 3.59961 5.8334V3.2334C3.59961 2.95726 3.82347 2.7334 4.09961 2.7334Z" fill="black"/>
<path fill-rule="evenodd" clip-rule="evenodd" d="M3.59961 9.2998C3.59961 9.02366 3.82347 8.7998 4.09961 8.7998H11.8996C12.1758 8.7998 12.3996 9.02366 12.3996 9.2998V12.7665C12.3996 13.0426 12.1758 13.2665 11.8996 13.2665C11.6235 13.2665 11.3996 13.0426 11.3996 12.7665V9.7998H4.59961V12.7665C4.59961 13.0426 4.37575 13.2665 4.09961 13.2665C3.82347 13.2665 3.59961 13.0426 3.59961 12.7665V9.2998Z" fill="black"/>
</svg>
