<svg width="16" height="16" viewBox="0 0 16 16" fill="none" xmlns="http://www.w3.org/2000/svg">
<path fill-rule="evenodd" clip-rule="evenodd" d="M7.07143 2C4.27056 2 2 4.27056 2 7.07143C2 9.8723 4.27056 12.1429 7.07143 12.1429C9.8723 12.1429 12.1429 9.8723 12.1429 7.07143C12.1429 4.27056 9.8723 2 7.07143 2ZM1 7.07143C1 3.71827 3.71827 1 7.07143 1C10.4246 1 13.1429 3.71827 13.1429 7.07143C13.1429 10.4246 10.4246 13.1429 7.07143 13.1429C3.71827 13.1429 1 10.4246 1 7.07143Z" fill="black"/>
<path fill-rule="evenodd" clip-rule="evenodd" d="M10.6562 10.6569C10.8515 10.4617 11.1681 10.4617 11.3633 10.6569L14.8529 14.1465C15.0482 14.3418 15.0482 14.6584 14.8529 14.8536C14.6576 15.0489 14.341 15.0489 14.1458 14.8536L10.6562 11.3641C10.461 11.1688 10.461 10.8522 10.6562 10.6569Z" fill="black"/>
</svg>
