<svg width="16" height="16" viewBox="0 0 16 16" fill="none" xmlns="http://www.w3.org/2000/svg">
<path fill-rule="evenodd" clip-rule="evenodd" d="M1 8C1 7.72386 1.22386 7.5 1.5 7.5H14.5C14.7761 7.5 15 7.72386 15 8C15 8.27614 14.7761 8.5 14.5 8.5H1.5C1.22386 8.5 1 8.27614 1 8Z" fill="black"/>
<path fill-rule="evenodd" clip-rule="evenodd" d="M1.86719 1.5C1.86719 1.22386 2.09105 1 2.36719 1H13.6339C13.91 1 14.1339 1.22386 14.1339 1.5V5.21429C14.1339 5.49043 13.91 5.71429 13.6339 5.71429H2.36719C2.09105 5.71429 1.86719 5.49043 1.86719 5.21429V1.5ZM2.86719 2V4.71429H13.1339V2H2.86719Z" fill="black"/>
<path fill-rule="evenodd" clip-rule="evenodd" d="M1.86719 10.7856C1.86719 10.5095 2.09105 10.2856 2.36719 10.2856H13.6339C13.91 10.2856 14.1339 10.5095 14.1339 10.7856V14.4999C14.1339 14.7761 13.91 14.9999 13.6339 14.9999H2.36719C2.09105 14.9999 1.86719 14.7761 1.86719 14.4999V10.7856ZM2.86719 11.2856V13.9999H13.1339V11.2856H2.86719Z" fill="black"/>
</svg>
