<svg width="16" height="16" viewBox="0 0 16 16" fill="none" xmlns="http://www.w3.org/2000/svg">
<path fill-rule="evenodd" clip-rule="evenodd" d="M8.00065 6.33325C7.08018 6.33325 6.33398 7.07944 6.33398 7.99992C6.33398 8.92039 7.08018 9.66659 8.00065 9.66659C8.92113 9.66659 9.66732 8.92039 9.66732 7.99992C9.66732 7.07944 8.92113 6.33325 8.00065 6.33325ZM5.33398 7.99992C5.33398 6.52716 6.52789 5.33325 8.00065 5.33325C9.47341 5.33325 10.6673 6.52716 10.6673 7.99992C10.6673 9.47268 9.47341 10.6666 8.00065 10.6666C6.52789 10.6666 5.33398 9.47268 5.33398 7.99992Z" fill="black"/>
<path fill-rule="evenodd" clip-rule="evenodd" d="M6.20076 1.5C6.20076 1.22386 6.42462 1 6.70076 1H9.30076C9.57691 1 9.80076 1.22386 9.80076 1.5V3.05402C10.384 3.26558 10.919 3.57666 11.3849 3.96788L12.7297 3.19122C12.8445 3.1249 12.981 3.10691 13.1091 3.14123C13.2372 3.17554 13.3465 3.25934 13.4128 3.37419L14.7128 5.62579C14.8508 5.86493 14.7689 6.17071 14.5298 6.30879L13.1838 7.08606C13.2371 7.38055 13.2674 7.68537 13.2674 8C13.2674 8.31442 13.237 8.61953 13.1844 8.91414L14.5315 9.69207C14.7707 9.83016 14.8526 10.1359 14.7145 10.3751L13.4145 12.6267C13.2764 12.8658 12.9707 12.9477 12.7315 12.8097L11.3855 12.0327C10.9193 12.4234 10.3848 12.7345 9.80163 12.9465V14.5C9.80163 14.7761 9.57777 15 9.30163 15H6.70163C6.42549 15 6.20163 14.7761 6.20163 14.5V12.946C5.61837 12.7344 5.08338 12.4233 4.61738 12.0321L3.27173 12.8088C3.03259 12.9469 2.72682 12.8649 2.58875 12.6258L1.28875 10.3742C1.15069 10.1351 1.2326 9.82929 1.47173 9.69121L2.81775 8.91393C2.76445 8.61916 2.7341 8.31406 2.7341 8C2.7341 7.68537 2.76444 7.38055 2.81773 7.08606L1.47173 6.30879C1.2326 6.17071 1.15069 5.86493 1.28875 5.62579L2.58875 3.37419C2.65507 3.25934 2.76429 3.17554 2.89239 3.14123C3.0205 3.10691 3.15698 3.1249 3.27183 3.19122L4.61677 3.96799C5.08314 3.57677 5.61804 3.26562 6.20076 3.05359V1.5ZM7.20076 2V3.41707C7.20076 3.64064 7.05234 3.83704 6.83727 3.89807C6.14839 4.09356 5.53013 4.45581 5.02966 4.94153C4.86924 5.09723 4.62495 5.12752 4.43137 5.01571L3.20473 4.30727L2.40476 5.69283L3.6332 6.40221C3.82654 6.51386 3.92244 6.74016 3.86817 6.95673C3.78315 7.29603 3.7341 7.64329 3.7341 8C3.7341 8.35589 3.78316 8.70402 3.86817 9.04327C3.92244 9.25984 3.82654 9.48614 3.6332 9.59779L2.40476 10.3072L3.20479 11.6928L4.43233 10.9842C4.62603 10.8724 4.87043 10.9028 5.0308 11.0587C5.53021 11.5442 6.14815 11.9062 6.83749 12.1009C7.05289 12.1617 7.20163 12.3582 7.20163 12.5821V14H8.80163V12.5829C8.80163 12.3593 8.95012 12.1629 9.16527 12.1019C9.85479 11.9064 10.4723 11.5442 10.973 11.0591C11.1334 10.9036 11.3775 10.8734 11.5709 10.9851L12.7985 11.6937L13.5985 10.308L12.3701 9.59866C12.1775 9.48746 12.0815 9.26247 12.1345 9.04652C12.2184 8.70475 12.2674 8.35592 12.2674 8C12.2674 7.64329 12.2184 7.29603 12.1334 6.95673C12.0791 6.74016 12.175 6.51386 12.3683 6.40221L13.5968 5.69283L12.7968 4.30727L11.5702 5.01571C11.3764 5.12759 11.132 5.09718 10.9716 4.94126C10.4722 4.45581 9.85424 4.09375 9.1649 3.89912C8.94951 3.83831 8.80076 3.64175 8.80076 3.41793V2H7.20076Z" fill="black"/>
</svg>
