<svg width="16" height="16" viewBox="0 0 16 16" fill="none" xmlns="http://www.w3.org/2000/svg">
<path fill-rule="evenodd" clip-rule="evenodd" d="M7.93359 8.43335C7.93359 8.15721 8.15745 7.93335 8.43359 7.93335H11.0336C11.3097 7.93335 11.5336 8.15721 11.5336 8.43335V11.0333C11.5336 11.3095 11.3097 11.5333 11.0336 11.5333H8.43359C8.15745 11.5333 7.93359 11.3095 7.93359 11.0333V8.43335ZM8.93359 8.93335V10.5333H10.5336V8.93335H8.93359Z" fill="black"/>
<path fill-rule="evenodd" clip-rule="evenodd" d="M7.56686 7.19995C7.46962 7.19995 7.37635 7.23858 7.30759 7.30735C7.23883 7.37611 7.2002 7.46937 7.2002 7.56662C7.2002 7.66386 7.23883 7.75713 7.30759 7.82589C7.37635 7.89465 7.46962 7.93328 7.56686 7.93328H7.93353V7.56662C7.93353 7.46937 7.8949 7.37611 7.82613 7.30735C7.75737 7.23858 7.66411 7.19995 7.56686 7.19995ZM6.60048 6.60024C6.85678 6.34394 7.2044 6.19995 7.56686 6.19995C7.92932 6.19995 8.27694 6.34394 8.53324 6.60024C8.78954 6.85654 8.93353 7.20415 8.93353 7.56662V8.43328C8.93353 8.70943 8.70967 8.93328 8.43353 8.93328H7.56686C7.2044 8.93328 6.85678 8.7893 6.60048 8.533C6.34418 8.2767 6.2002 7.92908 6.2002 7.56662C6.2002 7.20415 6.34418 6.85654 6.60048 6.60024Z" fill="black"/>
<path fill-rule="evenodd" clip-rule="evenodd" d="M10.9335 6.60024C11.1898 6.34394 11.5374 6.19995 11.8999 6.19995C12.2623 6.19995 12.6099 6.34394 12.8662 6.60024C13.1225 6.85654 13.2665 7.20415 13.2665 7.56662C13.2665 7.92908 13.1225 8.2767 12.8662 8.533C12.6099 8.7893 12.2623 8.93328 11.8999 8.93328H11.0332C10.7571 8.93328 10.5332 8.70943 10.5332 8.43328V7.56662C10.5332 7.20415 10.6772 6.85654 10.9335 6.60024ZM11.8999 7.19995C11.8026 7.19995 11.7094 7.23858 11.6406 7.30735C11.5718 7.37611 11.5332 7.46937 11.5332 7.56662V7.93328H11.8999C11.9971 7.93328 12.0904 7.89465 12.1591 7.82589C12.2279 7.75713 12.2665 7.66386 12.2665 7.56662C12.2665 7.46937 12.2279 7.37611 12.1591 7.30735C12.0904 7.23858 11.9971 7.19995 11.8999 7.19995Z" fill="black"/>
<path fill-rule="evenodd" clip-rule="evenodd" d="M6.60048 10.9337C6.85678 10.6774 7.2044 10.5334 7.56686 10.5334H8.43353C8.70967 10.5334 8.93353 10.7573 8.93353 11.0334V11.9001C8.93353 12.2626 8.78954 12.6102 8.53324 12.8665C8.27694 13.1228 7.92932 13.2668 7.56686 13.2668C7.2044 13.2668 6.85678 13.1228 6.60048 12.8665C6.34418 12.6102 6.2002 12.2626 6.2002 11.9001C6.2002 11.5377 6.34418 11.19 6.60048 10.9337ZM7.56686 11.5334C7.46962 11.5334 7.37635 11.5721 7.30759 11.6408C7.23883 11.7096 7.2002 11.8029 7.2002 11.9001C7.2002 11.9974 7.23883 12.0906 7.30759 12.1594C7.37635 12.2281 7.46962 12.2668 7.56686 12.2668C7.66411 12.2668 7.75737 12.2281 7.82613 12.1594C7.8949 12.0906 7.93353 11.9974 7.93353 11.9001V11.5334H7.56686Z" fill="black"/>
<path fill-rule="evenodd" clip-rule="evenodd" d="M10.5332 11.0334C10.5332 10.7573 10.7571 10.5334 11.0332 10.5334H11.8999C12.2623 10.5334 12.6099 10.6774 12.8662 10.9337C13.1225 11.19 13.2665 11.5377 13.2665 11.9001C13.2665 12.2626 13.1225 12.6102 12.8662 12.8665C12.6099 13.1228 12.2623 13.2668 11.8999 13.2668C11.5374 13.2668 11.1898 13.1228 10.9335 12.8665C10.6772 12.6102 10.5332 12.2626 10.5332 11.9001V11.0334ZM11.5332 11.5334V11.9001C11.5332 11.9974 11.5718 12.0906 11.6406 12.1594C11.7094 12.2281 11.8026 12.2668 11.8999 12.2668C11.9971 12.2668 12.0904 12.2281 12.1591 12.1594C12.2279 12.0906 12.2665 11.9974 12.2665 11.9001C12.2665 11.8029 12.2279 11.7096 12.1591 11.6408C12.0904 11.5721 11.9971 11.5334 11.8999 11.5334H11.5332Z" fill="black"/>
<path fill-rule="evenodd" clip-rule="evenodd" d="M5.83346 5.46655C5.63096 5.46655 5.4668 5.63072 5.4668 5.83322V13.6332C5.4668 13.8357 5.63096 13.9999 5.83346 13.9999H13.6335C13.836 13.9999 14.0001 13.8357 14.0001 13.6332V5.83322C14.0001 5.63072 13.836 5.46655 13.6335 5.46655H5.83346ZM4.4668 5.83322C4.4668 5.07843 5.07867 4.46655 5.83346 4.46655H13.6335C14.3883 4.46655 15.0001 5.07843 15.0001 5.83322V13.6332C15.0001 14.388 14.3883 14.9999 13.6335 14.9999H5.83346C5.07867 14.9999 4.4668 14.388 4.4668 13.6332V5.83322Z" fill="black"/>
<path fill-rule="evenodd" clip-rule="evenodd" d="M2.36667 2C2.26942 2 2.17616 2.03863 2.10739 2.10739C2.03863 2.17616 2 2.26942 2 2.36667V10.1667C2 10.2639 2.03863 10.3572 2.10739 10.4259C2.17616 10.4947 2.26942 10.5333 2.36667 10.5333H3.23333C3.50948 10.5333 3.73333 10.7572 3.73333 11.0333C3.73333 11.3095 3.50948 11.5333 3.23333 11.5333H2.36667C2.0042 11.5333 1.65659 11.3893 1.40029 11.133C1.14399 10.8767 1 10.5291 1 10.1667V2.36667C1 2.0042 1.14399 1.65659 1.40029 1.40029C1.65659 1.14399 2.0042 1 2.36667 1H10.1667C10.5291 1 10.8767 1.14399 11.133 1.40029C11.3893 1.65659 11.5333 2.0042 11.5333 2.36667V3.23333C11.5333 3.50948 11.3095 3.73333 11.0333 3.73333C10.7572 3.73333 10.5333 3.50948 10.5333 3.23333V2.36667C10.5333 2.26942 10.4947 2.17616 10.4259 2.10739C10.3572 2.03863 10.2639 2 10.1667 2H2.36667Z" fill="black"/>
</svg>
