<svg width="16" height="16" viewBox="0 0 16 16" fill="none" xmlns="http://www.w3.org/2000/svg">
<path fill-rule="evenodd" clip-rule="evenodd" d="M1 1.5C1 1.22386 1.22386 1 1.5 1H4.1C4.37614 1 4.6 1.22386 4.6 1.5V4.1C4.6 4.37614 4.37614 4.6 4.1 4.6H1.5C1.22386 4.6 1 4.37614 1 4.1V1.5ZM2 2V3.6H3.6V2H2Z" fill="black"/>
<path fill-rule="evenodd" clip-rule="evenodd" d="M6.19922 1.5C6.19922 1.22386 6.42308 1 6.69922 1H9.29922C9.57536 1 9.79922 1.22386 9.79922 1.5V4.1C9.79922 4.37614 9.57536 4.6 9.29922 4.6H6.69922C6.42308 4.6 6.19922 4.37614 6.19922 4.1V1.5ZM7.19922 2V3.6H8.79922V2H7.19922Z" fill="black"/>
<path fill-rule="evenodd" clip-rule="evenodd" d="M1 6.7002C1 6.42405 1.22386 6.2002 1.5 6.2002H4.1C4.37614 6.2002 4.6 6.42405 4.6 6.7002V9.3002C4.6 9.57634 4.37614 9.8002 4.1 9.8002H1.5C1.22386 9.8002 1 9.57634 1 9.3002V6.7002ZM2 7.2002V8.8002H3.6V7.2002H2Z" fill="black"/>
<path fill-rule="evenodd" clip-rule="evenodd" d="M1 11.8999C1 11.6238 1.22386 11.3999 1.5 11.3999H4.1C4.37614 11.3999 4.6 11.6238 4.6 11.8999V14.4999C4.6 14.776 4.37614 14.9999 4.1 14.9999H1.5C1.22386 14.9999 1 14.776 1 14.4999V11.8999ZM2 12.3999V13.9999H3.6V12.3999H2Z" fill="black"/>
<path fill-rule="evenodd" clip-rule="evenodd" d="M6.19922 6.7002C6.19922 6.42405 6.42308 6.2002 6.69922 6.2002H9.29922C9.57536 6.2002 9.79922 6.42405 9.79922 6.7002V9.3002C9.79922 9.57634 9.57536 9.8002 9.29922 9.8002H6.69922C6.42308 9.8002 6.19922 9.57634 6.19922 9.3002V6.7002ZM7.19922 7.2002V8.8002H8.79922V7.2002H7.19922Z" fill="black"/>
<path fill-rule="evenodd" clip-rule="evenodd" d="M11.4004 1.5C11.4004 1.22386 11.6242 1 11.9004 1H14.5004C14.7765 1 15.0004 1.22386 15.0004 1.5V4.1C15.0004 4.37614 14.7765 4.6 14.5004 4.6H11.9004C11.6242 4.6 11.4004 4.37614 11.4004 4.1V1.5ZM12.4004 2V3.6H14.0004V2H12.4004Z" fill="black"/>
<path d="M14.0673 7.1333H12.334V8.86663H14.0673V7.1333Z" fill="black"/>
<path d="M8.86615 12.3335H7.13281V14.0668H8.86615V12.3335Z" fill="black"/>
<path d="M14.0673 12.3335H12.334V14.0668H14.0673V12.3335Z" fill="black"/>
</svg>
