<svg width="16" height="16" viewBox="0 0 16 16" fill="none" xmlns="http://www.w3.org/2000/svg">
<path fill-rule="evenodd" clip-rule="evenodd" d="M8 2C4.68629 2 2 4.68629 2 8C2 11.3137 4.68629 14 8 14C11.3137 14 14 11.3137 14 8C14 4.68629 11.3137 2 8 2ZM1 8C1 4.13401 4.13401 1 8 1C11.866 1 15 4.13401 15 8C15 11.866 11.866 15 8 15C4.13401 15 1 11.866 1 8Z" fill="black"/>
<path fill-rule="evenodd" clip-rule="evenodd" d="M7.99961 4.6001C6.12184 4.6001 4.59961 6.12233 4.59961 8.0001C4.59961 9.87787 6.12184 11.4001 7.99961 11.4001C9.87738 11.4001 11.3996 9.87787 11.3996 8.0001C11.3996 6.12233 9.87738 4.6001 7.99961 4.6001ZM3.59961 8.0001C3.59961 5.57004 5.56956 3.6001 7.99961 3.6001C10.4297 3.6001 12.3996 5.57004 12.3996 8.0001C12.3996 10.4302 10.4297 12.4001 7.99961 12.4001C5.56956 12.4001 3.59961 10.4302 3.59961 8.0001Z" fill="black"/>
<path fill-rule="evenodd" clip-rule="evenodd" d="M10.3385 8.00011C10.3385 8.27626 10.1146 8.50011 9.83848 8.50011H6.16152C5.88538 8.50011 5.66152 8.27626 5.66152 8.00011C5.66152 7.72397 5.88538 7.50011 6.16152 7.50011H9.83848C10.1146 7.50011 10.3385 7.72397 10.3385 8.00011Z" fill="black"/>
<path fill-rule="evenodd" clip-rule="evenodd" d="M8 5.66164C8.27614 5.66164 8.5 5.88549 8.5 6.16164L8.5 9.83859C8.5 10.1147 8.27614 10.3386 8 10.3386C7.72386 10.3386 7.5 10.1147 7.5 9.83859L7.5 6.16164C7.5 5.88549 7.72386 5.66164 8 5.66164Z" fill="black"/>
<path fill-rule="evenodd" clip-rule="evenodd" d="M8 1C8.27614 1 8.5 1.22386 8.5 1.5V4.1C8.5 4.37614 8.27614 4.6 8 4.6C7.72386 4.6 7.5 4.37614 7.5 4.1V1.5C7.5 1.22386 7.72386 1 8 1Z" fill="black"/>
<path fill-rule="evenodd" clip-rule="evenodd" d="M3.05074 3.0505C3.24601 2.85524 3.56259 2.85524 3.75785 3.0505L5.59605 4.8887C5.79131 5.08396 5.79131 5.40054 5.59605 5.59581C5.40079 5.79107 5.08421 5.79107 4.88894 5.59581L3.05074 3.75761C2.85548 3.56234 2.85548 3.24576 3.05074 3.0505Z" fill="black"/>
<path fill-rule="evenodd" clip-rule="evenodd" d="M1 8C1 7.72386 1.22386 7.5 1.5 7.5H4.1C4.37614 7.5 4.6 7.72386 4.6 8C4.6 8.27614 4.37614 8.5 4.1 8.5H1.5C1.22386 8.5 1 8.27614 1 8Z" fill="black"/>
<path fill-rule="evenodd" clip-rule="evenodd" d="M5.59605 10.404C5.79131 10.5993 5.79131 10.9159 5.59605 11.1111L3.75785 12.9493C3.56259 13.1446 3.24601 13.1446 3.05074 12.9493C2.85548 12.7541 2.85548 12.4375 3.05074 12.2422L4.88894 10.404C5.08421 10.2088 5.40079 10.2088 5.59605 10.404Z" fill="black"/>
<path fill-rule="evenodd" clip-rule="evenodd" d="M8 11.3999C8.27614 11.3999 8.5 11.6238 8.5 11.8999V14.4999C8.5 14.776 8.27614 14.9999 8 14.9999C7.72386 14.9999 7.5 14.776 7.5 14.4999V11.8999C7.5 11.6238 7.72386 11.3999 8 11.3999Z" fill="black"/>
<path fill-rule="evenodd" clip-rule="evenodd" d="M10.4043 10.404C10.5995 10.2088 10.9161 10.2088 11.1114 10.404L12.9496 12.2422C13.1448 12.4375 13.1448 12.7541 12.9496 12.9493C12.7543 13.1446 12.4377 13.1446 12.2425 12.9493L10.4043 11.1111C10.209 10.9159 10.209 10.5993 10.4043 10.404Z" fill="black"/>
<path fill-rule="evenodd" clip-rule="evenodd" d="M11.4004 8C11.4004 7.72386 11.6242 7.5 11.9004 7.5H14.5004C14.7765 7.5 15.0004 7.72386 15.0004 8C15.0004 8.27614 14.7765 8.5 14.5004 8.5H11.9004C11.6242 8.5 11.4004 8.27614 11.4004 8Z" fill="black"/>
<path fill-rule="evenodd" clip-rule="evenodd" d="M12.9496 3.0505C13.1448 3.24576 13.1448 3.56234 12.9496 3.75761L11.1114 5.59581C10.9161 5.79107 10.5995 5.79107 10.4043 5.59581C10.209 5.40054 10.209 5.08396 10.4043 4.8887L12.2425 3.0505C12.4377 2.85524 12.7543 2.85524 12.9496 3.0505Z" fill="black"/>
</svg>
