<svg width="16" height="16" viewBox="0 0 16 16" fill="none" xmlns="http://www.w3.org/2000/svg">
<path fill-rule="evenodd" clip-rule="evenodd" d="M8.00684 1.74694C8.28298 1.74755 8.50634 1.9719 8.50573 2.24805L8.49709 6.14815C8.49648 6.42429 8.27213 6.64765 7.99599 6.64704C7.71985 6.64643 7.49649 6.42207 7.4971 6.14593L7.50573 2.24583C7.50634 1.96969 7.7307 1.74633 8.00684 1.74694Z" fill="black"/>
<path fill-rule="evenodd" clip-rule="evenodd" d="M10.2117 3.7195C10.0161 3.9144 9.6995 3.9138 9.50461 3.71817L8.00381 2.21169L6.49733 3.71249C6.3017 3.90738 5.98511 3.90678 5.79022 3.71115C5.59533 3.51552 5.59593 3.19894 5.79156 3.00405L7.65226 1.15036C7.84789 0.955468 8.16447 0.956065 8.35936 1.1517L10.2131 3.0124C10.4079 3.20803 10.4073 3.52461 10.2117 3.7195Z" fill="black"/>
<path fill-rule="evenodd" clip-rule="evenodd" d="M1.92773 8.00415C1.92773 7.72801 2.15159 7.50415 2.42773 7.50415L13.5709 7.50415C13.8471 7.50415 14.0709 7.72801 14.0709 8.00415C14.0709 8.28029 13.8471 8.50415 13.5709 8.50415L2.42773 8.50415C2.15159 8.50415 1.92773 8.28029 1.92773 8.00415Z" fill="black"/>
<path fill-rule="evenodd" clip-rule="evenodd" d="M8.02149 9.36076C8.29763 9.36027 8.52189 9.58372 8.52238 9.85986L8.52939 13.76C8.52989 14.0361 8.30643 14.2604 8.03029 14.2609C7.75415 14.2614 7.52989 14.0379 7.52939 13.7618L7.52238 9.86166C7.52189 9.58552 7.74534 9.36126 8.02149 9.36076Z" fill="black"/>
<path fill-rule="evenodd" clip-rule="evenodd" d="M10.2346 12.2902C10.4302 12.4852 10.4306 12.8018 10.2357 12.9973L8.38121 14.8573C8.18623 15.0528 7.86965 15.0533 7.6741 14.8583L5.81417 13.0038C5.61862 12.8089 5.61816 12.4923 5.81313 12.2967C6.00811 12.1012 6.32469 12.1007 6.52024 12.2957L8.02609 13.7971L9.52752 12.2913C9.7225 12.0957 10.0391 12.0952 10.2346 12.2902Z" fill="black"/>
</svg>
