<svg width="16" height="16" viewBox="0 0 16 16" fill="none" xmlns="http://www.w3.org/2000/svg">
<path fill-rule="evenodd" clip-rule="evenodd" d="M1 2.36646C1 2.09031 1.22386 1.86646 1.5 1.86646H14.5C14.7761 1.86646 15 2.09031 15 2.36646V13.6331C15 13.9093 14.7761 14.1331 14.5 14.1331H1.5C1.22386 14.1331 1 13.9093 1 13.6331V2.36646ZM2 2.86646V13.1331H14V2.86646H2Z" fill="black"/>
<path fill-rule="evenodd" clip-rule="evenodd" d="M2.7334 4.09985C2.7334 3.82371 2.95726 3.59985 3.2334 3.59985H12.7667C13.0429 3.59985 13.2667 3.82371 13.2667 4.09985V6.69985C13.2667 6.976 13.0429 7.19985 12.7667 7.19985H3.2334C2.95726 7.19985 2.7334 6.976 2.7334 6.69985V4.09985ZM3.7334 4.59985V6.19985H12.2667V4.59985H3.7334Z" fill="black"/>
</svg>
