<svg width="16" height="16" viewBox="0 0 16 16" fill="none" xmlns="http://www.w3.org/2000/svg">
<path d="M14.3714 3H4.62857C4.46186 3 4.30198 3.07024 4.1841 3.19527C4.06622 3.3203 4 3.48988 4 3.6667V11.6671C4 11.8439 4.06622 12.0135 4.1841 12.1385C4.30198 12.2636 4.46186 12.3338 4.62857 12.3338H8.30571L11.9979 14.9446C12.0453 14.9778 12.1002 14.9969 12.1569 14.9996C12.2136 15.0024 12.2699 14.9889 12.3199 14.9604C12.3699 14.932 12.4118 14.8897 12.441 14.8381C12.4701 14.7865 12.4856 14.7275 12.4857 14.6673V12.3338H14.3714C14.5381 12.3338 14.698 12.2636 14.8159 12.1385C14.9338 12.0135 15 11.8439 15 11.6671V3.6667C15 3.48988 14.9338 3.3203 14.8159 3.19527C14.698 3.07024 14.5381 3 14.3714 3V3Z" fill="#3AACE9"/>
<path d="M12.3684 1H1.63158C1.46407 1 1.30343 1.07209 1.18499 1.2004C1.06654 1.32871 1 1.50275 1 1.68421V9.89474C1 10.0762 1.06654 10.2502 1.18499 10.3785C1.30343 10.5069 1.46407 10.5789 1.63158 10.5789H3.52632V13.6579C3.52632 13.7486 3.55959 13.8356 3.61881 13.8998C3.67803 13.964 3.75835 14 3.8421 14C3.90796 14.0002 3.97219 13.9778 4.02558 13.936L8.36421 10.5789H12.3684C12.5359 10.5789 12.6966 10.5069 12.815 10.3785C12.9335 10.2502 13 10.0762 13 9.89474V1.68421C13 1.50275 12.9335 1.32871 12.815 1.2004C12.6966 1.07209 12.5359 1 12.3684 1Z" fill="#A0D9F8"/>
</svg>
