<svg width="16" height="16" viewBox="0 0 16 16" fill="none" xmlns="http://www.w3.org/2000/svg">
<path fill-rule="evenodd" clip-rule="evenodd" d="M8.7998 4.53345C8.7998 4.2573 9.02366 4.03345 9.2998 4.03345H14.4998C14.7759 4.03345 14.9998 4.2573 14.9998 4.53345C14.9998 4.80959 14.7759 5.03345 14.4998 5.03345H9.2998C9.02366 5.03345 8.7998 4.80959 8.7998 4.53345Z" fill="black"/>
<path fill-rule="evenodd" clip-rule="evenodd" d="M1 1.93335C1 1.65721 1.22386 1.43335 1.5 1.43335H6.7C6.97614 1.43335 7.2 1.65721 7.2 1.93335V7.13335C7.2 7.40949 6.97614 7.63335 6.7 7.63335H1.5C1.22386 7.63335 1 7.40949 1 7.13335V1.93335ZM2 2.43335V6.63335H6.2V2.43335H2Z" fill="black"/>
<path fill-rule="evenodd" clip-rule="evenodd" d="M8.7998 12.3333C8.7998 12.0571 9.02366 11.8333 9.2998 11.8333H14.4998C14.7759 11.8333 14.9998 12.0571 14.9998 12.3333C14.9998 12.6094 14.7759 12.8333 14.4998 12.8333H9.2998C9.02366 12.8333 8.7998 12.6094 8.7998 12.3333Z" fill="black"/>
<path fill-rule="evenodd" clip-rule="evenodd" d="M7.01235 9.34298C7.22798 9.51549 7.26294 9.83013 7.09043 10.0458L3.62377 14.3791C3.53492 14.4902 3.40299 14.5581 3.26098 14.566C3.11898 14.5739 2.98035 14.5209 2.87978 14.4203L1.14645 12.687C0.951184 12.4917 0.951184 12.1751 1.14645 11.9799C1.34171 11.7846 1.65829 11.7846 1.85355 11.9799L3.19187 13.3182L6.30957 9.42107C6.48207 9.20544 6.79672 9.17048 7.01235 9.34298Z" fill="black"/>
</svg>
