<svg width="16" height="16" viewBox="0 0 16 16" fill="none" xmlns="http://www.w3.org/2000/svg">
<path fill-rule="evenodd" clip-rule="evenodd" d="M8.00001 1.31805C8.19032 1.31805 8.36413 1.42609 8.44837 1.59674L10.341 5.43091L14.5719 6.04572C14.7603 6.07309 14.9167 6.20501 14.9755 6.38602C15.0344 6.56704 14.9853 6.76574 14.849 6.89858L11.7872 9.88278L12.5098 14.0974C12.542 14.285 12.4649 14.4746 12.3109 14.5864C12.1569 14.6983 11.9528 14.713 11.7843 14.6245L8.00001 12.6348L4.2157 14.6245C4.04725 14.713 3.84312 14.6983 3.68914 14.5864C3.53517 14.4746 3.45804 14.285 3.4902 14.0974L4.21279 9.88278L1.15103 6.89858C1.01473 6.76574 0.965673 6.56704 1.02448 6.38602C1.08329 6.20501 1.23977 6.07309 1.42811 6.04572L5.65907 5.43091L7.55166 1.59674C7.6359 1.42609 7.80971 1.31805 8.00001 1.31805ZM8.00001 2.94768L6.43944 6.10923C6.3666 6.25679 6.22582 6.35906 6.06298 6.38272L2.57455 6.88963L5.099 9.35013C5.21685 9.46499 5.27063 9.63048 5.24282 9.79268L4.64701 13.2679L7.76733 11.6273C7.913 11.5507 8.08703 11.5507 8.2327 11.6273L11.353 13.2679L10.7572 9.79268C10.7294 9.63048 10.7832 9.46499 10.901 9.35013L13.4255 6.88963L9.93705 6.38272C9.7742 6.35906 9.63343 6.25679 9.56059 6.10923L8.00001 2.94768Z" fill="black"/>
</svg>
