<svg width="16" height="16" viewBox="0 0 16 16" fill="none" xmlns="http://www.w3.org/2000/svg">
    <path fill-rule="evenodd" clip-rule="evenodd" d="M1 5.8335C1 5.55735 1.22386 5.3335 1.5 5.3335H14.5C14.7761 5.3335 15 5.55735 15 5.8335C15 6.10964 14.7761 6.3335 14.5 6.3335H1.5C1.22386 6.3335 1 6.10964 1 5.8335Z" fill="black"/>
    <path fill-rule="evenodd" clip-rule="evenodd" d="M5.83398 1C6.11013 1 6.33398 1.22386 6.33398 1.5V14.5C6.33398 14.7761 6.11013 15 5.83398 15C5.55784 15 5.33398 14.7761 5.33398 14.5V1.5C5.33398 1.22386 5.55784 1 5.83398 1Z" fill="black"/>
    <path fill-rule="evenodd" clip-rule="evenodd" d="M2.8 2C2.58783 2 2.38434 2.08429 2.23431 2.23431C2.08429 2.38434 2 2.58783 2 2.8V13.2C2 13.4122 2.08429 13.6157 2.23431 13.7657C2.38434 13.9157 2.58783 14 2.8 14H13.2C13.4122 14 13.6157 13.9157 13.7657 13.7657C13.9157 13.6157 14 13.4122 14 13.2V2.8C14 2.58783 13.9157 2.38434 13.7657 2.23431C13.6157 2.08429 13.4122 2 13.2 2H2.8ZM13.2 15H2.8C2.32261 15 1.86477 14.8104 1.52721 14.4728C1.18964 14.1352 1 13.6774 1 13.2V2.8C1 2.32261 1.18964 1.86477 1.52721 1.52721C1.86477 1.18964 2.32261 1 2.8 1H13.2C13.6774 1 14.1352 1.18964 14.4728 1.52721C14.8104 1.86477 15 2.32261 15 2.8V13.2C15 13.6774 14.8104 14.1352 14.4728 14.4728C14.1352 14.8104 13.6774 15 13.2 15Z" fill="black"/>
</svg>
