<svg width="16" height="16" viewBox="0 0 16 16" fill="none" xmlns="http://www.w3.org/2000/svg">
<path fill-rule="evenodd" clip-rule="evenodd" d="M1.5 15C1.22386 15 1 14.7761 1 14.5L0.999999 1.5C0.999999 1.22386 1.22386 1 1.5 1L14.5 1C14.7761 1 15 1.22386 15 1.5L15 14.5C15 14.7761 14.7761 15 14.5 15L1.5 15ZM2 14L14 14L14 2L2 2L2 14Z" fill="black"/>
<path fill-rule="evenodd" clip-rule="evenodd" d="M1 6.14282C1 5.86668 1.22386 5.64282 1.5 5.64282L14.5 5.64282C14.7761 5.64282 15 5.86668 15 6.14282C15 6.41896 14.7761 6.64282 14.5 6.64282L1.5 6.64282C1.22386 6.64282 1 6.41896 1 6.14282Z" fill="black"/>
<path fill-rule="evenodd" clip-rule="evenodd" d="M4.28613 5.09521C4.00999 5.09521 3.78613 4.87136 3.78613 4.59521L3.78613 3.35712C3.78613 3.08098 4.00999 2.85712 4.28613 2.85712C4.56228 2.85712 4.78613 3.08098 4.78613 3.35712L4.78613 4.59521C4.78613 4.87136 4.56228 5.09521 4.28613 5.09521Z" fill="black"/>
<path fill-rule="evenodd" clip-rule="evenodd" d="M8 5.09521C7.72386 5.09521 7.5 4.87136 7.5 4.59521L7.5 3.35712C7.5 3.08098 7.72386 2.85712 8 2.85712C8.27614 2.85712 8.5 3.08098 8.5 3.35712L8.5 4.59521C8.5 4.87136 8.27614 5.09521 8 5.09521Z" fill="black"/>
<path fill-rule="evenodd" clip-rule="evenodd" d="M11.7139 5.09521C11.4377 5.09521 11.2139 4.87136 11.2139 4.59521L11.2139 3.35712C11.2139 3.08098 11.4377 2.85712 11.7139 2.85712C11.99 2.85712 12.2139 3.08098 12.2139 3.35712L12.2139 4.59521C12.2139 4.87136 11.99 5.09521 11.7139 5.09521Z" fill="black"/>
</svg>
