<svg width="16" height="16" viewBox="0 0 16 16" fill="none" xmlns="http://www.w3.org/2000/svg">
    <path fill-rule="evenodd" clip-rule="evenodd" d="M1 1.5461C1 1.2445 1.2445 1 1.5461 1H7.58194C7.72678 1 7.86568 1.05754 7.96809 1.15995L14.4608 7.65267C14.4608 7.65271 14.4609 7.65275 14.4609 7.65279C14.6318 7.82359 14.7674 8.02639 14.8599 8.24958C14.9524 8.47284 15 8.71213 15 8.9538C15 9.19547 14.9524 9.43476 14.8599 9.65802C14.7674 9.88122 14.6318 10.084 14.4609 10.2548M14.4608 10.2549L10.2549 14.4608C10.2549 14.4608 10.2549 14.4609 10.2548 14.4609C10.084 14.6318 9.88122 14.7674 9.65802 14.8599C9.43476 14.9524 9.19547 15 8.9538 15C8.71213 15 8.47284 14.9524 8.24958 14.8599C8.02639 14.7674 7.82359 14.6318 7.65279 14.4609C7.65275 14.4609 7.65271 14.4608 7.65267 14.4608L1.15995 7.96809C1.05754 7.86568 1 7.72678 1 7.58194V1.5461M2.0922 2.0922V7.35574L8.42509 13.6886L8.42521 13.6888C8.49461 13.7582 8.57702 13.8133 8.66771 13.8509C8.75841 13.8885 8.85563 13.9078 8.9538 13.9078C9.05198 13.9078 9.14919 13.8885 9.23989 13.8509C9.33059 13.8133 9.41299 13.7582 9.48239 13.6888L9.48251 13.6886L13.6886 9.48251L13.6888 9.48239C13.7582 9.41299 13.8133 9.33059 13.8509 9.23989C13.8885 9.14919 13.9078 9.05198 13.9078 8.9538C13.9078 8.85563 13.8885 8.75841 13.8509 8.66771C13.8133 8.57702 13.7582 8.49461 13.6888 8.42521L13.6886 8.42509L7.35574 2.0922H2.0922Z" fill="black"/>
    <path fill-rule="evenodd" clip-rule="evenodd" d="M5.9081 5.10522C5.46482 5.10522 5.10547 5.46458 5.10547 5.90786C5.10547 6.35114 5.46482 6.71049 5.9081 6.71049C6.35138 6.71049 6.71073 6.35114 6.71073 5.90786C6.71073 5.46458 6.35138 5.10522 5.9081 5.10522ZM4.10547 5.90786C4.10547 4.91229 4.91254 4.10522 5.9081 4.10522C6.90367 4.10522 7.71073 4.91229 7.71073 5.90786C7.71073 6.90342 6.90367 7.71049 5.9081 7.71049C4.91254 7.71049 4.10547 6.90342 4.10547 5.90786Z" fill="black"/>
</svg>
