<svg width="16" height="16" viewBox="0 0 16 16" fill="none" xmlns="http://www.w3.org/2000/svg">
<path fill-rule="evenodd" clip-rule="evenodd" d="M1 2.5C1 2.22386 1.22386 2 1.5 2H14.5C14.7761 2 15 2.22386 15 2.5C15 2.77614 14.7761 3 14.5 3H1.5C1.22386 3 1 2.77614 1 2.5Z" fill="black"/>
<path fill-rule="evenodd" clip-rule="evenodd" d="M3.59961 6.16675C3.59961 5.89061 3.82347 5.66675 4.09961 5.66675H11.8996C12.1758 5.66675 12.3996 5.89061 12.3996 6.16675C12.3996 6.44289 12.1758 6.66675 11.8996 6.66675H4.09961C3.82347 6.66675 3.59961 6.44289 3.59961 6.16675Z" fill="black"/>
<path fill-rule="evenodd" clip-rule="evenodd" d="M1 9.83325C1 9.55711 1.22386 9.33325 1.5 9.33325H14.5C14.7761 9.33325 15 9.55711 15 9.83325C15 10.1094 14.7761 10.3333 14.5 10.3333H1.5C1.22386 10.3333 1 10.1094 1 9.83325Z" fill="black"/>
<path fill-rule="evenodd" clip-rule="evenodd" d="M3.59961 13.5C3.59961 13.2239 3.82347 13 4.09961 13H11.8996C12.1758 13 12.3996 13.2239 12.3996 13.5C12.3996 13.7761 12.1758 14 11.8996 14H4.09961C3.82347 14 3.59961 13.7761 3.59961 13.5Z" fill="black"/>
</svg>
