<svg width="16" height="16" viewBox="0 0 16 16" fill="none" xmlns="http://www.w3.org/2000/svg">
<path fill-rule="evenodd" clip-rule="evenodd" d="M1.5 1C1.77614 1 2 1.22386 2 1.5V14.5C2 14.7761 1.77614 15 1.5 15C1.22386 15 1 14.7761 1 14.5V1.5C1 1.22386 1.22386 1 1.5 1Z" fill="#6D6D6D"/>
<path fill-rule="evenodd" clip-rule="evenodd" d="M14.5 1C14.7761 1 15 1.22386 15 1.5V14.5C15 14.7761 14.7761 15 14.5 15C14.2239 15 14 14.7761 14 14.5V1.5C14 1.22386 14.2239 1 14.5 1Z" fill="#6D6D6D"/>
<path fill-rule="evenodd" clip-rule="evenodd" d="M6.62081 5.4797C6.81607 5.67496 6.81607 5.99154 6.62081 6.18681L4.80769 7.99992L6.62081 9.81303C6.81607 10.0083 6.81607 10.3249 6.62081 10.5201C6.42554 10.7154 6.10896 10.7154 5.9137 10.5201L3.74703 8.35347C3.55177 8.15821 3.55177 7.84163 3.74703 7.64637L5.9137 5.4797C6.10896 5.28444 6.42554 5.28444 6.62081 5.4797Z" fill="#6D6D6D"/>
<path fill-rule="evenodd" clip-rule="evenodd" d="M9.37985 5.4797C9.57511 5.28444 9.89169 5.28444 10.087 5.4797L12.2536 7.64637C12.4489 7.84163 12.4489 8.15821 12.2536 8.35347L10.087 10.5201C9.89169 10.7154 9.57511 10.7154 9.37985 10.5201C9.18458 10.3249 9.18458 10.0083 9.37985 9.81303L11.193 7.99992L9.37985 6.18681C9.18458 5.99154 9.18458 5.67496 9.37985 5.4797Z" fill="#6D6D6D"/>
</svg>
