<svg width="16" height="16" viewBox="0 0 16 16" fill="none" xmlns="http://www.w3.org/2000/svg">
<path fill-rule="evenodd" clip-rule="evenodd" d="M1 2.5C1 2.22386 1.22386 2 1.5 2H14.5C14.7761 2 15 2.22386 15 2.5C15 2.77614 14.7761 3 14.5 3H1.5C1.22386 3 1 2.77614 1 2.5Z" fill="black"/>
<path fill-rule="evenodd" clip-rule="evenodd" d="M1 6.1665C1 5.89036 1.22386 5.6665 1.5 5.6665H14.5C14.7761 5.6665 15 5.89036 15 6.1665C15 6.44265 14.7761 6.6665 14.5 6.6665H1.5C1.22386 6.6665 1 6.44265 1 6.1665Z" fill="black"/>
<path fill-rule="evenodd" clip-rule="evenodd" d="M1 9.8335C1 9.55735 1.22386 9.3335 1.5 9.3335H14.5C14.7761 9.3335 15 9.55735 15 9.8335C15 10.1096 14.7761 10.3335 14.5 10.3335H1.5C1.22386 10.3335 1 10.1096 1 9.8335Z" fill="black"/>
<path fill-rule="evenodd" clip-rule="evenodd" d="M1 13.5C1 13.2239 1.22386 13 1.5 13H14.5C14.7761 13 15 13.2239 15 13.5C15 13.7761 14.7761 14 14.5 14H1.5C1.22386 14 1 13.7761 1 13.5Z" fill="black"/>
</svg>
