<svg width="16" height="16" viewBox="0 0 16 16" fill="none" xmlns="http://www.w3.org/2000/svg">
    <path fill-rule="evenodd" clip-rule="evenodd" d="M1 2.5C1 2.22386 1.22386 2 1.5 2H14.5C14.7761 2 15 2.22386 15 2.5C15 2.77614 14.7761 3 14.5 3H1.5C1.22386 3 1 2.77614 1 2.5Z" fill="black"/>
    <path fill-rule="evenodd" clip-rule="evenodd" d="M6.2002 6.1665C6.2002 5.89036 6.42405 5.6665 6.7002 5.6665H14.5002C14.7763 5.6665 15.0002 5.89036 15.0002 6.1665C15.0002 6.44265 14.7763 6.6665 14.5002 6.6665H6.7002C6.42405 6.6665 6.2002 6.44265 6.2002 6.1665Z" fill="black"/>
    <path fill-rule="evenodd" clip-rule="evenodd" d="M1 9.8335C1 9.55735 1.22386 9.3335 1.5 9.3335H14.5C14.7761 9.3335 15 9.55735 15 9.8335C15 10.1096 14.7761 10.3335 14.5 10.3335H1.5C1.22386 10.3335 1 10.1096 1 9.8335Z" fill="black"/>
    <path fill-rule="evenodd" clip-rule="evenodd" d="M6.2002 13.5C6.2002 13.2239 6.42405 13 6.7002 13H14.5002C14.7763 13 15.0002 13.2239 15.0002 13.5C15.0002 13.7761 14.7763 14 14.5002 14H6.7002C6.42405 14 6.2002 13.7761 6.2002 13.5Z" fill="black"/>
</svg>
