<svg width="16" height="16" viewBox="0 0 16 16" fill="none" xmlns="http://www.w3.org/2000/svg">
<path fill-rule="evenodd" clip-rule="evenodd" d="M1 11.8999C1 11.6238 1.22386 11.3999 1.5 11.3999H14.5C14.7761 11.3999 15 11.6238 15 11.8999V14.4999C15 14.776 14.7761 14.9999 14.5 14.9999H1.5C1.22386 14.9999 1 14.776 1 14.4999V11.8999ZM2 12.3999V13.9999H14V12.3999H2Z" fill="black"/>
<path fill-rule="evenodd" clip-rule="evenodd" d="M7.09259 1.34189C7.16065 1.13772 7.35172 1 7.56693 1H8.4336C8.64881 1 8.83988 1.13772 8.90794 1.34189L11.5079 9.14189C11.5953 9.40386 11.4537 9.68702 11.1917 9.77434C10.9297 9.86167 10.6466 9.72009 10.5593 9.45811L8.07322 2H7.92731L5.44127 9.45811C5.35395 9.72009 5.07079 9.86167 4.80882 9.77434C4.54685 9.68702 4.40527 9.40386 4.49259 9.14189L7.09259 1.34189Z" fill="black"/>
<path fill-rule="evenodd" clip-rule="evenodd" d="M3.59961 9.30005C3.59961 9.02391 3.82347 8.80005 4.09961 8.80005H6.69961C6.97575 8.80005 7.19961 9.02391 7.19961 9.30005C7.19961 9.57619 6.97575 9.80005 6.69961 9.80005H4.09961C3.82347 9.80005 3.59961 9.57619 3.59961 9.30005Z" fill="black"/>
<path fill-rule="evenodd" clip-rule="evenodd" d="M8.7998 9.30005C8.7998 9.02391 9.02366 8.80005 9.2998 8.80005H11.8998C12.1759 8.80005 12.3998 9.02391 12.3998 9.30005C12.3998 9.57619 12.1759 9.80005 11.8998 9.80005H9.2998C9.02366 9.80005 8.7998 9.57619 8.7998 9.30005Z" fill="black"/>
<path fill-rule="evenodd" clip-rule="evenodd" d="M5.62207 5.83325C5.62207 5.55711 5.84593 5.33325 6.12207 5.33325H9.8782C10.1543 5.33325 10.3782 5.55711 10.3782 5.83325C10.3782 6.10939 10.1543 6.33325 9.8782 6.33325H6.12207C5.84593 6.33325 5.62207 6.10939 5.62207 5.83325Z" fill="black"/>
</svg>
