<svg width="16" height="16" viewBox="0 0 16 16" fill="none" xmlns="http://www.w3.org/2000/svg">
    <path fill-rule="evenodd" clip-rule="evenodd" d="M2.74411 6.74982C2.78866 6.55495 2.96201 6.41675 3.16191 6.41675L14.4286 6.41675C14.559 6.41675 14.6824 6.47616 14.7637 6.57816C14.845 6.68016 14.8754 6.81365 14.8464 6.94081L13.1131 14.5241C13.0685 14.719 12.8952 14.8572 12.6953 14.8572L1.42858 14.8572C1.29813 14.8572 1.17478 14.7978 1.09346 14.6958C1.01215 14.5938 0.981712 14.4603 1.01078 14.3332L2.74411 6.74982ZM3.50357 7.27389L1.96616 14.0001L12.3536 14.0001L13.891 7.27389L3.50357 7.27389Z" fill="#6D6D6D"/>
    <path fill-rule="evenodd" clip-rule="evenodd" d="M11.9288 1.12553C12.0961 0.958158 12.3675 0.958158 12.5348 1.12553L14.1053 2.69601C14.1857 2.77639 14.2309 2.8854 14.2309 2.99906C14.2309 3.11272 14.1857 3.22173 14.1053 3.30211L12.5348 4.87259C12.3675 5.03996 12.0961 5.03996 11.9288 4.87259C11.7614 4.70523 11.7614 4.43387 11.9288 4.2665L12.7676 3.42763L2.78599 3.42763C2.5493 3.42763 2.35742 3.23575 2.35742 2.99906C2.35742 2.76237 2.5493 2.57049 2.78599 2.57049L12.7676 2.57049L11.9288 1.73162C11.7614 1.56425 11.7614 1.29289 11.9288 1.12553Z" fill="#6D6D6D"/>
</svg>
