<svg width="16" height="16" viewBox="0 0 16 16" fill="none" xmlns="http://www.w3.org/2000/svg">
<path fill-rule="evenodd" clip-rule="evenodd" d="M8 2C6.4087 2 4.88258 2.63214 3.75736 3.75736C2.63214 4.88258 2 6.4087 2 8C2 8.27614 1.77614 8.5 1.5 8.5C1.22386 8.5 1 8.27614 1 8C1 6.14348 1.7375 4.36301 3.05025 3.05025C4.36301 1.7375 6.14348 1 8 1H9.77273C9.97496 1 10.1573 1.12182 10.2347 1.30866C10.3121 1.4955 10.2693 1.71055 10.1263 1.85355L8.94446 3.03537C8.7492 3.23063 8.43262 3.23063 8.23736 3.03537C8.04209 2.84011 8.04209 2.52353 8.23736 2.32826L8.56562 2H8Z" fill="black"/>
<path fill-rule="evenodd" clip-rule="evenodd" d="M14.4993 7.5C14.7754 7.5 14.9993 7.72386 14.9993 8C14.9993 9.85652 14.2618 11.637 12.9491 12.9497C11.6363 14.2625 9.85582 15 7.9993 15H6.22658C6.02435 15 5.84203 14.8782 5.76464 14.6913C5.68725 14.5045 5.73002 14.2894 5.87302 14.1464L7.05484 12.9646C7.2501 12.7694 7.56669 12.7694 7.76195 12.9646C7.95721 13.1599 7.95721 13.4765 7.76195 13.6717L7.43368 14H7.9993C9.5906 14 11.1167 13.3679 12.2419 12.2426C13.3672 11.1174 13.9993 9.5913 13.9993 8C13.9993 7.72386 14.2232 7.5 14.4993 7.5Z" fill="black"/>
<path fill-rule="evenodd" clip-rule="evenodd" d="M4.58082 6.04149C4.68337 5.7851 4.97436 5.66039 5.23075 5.76295L7.9996 6.87049L10.7685 5.76295C11.0248 5.66039 11.3158 5.7851 11.4184 6.04149C11.5209 6.29788 11.3962 6.58887 11.1398 6.69142L8.1853 7.87324C8.06609 7.92092 7.93311 7.92092 7.8139 7.87324L4.85936 6.69142C4.60297 6.58887 4.47826 6.29788 4.58082 6.04149Z" fill="black"/>
<path fill-rule="evenodd" clip-rule="evenodd" d="M8 6.90918C8.27614 6.90918 8.5 7.13304 8.5 7.40918V10.9546C8.5 11.2308 8.27614 11.4546 8 11.4546C7.72386 11.4546 7.5 11.2308 7.5 10.9546V7.40918C7.5 7.13304 7.72386 6.90918 8 6.90918Z" fill="black"/>
<path fill-rule="evenodd" clip-rule="evenodd" d="M7.81475 4.58117C7.93395 4.53349 8.06693 4.53349 8.18614 4.58117L11.1407 5.76299C11.3305 5.83892 11.455 6.02278 11.455 6.22723V9.77268C11.455 9.97714 11.3305 10.161 11.1407 10.2369L8.18614 11.4187C8.06693 11.4664 7.93395 11.4664 7.81475 11.4187L4.8602 10.2369C4.67037 10.161 4.5459 9.97714 4.5459 9.77268V6.22723C4.5459 6.02278 4.67037 5.83892 4.8602 5.76299L7.81475 4.58117ZM5.5459 6.56574V9.43417L8.00044 10.416L10.455 9.43417V6.56574L8.00044 5.58393L5.5459 6.56574Z" fill="black"/>
</svg>
