<svg width="16" height="16" viewBox="0 0 16 16" fill="none" xmlns="http://www.w3.org/2000/svg">
<path fill-rule="evenodd" clip-rule="evenodd" d="M8.1416 1C8.41774 1 8.6416 1.22386 8.6416 1.5V14.5C8.6416 14.7762 8.41774 15 8.1416 15C7.86546 15 7.6416 14.7762 7.6416 14.5V1.5C7.6416 1.22386 7.86546 1 8.1416 1Z" fill="#6D6D6D"/>
<path fill-rule="evenodd" clip-rule="evenodd" d="M2.04427 6.97593C2.27683 7.12482 2.34467 7.43405 2.19578 7.66662C2.06752 7.86697 2.00977 8.05855 2.00977 8.23947H1.00977C1.00977 7.8351 1.14123 7.45916 1.35358 7.12745C1.50247 6.89489 1.8117 6.82705 2.04427 6.97593Z" fill="#6D6D6D"/>
<path fill-rule="evenodd" clip-rule="evenodd" d="M4.15433 6.35653C4.03033 6.40302 3.91035 6.45103 3.79488 6.50052L3.40095 5.58137C3.53163 5.52537 3.66597 5.47165 3.80329 5.42017L4.15433 6.35653ZM3.11944 6.83853C3.00952 6.90361 2.90858 6.96978 2.81698 7.03679L2.22656 6.22969C2.34723 6.14142 2.47556 6.05761 2.60997 5.97804L3.11944 6.83853Z" fill="#6D6D6D"/>
<path fill-rule="evenodd" clip-rule="evenodd" d="M6.01335 5.89522L5.52241 5.98995C5.21283 6.04969 4.92744 6.11682 4.65462 6.1993L4.36523 5.24209C4.67902 5.14722 4.99915 5.07248 5.33294 5.00807L5.82388 4.91333L6.01335 5.89522Z" fill="#6D6D6D"/>
<path fill-rule="evenodd" clip-rule="evenodd" d="M14.6348 5.4684C14.7242 5.72967 14.5849 6.01394 14.3236 6.10334L13.8835 6.25391C14.5411 6.75156 14.9902 7.38507 14.9997 8.14422C15.0186 9.28349 14.047 10.1671 12.8438 10.74C11.5968 11.3339 9.90254 11.7011 8.05463 11.7285C6.2059 11.756 4.50161 11.435 3.2369 10.8743C2.0157 10.3328 1.01964 9.47464 1.00008 8.33746C0.995324 8.06136 1.2153 7.83368 1.4914 7.82893C1.7675 7.82418 1.99518 8.04415 1.99993 8.32026C2.00874 8.83246 2.49337 9.45074 3.64222 9.96011C4.74757 10.4502 6.30269 10.7544 8.03979 10.7286C9.77775 10.7029 11.324 10.3562 12.4139 9.83719C13.5471 9.2975 14.0086 8.66959 13.9999 8.16011L13.9998 8.15748L13.9998 8.15748C13.9956 7.80475 13.763 7.39873 13.2261 7.00947L13.2397 7.51259C13.2471 7.78863 13.0294 8.01845 12.7534 8.02592C12.4773 8.03338 12.2475 7.81565 12.24 7.53961L12.2023 6.14319C12.1964 5.92453 12.3333 5.72742 12.5402 5.6566L13.9999 5.15719C14.2611 5.06779 14.5454 5.20713 14.6348 5.4684Z" fill="#6D6D6D"/>
</svg>
