<svg width="16" height="16" viewBox="0 0 16 16" fill="none" xmlns="http://www.w3.org/2000/svg">
<path fill-rule="evenodd" clip-rule="evenodd" d="M1 7.85815C1 7.58201 1.22386 7.35815 1.5 7.35815H14.5002C14.7764 7.35815 15.0002 7.58201 15.0002 7.85815C15.0002 8.1343 14.7764 8.35815 14.5002 8.35815H1.5C1.22386 8.35815 1 8.1343 1 7.85815Z" fill="#6D6D6D"/>
<path fill-rule="evenodd" clip-rule="evenodd" d="M7.66733 13.8057C7.86758 13.9339 8.05913 13.9917 8.24007 13.9917V14.9917C7.83573 14.9917 7.45973 14.8603 7.12793 14.6477L7.66733 13.8057Z" fill="#6D6D6D"/>
<path fill-rule="evenodd" clip-rule="evenodd" d="M5.58406 12.6013C5.52806 12.4706 5.47434 12.3363 5.42285 12.1989L6.35921 11.8479C6.4057 11.9719 6.45372 12.0919 6.50321 12.2074L5.58406 12.6013ZM6.23236 13.7757C6.14409 13.6551 6.06029 13.5267 5.98072 13.3923L6.84122 12.8829C6.9063 12.9928 6.97247 13.0937 7.03948 13.1853L6.23236 13.7757Z" fill="#6D6D6D"/>
<path fill-rule="evenodd" clip-rule="evenodd" d="M5.99165 10.481C6.05139 10.7905 6.11853 11.0759 6.20101 11.3487L5.2438 11.6381C5.14894 11.3244 5.07418 11.0042 5.00977 10.6704L5.99165 10.481Z" fill="#6D6D6D"/>
<path fill-rule="evenodd" clip-rule="evenodd" d="M9.83754 3.5862C9.29784 2.45289 8.66992 1.99138 8.16042 2.00014L8.15781 2.00019L8.15781 2.00018C7.80502 2.00441 7.39893 2.23713 7.00962 2.77416L7.51348 2.76067C7.78953 2.75328 8.0193 2.97107 8.02669 3.24711C8.03408 3.52316 7.81629 3.75292 7.54025 3.76031L6.14334 3.79771C5.92469 3.80357 5.72761 3.66662 5.65685 3.45966L5.15789 2.00036C5.06855 1.73907 5.20794 1.45482 5.46923 1.36548C5.73052 1.27614 6.01476 1.41554 6.1041 1.67683L6.25437 2.11631C6.752 1.45884 7.38546 1.00987 8.14452 1.00027C9.28381 0.981418 10.1674 1.95304 10.7404 3.15625C11.3343 4.40332 11.7015 6.09759 11.7289 7.94551C11.7563 9.79426 11.4354 11.4986 10.8746 12.7633C10.3332 13.9845 9.47498 14.9806 8.33778 15.0002C8.06168 15.0049 7.834 14.785 7.82925 14.5089C7.8245 14.2328 8.04447 14.0051 8.32057 14.0003C8.83279 13.9915 9.45108 13.5069 9.96046 12.358C10.4506 11.2526 10.7548 9.69747 10.729 7.96035C10.7032 6.22238 10.3566 4.6761 9.83754 3.5862Z" fill="#6D6D6D"/>
</svg>
