<svg width="16" height="16" viewBox="0 0 16 16" fill="none" xmlns="http://www.w3.org/2000/svg">
<path fill-rule="evenodd" clip-rule="evenodd" d="M1.65055 1.00393C1.92668 1.00646 2.14847 1.23237 2.14593 1.5085L2.10994 5.42783L5.85069 4.17626C6.11256 4.08864 6.39588 4.2299 6.4835 4.49178C6.57111 4.75365 6.42985 5.03697 6.16798 5.12459L1.76216 6.59868C1.60888 6.64996 1.44027 6.62399 1.30953 6.52895C1.17879 6.43392 1.10205 6.28155 1.10354 6.11992L1.14598 1.49931C1.14851 1.22318 1.37442 1.00139 1.65055 1.00393Z" fill="black"/>
<path fill-rule="evenodd" clip-rule="evenodd" d="M4.52362 1.83181C6.15856 0.954302 8.07512 0.762207 9.8517 1.29779C11.6283 1.83337 13.1193 3.05275 13.9968 4.68769C14.8743 6.32263 15.0664 8.2392 14.5309 10.0158C14.4511 10.2802 14.1722 10.4299 13.9078 10.3502C13.6434 10.2705 13.4937 9.99152 13.5734 9.72713C14.0324 8.20449 13.8678 6.56186 13.1157 5.1606C12.3636 3.75935 11.0857 2.71426 9.56306 2.25523C8.04041 1.7962 6.39779 1.96083 4.99653 2.71292C3.59528 3.46501 2.55019 4.74294 2.09116 6.26558C2.01145 6.52997 1.73251 6.67969 1.46812 6.59998C1.20373 6.52028 1.05401 6.24133 1.13372 5.97694C1.6693 4.20037 2.88868 2.70933 4.52362 1.83181Z" fill="black"/>
<path fill-rule="evenodd" clip-rule="evenodd" d="M3.28746 12.5911C3.46532 12.3798 3.78074 12.3528 3.99198 12.5306C4.51009 12.9669 5.09848 13.312 5.7321 13.5514C5.99043 13.6489 6.12074 13.9375 6.02316 14.1958C5.92558 14.4541 5.63707 14.5844 5.37874 14.4868C4.63926 14.2075 3.95256 13.8047 3.34789 13.2956C3.13665 13.1177 3.1096 12.8023 3.28746 12.5911Z" fill="black"/>
<path fill-rule="evenodd" clip-rule="evenodd" d="M10.3012 13.9785C10.3849 14.2417 10.2394 14.5228 9.97624 14.6065C9.28837 14.8252 8.5708 14.9363 7.84899 14.9357C7.84891 14.9357 7.84906 14.9357 7.84899 14.9357H7.7002C7.42405 14.9357 7.2002 14.7119 7.2002 14.4357C7.2002 14.1596 7.42405 13.9357 7.7002 13.9357H7.84916C8.46796 13.9362 9.08351 13.841 9.6732 13.6535C9.93636 13.5698 10.2175 13.7153 10.3012 13.9785Z" fill="black"/>
<path fill-rule="evenodd" clip-rule="evenodd" d="M13.4757 11.2257C13.7025 11.3831 13.7589 11.6947 13.6014 11.9215C13.1705 12.5427 12.6422 13.0905 12.0371 13.5437C11.816 13.7093 11.5027 13.6643 11.3371 13.4433C11.1716 13.2222 11.2166 12.9089 11.4376 12.7433C11.9568 12.3544 12.41 11.8845 12.7798 11.3515C12.9372 11.1246 13.2488 11.0683 13.4757 11.2257Z" fill="black"/>
<path fill-rule="evenodd" clip-rule="evenodd" d="M1.39371 8.83724C1.66353 8.77848 1.92989 8.94958 1.98865 9.21939C2.12801 9.8593 2.37204 10.4718 2.71092 11.0322C2.8538 11.2685 2.77807 11.5759 2.54177 11.7188C2.30547 11.8617 1.99808 11.786 1.85519 11.5497C1.45937 10.8951 1.17433 10.1796 1.01156 9.43218C0.952796 9.16236 1.12389 8.896 1.39371 8.83724Z" fill="black"/>
</svg>
