<svg width="16" height="16" viewBox="0 0 16 16" fill="none" xmlns="http://www.w3.org/2000/svg">
<path fill-rule="evenodd" clip-rule="evenodd" d="M1 13.5C1 13.2239 1.22386 13 1.5 13H14.5C14.7761 13 15 13.2239 15 13.5C15 13.7761 14.7761 14 14.5 14H1.5C1.22386 14 1 13.7761 1 13.5Z" fill="black"/>
<path fill-rule="evenodd" clip-rule="evenodd" d="M4.09961 1C4.37575 1 4.59961 1.22386 4.59961 1.5V7.13333C4.59961 8.03507 4.95782 8.89987 5.59545 9.5375C6.23307 10.1751 7.09787 10.5333 7.99961 10.5333C8.90134 10.5333 9.76615 10.1751 10.4038 9.5375C11.0414 8.89987 11.3996 8.03507 11.3996 7.13333V1.5C11.3996 1.22386 11.6235 1 11.8996 1C12.1758 1 12.3996 1.22386 12.3996 1.5V7.13333C12.3996 8.30029 11.936 9.41944 11.1109 10.2446C10.2857 11.0698 9.16656 11.5333 7.99961 11.5333C6.83266 11.5333 5.7135 11.0698 4.88834 10.2446C4.06318 9.41944 3.59961 8.30029 3.59961 7.13333V1.5C3.59961 1.22386 3.82347 1 4.09961 1Z" fill="black"/>
<path fill-rule="evenodd" clip-rule="evenodd" d="M1.86719 1.5C1.86719 1.22386 2.09105 1 2.36719 1H5.83385C6.11 1 6.33385 1.22386 6.33385 1.5C6.33385 1.77614 6.11 2 5.83385 2H2.36719C2.09105 2 1.86719 1.77614 1.86719 1.5Z" fill="black"/>
<path fill-rule="evenodd" clip-rule="evenodd" d="M9.66602 1.5C9.66602 1.22386 9.88987 1 10.166 1H13.6327C13.9088 1 14.1327 1.22386 14.1327 1.5C14.1327 1.77614 13.9088 2 13.6327 2H10.166C9.88987 2 9.66602 1.77614 9.66602 1.5Z" fill="black"/>
</svg>
