<svg width="16" height="16" viewBox="0 0 16 16" fill="none" xmlns="http://www.w3.org/2000/svg">
<path fill-rule="evenodd" clip-rule="evenodd" d="M4.46667 2.3667C4.46667 2.09056 4.69052 1.8667 4.96667 1.8667H13.2C13.6774 1.8667 14.1352 2.05634 14.4728 2.39391C14.8104 2.73147 15 3.18931 15 3.6667V8.8667C15 9.34409 14.8104 9.80193 14.4728 10.1395C14.1352 10.4771 13.6774 10.6667 13.2 10.6667H1.5C1.22386 10.6667 1 10.4428 1 10.1667C1 9.89056 1.22386 9.6667 1.5 9.6667H13.2C13.4122 9.6667 13.6157 9.58241 13.7657 9.43238C13.9157 9.28236 14 9.07887 14 8.8667V3.6667C14 3.45453 13.9157 3.25104 13.7657 3.10101C13.6157 2.95098 13.4122 2.8667 13.2 2.8667H4.96667C4.69052 2.8667 4.46667 2.64284 4.46667 2.3667Z" fill="black"/>
<path fill-rule="evenodd" clip-rule="evenodd" d="M5.32022 6.3464C5.51548 6.54166 5.51548 6.85824 5.32022 7.0535L2.20711 10.1666L5.32022 13.2797C5.51548 13.475 5.51548 13.7916 5.32022 13.9868C5.12496 14.1821 4.80838 14.1821 4.61311 13.9868L1.14645 10.5202C0.951184 10.3249 0.951184 10.0083 1.14645 9.81306L4.61311 6.3464C4.80838 6.15114 5.12496 6.15114 5.32022 6.3464Z" fill="black"/>
</svg>
