<svg width="16" height="16" viewBox="0 0 16 16" fill="none" xmlns="http://www.w3.org/2000/svg">
<path fill-rule="evenodd" clip-rule="evenodd" d="M3.23385 7.19995C3.0316 7.19995 2.86719 7.36436 2.86719 7.56662V13.6333C2.86719 13.8355 3.0316 14 3.23385 14H12.7672C12.9694 14 13.1339 13.8355 13.1339 13.6333V7.56662C13.1339 7.36436 12.9694 7.19995 12.7672 7.19995H3.23385ZM1.86719 7.56662C1.86719 6.81208 2.47931 6.19995 3.23385 6.19995H12.7672C13.5217 6.19995 14.1339 6.81208 14.1339 7.56662V13.6333C14.1339 14.3878 13.5217 15 12.7672 15H3.23385C2.47931 15 1.86719 14.3878 1.86719 13.6333V7.56662Z" fill="black"/>
<path fill-rule="evenodd" clip-rule="evenodd" d="M8.00013 2C6.60101 2 5.4668 3.13421 5.4668 4.53333V6.7C5.4668 6.97614 5.24294 7.2 4.9668 7.2C4.69065 7.2 4.4668 6.97614 4.4668 6.7V4.53333C4.4668 2.58192 6.04872 1 8.00013 1C9.60185 1 10.953 2.06463 11.3871 3.52415C11.4658 3.78884 11.315 4.06721 11.0503 4.14592C10.7856 4.22464 10.5072 4.07387 10.4285 3.80918C10.1172 2.76231 9.14747 2 8.00013 2Z" fill="black"/>
<path fill-rule="evenodd" clip-rule="evenodd" d="M8.0002 9.80005C7.55837 9.80005 7.2002 10.1582 7.2002 10.6C7.2002 11.0419 7.55837 11.4 8.0002 11.4C8.44202 11.4 8.8002 11.0419 8.8002 10.6C8.8002 10.1582 8.44202 9.80005 8.0002 9.80005ZM6.2002 10.6C6.2002 9.60594 7.00608 8.80005 8.0002 8.80005C8.99431 8.80005 9.8002 9.60594 9.8002 10.6C9.8002 11.5942 8.99431 12.4 8.0002 12.4C7.00608 12.4 6.2002 11.5942 6.2002 10.6Z" fill="black"/>
</svg>
