<svg width="16" height="16" viewBox="0 0 16 16" fill="none" xmlns="http://www.w3.org/2000/svg">
<path fill-rule="evenodd" clip-rule="evenodd" d="M7.99805 1C8.27419 1 8.49805 1.22386 8.49805 1.5L8.49805 14.5C8.49805 14.7761 8.27419 15 7.99805 15C7.7219 15 7.49805 14.7761 7.49805 14.5L7.49805 1.5C7.49805 1.22386 7.7219 1 7.99805 1Z" fill="black"/>
<path fill-rule="evenodd" clip-rule="evenodd" d="M12.6856 6.18689C12.4903 6.38215 12.1737 6.38215 11.9785 6.18689L7.9987 2.20711L4.01892 6.18689C3.82366 6.38215 3.50707 6.38215 3.31181 6.18689C3.11655 5.99162 3.11655 5.67504 3.31181 5.47978L7.64514 1.14645C7.84041 0.951185 8.15699 0.951185 8.35225 1.14645L12.6856 5.47978C12.8808 5.67504 12.8808 5.99162 12.6856 6.18689Z" fill="black"/>
</svg>
