<svg width="16" height="16" viewBox="0 0 16 16" fill="none" xmlns="http://www.w3.org/2000/svg">
<path fill-rule="evenodd" clip-rule="evenodd" d="M8 1C8.27614 1 8.5 1.22386 8.5 1.5V11.0333C8.5 11.3095 8.27614 11.5333 8 11.5333C7.72386 11.5333 7.5 11.3095 7.5 11.0333V1.5C7.5 1.22386 7.72386 1 8 1Z" fill="white"/>
<path fill-rule="evenodd" clip-rule="evenodd" d="M7.64606 1.14645C7.84132 0.951184 8.1579 0.951184 8.35316 1.14645L12.2532 5.04645C12.4484 5.24171 12.4484 5.55829 12.2532 5.75355C12.0579 5.94882 11.7413 5.94882 11.5461 5.75355L7.99961 2.20711L4.45316 5.75355C4.2579 5.94882 3.94132 5.94882 3.74606 5.75355C3.55079 5.55829 3.55079 5.24171 3.74606 5.04645L7.64606 1.14645Z" fill="white"/>
<path fill-rule="evenodd" clip-rule="evenodd" d="M1 14.5C1 14.2239 1.22386 14 1.5 14H14.5C14.7761 14 15 14.2239 15 14.5C15 14.7761 14.7761 15 14.5 15H1.5C1.22386 15 1 14.7761 1 14.5Z" fill="white"/>
</svg>
