<svg width="16" height="16" viewBox="0 0 16 16" fill="none" xmlns="http://www.w3.org/2000/svg">
<path fill-rule="evenodd" clip-rule="evenodd" d="M1 2.5C1 2.22386 1.22386 2 1.5 2H11.9C12.1761 2 12.4 2.22386 12.4 2.5V4.23333C12.4 4.50948 12.1761 4.73333 11.9 4.73333C11.6239 4.73333 11.4 4.50948 11.4 4.23333V3H2V4.23333C2 4.50948 1.77614 4.73333 1.5 4.73333C1.22386 4.73333 1 4.50948 1 4.23333V2.5Z" fill="#1C00C2"/>
<path fill-rule="evenodd" clip-rule="evenodd" d="M6.7002 2C6.97634 2 7.2002 2.22386 7.2002 2.5V13.7667C7.2002 14.0428 6.97634 14.2667 6.7002 14.2667C6.42405 14.2667 6.2002 14.0428 6.2002 13.7667V2.5C6.2002 2.22386 6.42405 2 6.7002 2Z" fill="#1C00C2"/>
<path fill-rule="evenodd" clip-rule="evenodd" d="M4.46582 13.7671C4.46582 13.4909 4.68968 13.2671 4.96582 13.2671H8.43249C8.70863 13.2671 8.93249 13.4909 8.93249 13.7671C8.93249 14.0432 8.70863 14.2671 8.43249 14.2671H4.96582C4.68968 14.2671 4.46582 14.0432 4.46582 13.7671Z" fill="#1C00C2"/>
<path fill-rule="evenodd" clip-rule="evenodd" d="M8.7998 7.7002C8.7998 7.42405 9.02366 7.2002 9.2998 7.2002H14.4998C14.7759 7.2002 14.9998 7.42405 14.9998 7.7002V8.56686C14.9998 8.843 14.7759 9.06686 14.4998 9.06686C14.2237 9.06686 13.9998 8.843 13.9998 8.56686V8.2002H9.7998V8.56686C9.7998 8.843 9.57595 9.06686 9.2998 9.06686C9.02366 9.06686 8.7998 8.843 8.7998 8.56686V7.7002Z" fill="#1C00C2"/>
<path fill-rule="evenodd" clip-rule="evenodd" d="M11.8994 7.2002C12.1756 7.2002 12.3994 7.42405 12.3994 7.7002V13.7669C12.3994 14.043 12.1756 14.2669 11.8994 14.2669C11.6233 14.2669 11.3994 14.043 11.3994 13.7669V7.7002C11.3994 7.42405 11.6233 7.2002 11.8994 7.2002Z" fill="#1C00C2"/>
<path fill-rule="evenodd" clip-rule="evenodd" d="M10.1006 13.7671C10.1006 13.4909 10.3244 13.2671 10.6006 13.2671H13.2006C13.4767 13.2671 13.7006 13.4909 13.7006 13.7671C13.7006 14.0432 13.4767 14.2671 13.2006 14.2671H10.6006C10.3244 14.2671 10.1006 14.0432 10.1006 13.7671Z" fill="#1C00C2"/>
</svg>
