<svg width="16" height="16" viewBox="0 0 16 16" fill="none" xmlns="http://www.w3.org/2000/svg">
<path d="M7.99965 12.8233C8.48487 12.8233 8.87821 12.4273 8.87821 11.9389C8.87821 11.4504 8.48487 11.0544 7.99965 11.0544C7.51444 11.0544 7.12109 11.4504 7.12109 11.9389C7.12109 12.4273 7.51444 12.8233 7.99965 12.8233Z" fill="black"/>
<path fill-rule="evenodd" clip-rule="evenodd" d="M8 4.80566C8.27614 4.80566 8.5 5.02952 8.5 5.30566V9.72783C8.5 10.004 8.27614 10.2278 8 10.2278C7.72386 10.2278 7.5 10.004 7.5 9.72783V5.30566C7.5 5.02952 7.72386 4.80566 8 4.80566Z" fill="black"/>
<path fill-rule="evenodd" clip-rule="evenodd" d="M8 2.3501C7.90537 2.3501 7.81229 2.37587 7.73061 2.42497C7.64895 2.47406 7.58157 2.54474 7.53597 2.62987C7.53595 2.62991 7.536 2.62983 7.53597 2.62987L2.06359 12.8607C2.06356 12.8608 2.06362 12.8606 2.06359 12.8607C2.02004 12.9423 1.99804 13.0343 2.00014 13.1273C2.00223 13.2204 2.02827 13.3112 2.07547 13.3907C2.12266 13.4702 2.18928 13.5356 2.26852 13.5809C2.34774 13.6262 2.43702 13.6499 2.52768 13.6499H13.4723C13.563 13.6499 13.6523 13.6262 13.7315 13.5809C13.8107 13.5356 13.8773 13.4702 13.9245 13.3907C13.9717 13.3112 13.9978 13.2204 13.9999 13.1273C14.002 13.0342 13.98 12.9424 13.9364 12.8607L8.46409 2.62999C8.46407 2.62995 8.46411 2.63003 8.46409 2.62999C8.4185 2.54486 8.35105 2.47406 8.26939 2.42497C8.18771 2.37587 8.09463 2.3501 8 2.3501ZM1.18149 12.3896C1.05676 12.6232 0.994436 12.8851 1.00039 13.1498C1.00634 13.4145 1.08038 13.6734 1.21551 13.9011C1.35066 14.1288 1.5424 14.3177 1.77232 14.4491C2.00226 14.5805 2.26237 14.6498 2.52723 14.6499H13.4725C13.7374 14.6498 13.9977 14.5805 14.2277 14.4491C14.4576 14.3177 14.6493 14.1288 14.7845 13.9011C14.9196 13.6734 14.9937 13.4145 14.9996 13.1498C15.0056 12.8851 14.9432 12.6232 14.8185 12.3896L9.34581 2.15821C9.21536 1.9145 9.02151 1.71032 8.78457 1.56789C8.54761 1.42545 8.27649 1.3501 8 1.3501C7.72351 1.3501 7.45239 1.42545 7.21542 1.56789C6.97849 1.71031 6.7847 1.91438 6.65426 2.1581L1.18149 12.3896Z" fill="black"/>
</svg>
