<svg width="16" height="16" viewBox="0 0 16 16" fill="none" xmlns="http://www.w3.org/2000/svg">
<path fill-rule="evenodd" clip-rule="evenodd" d="M7.07143 2C4.27056 2 2 4.27056 2 7.07143C2 9.8723 4.27056 12.1429 7.07143 12.1429C9.8723 12.1429 12.1429 9.8723 12.1429 7.07143C12.1429 4.27056 9.8723 2 7.07143 2ZM1 7.07143C1 3.71827 3.71827 1 7.07143 1C10.4246 1 13.1429 3.71827 13.1429 7.07143C13.1429 10.4246 10.4246 13.1429 7.07143 13.1429C3.71827 13.1429 1 10.4246 1 7.07143Z" fill="black"/>
<path fill-rule="evenodd" clip-rule="evenodd" d="M10.6572 10.6567C10.8525 10.4614 11.169 10.4614 11.3643 10.6567L14.8539 14.1463C15.0491 14.3415 15.0491 14.6581 14.8539 14.8534C14.6586 15.0486 14.342 15.0486 14.1468 14.8534L10.6572 11.3638C10.4619 11.1685 10.4619 10.852 10.6572 10.6567Z" fill="black"/>
<path fill-rule="evenodd" clip-rule="evenodd" d="M3.78613 7.07153C3.78613 6.79539 4.00999 6.57153 4.28613 6.57153H9.85756C10.1337 6.57153 10.3576 6.79539 10.3576 7.07153C10.3576 7.34768 10.1337 7.57153 9.85756 7.57153H4.28613C4.00999 7.57153 3.78613 7.34768 3.78613 7.07153Z" fill="black"/>
</svg>
